LuxiMono-Bold.sfdir
StartChar: exclam
Encoding: 33 33 232
Width: 600
Flags: MW
HStem: 0 121<228 373 228 373> 703 20<228 373 373 373>
VStem: 228 145<0 121 0 121 578 723>
LayerCount: 2
Fore
SplineSet
228 0 m 1
 228 121 l 1
 373 121 l 1
 373 0 l 1
 228 0 l 1
258 205 m 1
 228 578 l 1
 228 723 l 1
 373 723 l 1
 373 578 l 1
 342 205 l 1
 258 205 l 1
EndSplineSet
EndChar
StartChar: quotedbl
Encoding: 34 34 255
Width: 600
Flags: W
LayerCount: 2
Fore
SplineSet
119 506 m 1
 95 771 l 1
 240 771 l 1
 216 506 l 1
 119 506 l 1
385 506 m 1
 360 771 l 1
 505 771 l 1
 481 506 l 1
 385 506 l 1
EndSplineSet
EndChar
StartChar: numbersign
Encoding: 35 35 257
Width: 600
Flags: MW
HStem: 0 20 211 84<41 123 24 145 41 210 232 312 420 516> 428 84<85 177 67 198 85 265 287 366 474 560> 703 20<253 339 339 339 440 527 527 527>
LayerCount: 2
Fore
SplineSet
69 0 m 1
 123 211 l 1
 24 211 l 1
 41 295 l 1
 145 295 l 1
 177 428 l 1
 67 428 l 1
 85 512 l 1
 198 512 l 1
 253 723 l 1
 339 723 l 1
 287 512 l 1
 388 512 l 1
 440 723 l 1
 527 723 l 1
 474 512 l 1
 576 512 l 1
 560 428 l 1
 454 428 l 1
 420 295 l 1
 534 295 l 1
 516 211 l 1
 399 211 l 1
 345 0 l 1
 257 0 l 1
 312 211 l 1
 210 211 l 1
 156 0 l 1
 69 0 l 1
232 295 m 1
 333 295 l 1
 366 428 l 1
 265 428 l 1
 232 295 l 1
EndSplineSet
EndChar
StartChar: dollar
Encoding: 36 36 214
Width: 600
Flags: W
HStem: 0 20
VStem: 73 130<542.5 581 542.5 595> 234 84<-96 0 -96 0 88 278> 271 84<466 635 635 635 722 819>
LayerCount: 2
Fore
SplineSet
318 88 m 1xa0
 329 90 l 2
 362 96 386 130 386 171 c 0
 386 211 367 242 318 278 c 1
 318 88 l 1xa0
53 27 m 1
 53 186 l 1
 138 186 l 1
 149 113 l 1
 179 100 204 92 234 86 c 1
 234 335 l 2xa0
 231 337 223 343 211 352 c 0
 113 424 73 479 73 545 c 0
 73 645 148 713 271 722 c 1
 271 819 l 1
 355 819 l 1
 355 722 l 1
 403 717 442 709 484 698 c 1
 484 554 l 1
 400 554 l 1
 388 628 l 1
 377 632 366 635 355 636 c 1
 355 407 l 1xd0
 483 322 519 275 519 196 c 0
 519 144 503 99 471 67 c 0
 438 31 397 14 318 0 c 1
 318 -96 l 1
 234 -96 l 1
 234 0 l 1
 164 6 107 15 53 27 c 1
271 466 m 1xd0
 271 635 l 1
 225 627 203 603 203 559 c 0
 203 526 223 499 271 466 c 1xd0
EndSplineSet
EndChar
StartChar: percent
Encoding: 37 37 278
Width: 600
Flags: W
HStem: -18 20 0 84<428.5 457.5 428.5 489.5> 277 84<428.5 457.5> 362 84<142.5 171.5 142.5 203.5> 639 84<142 170.5> 721 20<502 579 579 579>
VStem: 0 113<511 574.5 511 595.5> 200 114<508 572> 286 113<149 212.5 149 233.5> 487 114<145.5 209.5>
LayerCount: 2
Fore
SplineSet
22 -18 m 1xa6c0
 502 741 l 1
 579 741 l 1
 99 -18 l 1
 22 -18 l 1xa6c0
443 361 m 0
 536 361 601 288 601 184 c 0
 601 75 536 0 443 0 c 0x7ac0
 350 0 286 73 286 180 c 0
 286 287 350 361 443 361 c 0
443 277 m 0
 414 277 399 244 399 181 c 0
 399 117 414 84 443 84 c 0
 472 84 487 115 487 176 c 0
 487 243 472 277 443 277 c 0
156 723 m 0
 249 723 314 650 314 545 c 0x7b
 314 437 250 362 157 362 c 0
 64 362 0 435 0 542 c 0
 0 649 64 723 156 723 c 0
156 639 m 0
 128 639 113 606 113 543 c 0
 113 479 128 446 157 446 c 0
 186 446 200 477 200 539 c 0
 200 605 185 639 156 639 c 0
EndSplineSet
EndChar
StartChar: ampersand
Encoding: 38 38 249
Width: 600
Flags: W
HStem: -18 104<236 269> 0 20 657 84<267 295>
VStem: 22 115<190.5 255> 129 109<590 620.5 590 637> 323 110<576 616>
LayerCount: 2
Fore
SplineSet
425 0 m 1x6c
 395 43 l 1
 350 0 302 -18 236 -18 c 0
 107 -18 22 68 22 199 c 0x90
 22 311 69 383 179 439 c 1
 144 508 129 555 129 595 c 0
 129 679 195 741 284 741 c 0
 371 741 433 677 433 588 c 0
 433 518 396 465 306 405 c 1
 340 330 379 259 426 186 c 1
 447 228 455 265 455 311 c 2
 455 332 l 1
 405 332 l 1
 405 416 l 1
 590 416 l 1
 590 332 l 1
 538 332 l 1
 538 254 516 184 472 119 c 1
 499 85 l 1
 560 85 l 1
 560 0 l 1
 425 0 l 1x6c
348 107 m 1xb0
 291 200 244 287 211 364 c 1
 159 332 137 293 137 234 c 0
 137 147 195 86 277 86 c 0
 306 86 327 92 348 107 c 1xb0
275 479 m 1xac
 309 521 323 556 323 596 c 0
 323 636 309 657 281 657 c 0
 253 657 238 638 238 603 c 0
 238 577 252 532 275 479 c 1xac
EndSplineSet
EndChar
StartChar: quotesingle
Encoding: 39 39 254
Width: 600
Flags: W
LayerCount: 2
Fore
SplineSet
252 470 m 1
 216 771 l 1
 384 771 l 1
 348 470 l 1
 252 470 l 1
EndSplineSet
EndChar
StartChar: parenleft
Encoding: 40 40 245
Width: 600
Flags: MW
VStem: 94 144<254 368 254 387>
LayerCount: 2
Fore
SplineSet
504 -60 m 1
 504 -145 l 1
 425 -143 364 -124 298 -81 c 0
 163 5 94 138 94 313 c 0
 94 461 148 585 252 677 c 0
 325 740 398 768 504 771 c 1
 504 687 l 1
 424 672 372 642 325 586 c 0
 267 517 238 424 238 312 c 0
 238 196 271 99 335 28 c 0
 381 -23 431 -48 504 -60 c 1
EndSplineSet
EndChar
StartChar: parenright
Encoding: 41 41 246
Width: 600
Flags: MW
VStem: 362 144<258 372.5>
LayerCount: 2
Fore
SplineSet
96 687 m 1
 96 771 l 1
 175 769 236 751 302 708 c 0
 438 621 506 489 506 314 c 0
 506 166 452 41 348 -50 c 0
 275 -114 202 -142 96 -145 c 1
 96 -60 l 1
 176 -45 228 -16 275 40 c 0
 333 110 362 202 362 314 c 0
 362 431 329 528 265 599 c 0
 219 649 169 675 96 687 c 1
EndSplineSet
EndChar
StartChar: asterisk
Encoding: 42 42 253
Width: 600
Flags: MW
HStem: 703 20<236 367 367 367>
LayerCount: 2
Fore
SplineSet
235 291 m 1
 125 360 l 1
 248 472 l 1
 258 458 271 449 288 445 c 1
 235 291 l 1
75 507 m 1
 112 631 l 1
 254 546 l 1
 243 533 239 521 239 508 c 2
 239 506 l 1
 239 499 l 1
 75 507 l 1
276 562 m 1
 236 723 l 1
 367 723 l 1
 325 561 l 1
 315 565 306 567 300 567 c 0
 294 567 285 565 276 562 c 1
347 544 m 1
 491 632 l 1
 525 507 l 1
 361 501 l 1
 361 503 l 1
 361 506 l 1
 361 508 l 2
 361 520 357 532 347 544 c 1
369 289 m 1
 311 445 l 1
 327 448 340 457 352 472 c 1
 475 363 l 1
 369 289 l 1
EndSplineSet
EndChar
StartChar: plus
Encoding: 43 43 259
Width: 600
Flags: MW
HStem: 253 97<48 252 48 252 349 552>
VStem: 252 97<49 253 49 253 350 553>
LayerCount: 2
Fore
SplineSet
252 49 m 1
 252 253 l 1
 48 253 l 1
 48 350 l 1
 252 350 l 1
 252 553 l 1
 349 553 l 1
 349 350 l 1
 552 350 l 1
 552 253 l 1
 349 253 l 1
 349 49 l 1
 252 49 l 1
EndSplineSet
EndChar
StartChar: hyphen
Encoding: 45 45 241
Width: 600
Flags: MW
HStem: 253 97<72 528 72 528>
LayerCount: 2
Fore
SplineSet
72 253 m 1
 72 350 l 1
 528 350 l 1
 528 253 l 1
 72 253 l 1
EndSplineSet
EndChar
StartChar: period
Encoding: 46 46 222
Width: 600
Flags: MW
HStem: 0 168<216 384 216 384>
VStem: 216 168<0 168 0 168>
LayerCount: 2
Fore
SplineSet
216 0 m 1
 216 168 l 1
 384 168 l 1
 384 0 l 1
 216 0 l 1
EndSplineSet
EndChar
StartChar: slash
Encoding: 47 47 240
Width: 600
Flags: W
LayerCount: 2
Fore
SplineSet
0 -145 m 1
 493 771 l 1
 600 771 l 1
 107 -145 l 1
 0 -145 l 1
EndSplineSet
EndChar
StartChar: zero
Encoding: 48 48 212
Width: 600
Flags: MW
HStem: -18 84<267.5 335 267.5 380> 657 84<266.5 333.5>
VStem: 42 157<264 460.5 264 482.5> 401 157<267 462.5>
LayerCount: 2
Fore
SplineSet
300 741 m 0
 464 741 558 603 558 363 c 0
 558 119 464 -18 296 -18 c 0
 136 -18 42 123 42 362 c 0
 42 603 136 741 300 741 c 0
300 657 m 0
 233 657 199 558 199 363 c 0
 199 165 233 66 302 66 c 0
 368 66 401 167 401 367 c 0
 401 558 367 657 300 657 c 0
EndSplineSet
EndChar
StartChar: one
Encoding: 49 49 203
Width: 600
Flags: MW
HStem: 0 84<72 238 72 238 383 551> 715 20<383 383>
VStem: 238 145<84 587 587 587>
LayerCount: 2
Fore
SplineSet
72 0 m 1
 72 84 l 1
 238 84 l 1
 238 587 l 1
 72 538 l 1
 72 622 l 1
 383 735 l 1
 383 84 l 1
 551 84 l 1
 551 0 l 1
 72 0 l 1
EndSplineSet
EndChar
StartChar: two
Encoding: 50 50 204
Width: 600
Flags: MW
HStem: 0 121<229 507 229 507> 657 85<255 306>
VStem: 378 131<520 583>
LayerCount: 2
Fore
SplineSet
92 0 m 1
 92 103 l 1
 109 140 146 194 188 243 c 2
 292 366 l 2
 350 434 378 493 378 547 c 0
 378 619 341 657 271 657 c 0
 239 657 212 651 180 636 c 1
 170 538 l 1
 94 538 l 1
 94 705 l 1
 162 731 221 742 283 742 c 0
 426 742 509 668 509 542 c 0
 509 465 486 425 392 334 c 2
 337 281 l 2
 281 227 244 172 229 121 c 1
 507 121 l 1
 507 0 l 1
 92 0 l 1
EndSplineSet
EndChar
StartChar: three
Encoding: 51 51 205
Width: 600
Flags: W
HStem: -18 85<255.5 300 255.5 342> 657 84<252.5 290.5>
VStem: 355 154<523 585.5> 378 155<150 232.5>
LayerCount: 2
Fore
SplineSet
84 7 m 1xd0
 84 160 l 1
 174 160 l 1
 186 83 l 1
 221 72 245 67 266 67 c 0
 334 67 378 114 378 186 c 0xd0
 378 279 309 338 199 338 c 2
 150 338 l 1
 150 422 l 1
 198 422 l 2
 303 422 355 465 355 551 c 0
 355 620 322 657 259 657 c 0
 239 657 221 653 192 643 c 1
 180 566 l 1
 90 566 l 1
 90 711 l 1
 163 732 223 741 282 741 c 0
 419 741 509 672 509 567 c 0xe0
 509 479 458 425 340 388 c 1
 458 366 533 290 533 192 c 0
 533 67 423 -18 261 -18 c 0
 215 -18 168 -11 84 7 c 1xd0
EndSplineSet
EndChar
StartChar: four
Encoding: 52 52 206
Width: 600
Flags: MW
HStem: 0 84<210 343 475 547 210 343> 199 103<149 343 149 343 475 559> 712 20<343 475 475 475>
VStem: 343 132<84 199 84 199 302 579 579 579>
LayerCount: 2
Fore
SplineSet
35 199 m 1
 35 293 l 1
 343 732 l 1
 475 732 l 1
 475 302 l 1
 559 302 l 1
 559 199 l 1
 475 199 l 1
 475 84 l 1
 547 84 l 1
 547 0 l 1
 210 0 l 1
 210 84 l 1
 343 84 l 1
 343 199 l 1
 35 199 l 1
343 302 m 1
 343 579 l 1
 149 302 l 1
 343 302 l 1
EndSplineSet
EndChar
StartChar: five
Encoding: 53 53 207
Width: 600
Flags: MW
HStem: -18 85<266.5 306.5 266.5 347.5> 603 120<214 523 214 214>
VStem: 130 84<447 603 447 723> 377 156<153.5 247>
LayerCount: 2
Fore
SplineSet
114 9 m 1
 114 160 l 1
 204 160 l 1
 216 84 l 1
 239 72 257 67 276 67 c 0
 337 67 377 116 377 191 c 0
 377 303 310 361 182 361 c 0
 169 361 147 360 130 358 c 1
 130 723 l 1
 523 723 l 1
 523 603 l 1
 214 603 l 1
 214 447 l 1
 419 444 533 360 533 213 c 0
 533 78 424 -18 271 -18 c 0
 226 -18 187 -11 114 9 c 1
EndSplineSet
EndChar
StartChar: six
Encoding: 54 54 208
Width: 600
Flags: MW
HStem: -18 84<288.5 346 288.5 390.5> 371 102<327 346> 657 84<314 368.5>
VStem: 404 156<167.5 268.5>
LayerCount: 2
Fore
SplineSet
522 720 m 1
 522 566 l 1
 432 566 l 1
 419 643 l 1
 397 653 378 657 359 657 c 0
 269 657 205 561 205 425 c 2
 205 419 l 1
 206 390 l 1
 249 448 295 473 359 473 c 0
 477 473 560 376 560 238 c 0
 560 86 462 -18 319 -18 c 0
 154 -18 52 117 52 336 c 0
 52 581 173 741 359 741 c 0
 404 741 457 734 522 720 c 1
317 371 m 0
 256 371 224 320 224 222 c 0
 224 125 259 66 318 66 c 0
 374 66 404 118 404 217 c 0
 404 320 375 371 317 371 c 0
EndSplineSet
EndChar
StartChar: seven
Encoding: 55 55 209
Width: 600
Flags: MW
HStem: 0 20 603 120<63 405 63 537>
LayerCount: 2
Fore
SplineSet
250 0 m 1
 94 0 l 1
 96 108 138 201 281 417 c 2
 405 603 l 1
 63 603 l 1
 63 723 l 1
 537 723 l 1
 537 627 l 1
 456 515 l 2
 327 335 259 165 250 0 c 1
EndSplineSet
EndChar
StartChar: eight
Encoding: 56 56 210
Width: 600
Flags: W
HStem: -18 84<276.5 343.5 276.5 371.5> 657 84<274 326.5>
VStem: 46 144<159 217.5> 88 133<560.5 603.5 560.5 606> 384 132<548 592.5> 418 137<139.5 186.5>
LayerCount: 2
Fore
SplineSet
192 390 m 1xe4
 108 449 88 479 88 548 c 0
 88 664 176 741 309 741 c 0
 434 741 516 676 516 578 c 0xd8
 516 518 483 466 403 402 c 1
 518 334 555 286 555 203 c 0
 555 76 446 -18 297 -18 c 0
 148 -18 46 61 46 177 c 0
 46 258 89 322 192 390 c 1xe4
283 478 m 2
 329 441 l 1
 369 491 384 523 384 562 c 0
 384 623 354 657 299 657 c 0
 249 657 221 629 221 578 c 0
 221 543 240 512 283 478 c 2
328 285 m 2xe4
 254 340 l 1
 209 292 190 249 190 198 c 0
 190 120 240 66 313 66 c 0
 374 66 418 108 418 165 c 0
 418 208 400 232 328 285 c 2xe4
EndSplineSet
EndChar
StartChar: nine
Encoding: 57 57 211
Width: 600
Flags: MW
HStem: -18 85<231.5 286 231.5 334.5> 250 103<254 273> 657 84<254 311.5>
VStem: 40 156<455 556 455 561>
LayerCount: 2
Fore
SplineSet
78 4 m 1
 78 157 l 1
 168 157 l 1
 181 80 l 1
 203 71 222 67 241 67 c 0
 331 67 395 162 395 298 c 2
 395 303 l 1
 394 333 l 1
 351 275 305 250 241 250 c 0
 123 250 40 347 40 485 c 0
 40 637 138 741 281 741 c 0
 447 741 548 606 548 386 c 0
 548 141 427 -18 242 -18 c 0
 195 -18 143 -11 78 4 c 1
282 657 m 0
 226 657 196 605 196 507 c 0
 196 403 225 353 283 353 c 0
 344 353 376 404 376 501 c 0
 376 598 341 657 282 657 c 0
EndSplineSet
EndChar
StartChar: colon
Encoding: 58 58 223
Width: 600
Flags: MW
HStem: 0 168<216 384 216 384> 361 169<216 384 216 384>
VStem: 216 168<0 168 0 168 361 530>
LayerCount: 2
Fore
SplineSet
216 0 m 1
 216 168 l 1
 384 168 l 1
 384 0 l 1
 216 0 l 1
216 361 m 1
 216 530 l 1
 384 530 l 1
 384 361 l 1
 216 361 l 1
EndSplineSet
EndChar
StartChar: semicolon
Encoding: 59 59 227
Width: 600
Flags: MW
HStem: 0 20 361 169<216 384 216 384>
VStem: 216 168<-169 30 -109 30 0 30 30 168 -44.5 168 361 530>
LayerCount: 2
Fore
SplineSet
216 361 m 1
 216 530 l 1
 384 530 l 1
 384 361 l 1
 216 361 l 1
216 0 m 1
 216 168 l 1
 384 168 l 1
 384 30 l 2
 384 -119 344 -169 226 -169 c 2
 216 -169 l 1
 216 -109 l 1
 223 -109 l 2
 270 -109 281 -87 282 0 c 1
 216 0 l 1
EndSplineSet
EndChar
StartChar: less
Encoding: 60 60 300
Width: 600
Flags: MW
HStem: 0 20
LayerCount: 2
Fore
SplineSet
551 603 m 1
 551 494 l 1
 231 304 l 1
 551 110 l 1
 551 0 l 1
 48 304 l 1
 551 603 l 1
EndSplineSet
EndChar
StartChar: equal
Encoding: 61 61 263
Width: 600
Flags: MW
HStem: 150 97<50 550 50 550> 356 96<50 550 50 550>
LayerCount: 2
Fore
SplineSet
50 150 m 1
 50 247 l 1
 550 247 l 1
 550 150 l 1
 50 150 l 1
50 356 m 1
 50 452 l 1
 550 452 l 1
 550 356 l 1
 50 356 l 1
EndSplineSet
EndChar
StartChar: greater
Encoding: 62 62 301
Width: 600
Flags: MW
HStem: 0 20
LayerCount: 2
Fore
SplineSet
48 0 m 1
 48 108 l 1
 367 298 l 1
 48 492 l 1
 48 603 l 1
 551 298 l 1
 48 0 l 1
EndSplineSet
EndChar
StartChar: question
Encoding: 63 63 234
Width: 600
Flags: MW
HStem: 0 121<183 328 183 328> 657 84<249.5 302>
VStem: 183 145<0 121 0 121 0 224 0 267> 386 156<558.5 596>
LayerCount: 2
Fore
SplineSet
183 0 m 1
 183 121 l 1
 328 121 l 1
 328 0 l 1
 183 0 l 1
183 205 m 1
 183 224 l 2
 183 310 204 350 292 431 c 2
 321 457 l 2
 366 498 386 532 386 567 c 0
 386 625 342 657 262 657 c 0
 227 657 198 651 159 635 c 1
 146 548 l 1
 62 548 l 1
 62 709 l 1
 160 733 218 741 281 741 c 0
 450 741 542 684 542 581 c 0
 542 536 521 497 477 463 c 2
 442 436 l 1
 413 413 l 2
 345 356 327 321 327 244 c 2
 327 205 l 1
 183 205 l 1
EndSplineSet
EndChar
StartChar: at
Encoding: 64 64 256
Width: 600
Flags: MW
HStem: -18 78<271 360.5 271 364.5> 137 86<319 349.5> 506 68<364 404 336.5 412> 663 79<267.5 371>
VStem: 22 86<271 449.5 271 474> 189 97<298.5 391.5 298.5 392> 468 84<229 296 296 296 434 494 494 494>
LayerCount: 2
Fore
SplineSet
468 91 m 1
 468 3 l 1
 422 -12 385 -18 344 -18 c 0
 149 -18 22 130 22 359 c 0
 22 589 150 742 343 742 c 0
 489 742 552 676 552 522 c 2
 552 229 l 1
 594 229 l 1
 594 145 l 1
 468 145 l 1
 468 296 l 1
 462 296 l 1
 409 167 381 137 318 137 c 0
 241 137 189 211 189 320 c 0
 189 464 278 574 395 574 c 0
 413 574 433 571 465 564 c 1
 450 632 409 663 333 663 c 0
 202 663 108 537 108 362 c 0
 108 180 201 60 341 60 c 0
 380 60 418 69 468 91 c 1
468 434 m 1
 468 494 l 1
 442 502 422 506 402 506 c 0
 326 506 286 448 286 335 c 0
 286 262 303 223 335 223 c 0
 375 223 415 285 468 434 c 1
EndSplineSet
EndChar
StartChar: A
Encoding: 65 65 133
Width: 600
Flags: MW
HStem: 0 20 199 84<186 357 186 381 162 357> 703 20<225 375 375 375>
LayerCount: 2
Fore
SplineSet
12 0 m 1
 12 85 l 1
 42 85 l 1
 225 723 l 1
 375 723 l 1
 558 85 l 1
 588 85 l 1
 588 0 l 1
 348 0 l 1
 348 85 l 1
 414 85 l 1
 381 199 l 1
 162 199 l 1
 130 85 l 1
 196 85 l 1
 196 0 l 1
 12 0 l 1
186 283 m 1
 357 283 l 1
 272 581 l 1
 271 581 l 1
 186 283 l 1
EndSplineSet
EndChar
StartChar: B
Encoding: 66 66 134
Width: 600
Flags: W
HStem: 0 20 703 20<18 290 290 378>
VStem: 66 145<85 332 416 639> 383 155<524 583> 408 158<152.5 234 123.5 238.5>
LayerCount: 2
Fore
SplineSet
18 0 m 1xc8
 18 85 l 1
 66 85 l 1
 66 639 l 1
 18 639 l 1
 18 723 l 1
 290 723 l 2
 466 723 538 678 538 567 c 0xf0
 538 481 491 425 381 379 c 1
 501 351 566 283 566 185 c 0
 566 62 480 0 309 0 c 2
 18 0 l 1xc8
211 85 m 1
 250 85 l 2
 366 85 408 113 408 192 c 0xe8
 408 285 350 332 235 332 c 2
 211 332 l 1
 211 85 l 1
211 416 m 1
 233 416 l 2
 324 416 383 468 383 548 c 0xf0
 383 618 348 639 236 639 c 2
 211 639 l 1
 211 416 l 1
EndSplineSet
EndChar
StartChar: C
Encoding: 67 67 135
Width: 600
Flags: MW
HStem: -18 95<331.5 412> 657 84<314.5 390.5>
VStem: 24 157<277.5 457 277.5 472.5> 562 15
LayerCount: 2
Fore
SplineSet
577 127 m 1
 577 22 l 1
 509 -6 447 -18 377 -18 c 0
 161 -18 24 127 24 357 c 0
 24 588 160 741 367 741 c 0
 429 741 487 731 562 709 c 1
 562 500 l 1
 478 500 l 1
 465 626 l 1
 435 648 408 657 373 657 c 0
 256 657 181 544 181 370 c 0
 181 185 262 77 401 77 c 0
 454 77 506 92 577 127 c 1
EndSplineSet
EndChar
StartChar: F
Encoding: 70 70 138
Width: 600
Flags: W
HStem: 0 84<18 90 18 90 18 331> 0 90<235 331 235 331> 295 84<235 373 235 373> 639 84<18 90 18 566 235 235 235 476>
VStem: 90 145<90 295 379 639> 476 90<542 639 639 639>
LayerCount: 2
Fore
SplineSet
18 0 m 1x8c
 18 84 l 1
 90 84 l 1x8c
 90 639 l 1
 18 639 l 1
 18 723 l 1
 566 723 l 1
 566 542 l 1
 476 542 l 1
 476 639 l 1
 235 639 l 1
 235 379 l 1
 373 379 l 1
 373 440 l 1
 458 440 l 1
 458 235 l 1
 373 235 l 1
 373 295 l 1
 235 295 l 1
 235 90 l 1
 331 90 l 1x7c
 331 0 l 1
 18 0 l 1x8c
EndSplineSet
EndChar
StartChar: G
Encoding: 71 71 139
Width: 600
Flags: MW
HStem: -18 96<319 383.5 319 402> 250 84<336 426 336 571> 657 84<312 385>
VStem: 24 156<282.5 455 282.5 472> 426 145<83 250 250 250>
LayerCount: 2
Fore
SplineSet
571 334 m 1
 571 24 l 1
 505 -4 439 -18 365 -18 c 0
 160 -18 24 132 24 356 c 0
 24 588 160 741 366 741 c 0
 425 741 481 732 556 709 c 1
 556 500 l 1
 471 500 l 1
 459 626 l 1
 429 648 402 657 368 657 c 0
 256 657 180 541 180 369 c 0
 180 196 260 78 378 78 c 0
 389 78 409 80 426 83 c 1
 426 250 l 1
 336 250 l 1
 336 334 l 1
 571 334 l 1
EndSplineSet
EndChar
StartChar: H
Encoding: 72 72 140
Width: 600
Flags: MW
HStem: 0 20 326 90<211 389 211 389> 703 20<18 259 259 259 341 582 582 582>
VStem: 66 145<85 326 416 639> 389 145<85 326 326 326 416 639 85 639>
LayerCount: 2
Fore
SplineSet
18 0 m 1
 18 85 l 1
 66 85 l 1
 66 639 l 1
 18 639 l 1
 18 723 l 1
 259 723 l 1
 259 639 l 1
 211 639 l 1
 211 416 l 1
 389 416 l 1
 389 639 l 1
 341 639 l 1
 341 723 l 1
 582 723 l 1
 582 639 l 1
 534 639 l 1
 534 85 l 1
 582 85 l 1
 582 0 l 1
 341 0 l 1
 341 85 l 1
 389 85 l 1
 389 326 l 1
 211 326 l 1
 211 85 l 1
 259 85 l 1
 259 0 l 1
 18 0 l 1
EndSplineSet
EndChar
StartChar: I
Encoding: 73 73 141
Width: 600
Flags: MW
HStem: 0 84<60 227 60 227 372 539> 639 84<60 227 60 539 372 372 372 539>
VStem: 227 145<84 639 84 639>
LayerCount: 2
Fore
SplineSet
60 0 m 1
 60 84 l 1
 227 84 l 1
 227 639 l 1
 60 639 l 1
 60 723 l 1
 539 723 l 1
 539 639 l 1
 372 639 l 1
 372 84 l 1
 539 84 l 1
 539 0 l 1
 60 0 l 1
EndSplineSet
EndChar
StartChar: J
Encoding: 74 74 142
Width: 600
Flags: MW
HStem: -18 85<223 263 220.5 314.5> 639 84<156 313 156 578 458 458 458 578>
VStem: 313 145<197 639>
LayerCount: 2
Fore
SplineSet
54 15 m 1
 54 253 l 1
 138 253 l 1
 150 97 l 1
 184 76 208 67 233 67 c 0
 293 67 313 100 313 197 c 2
 313 639 l 1
 156 639 l 1
 156 723 l 1
 578 723 l 1
 578 639 l 1
 458 639 l 1
 458 187 l 2
 458 52 385 -18 244 -18 c 0
 202 -18 153 -10 92 5 c 2
 54 15 l 1
EndSplineSet
EndChar
StartChar: K
Encoding: 75 75 143
Width: 600
Flags: MW
HStem: 0 20 703 20<18 259 259 259 382 598 598 598>
VStem: 66 145<85 350 380 639>
LayerCount: 2
Fore
SplineSet
18 0 m 1
 18 85 l 1
 66 85 l 1
 66 639 l 1
 18 639 l 1
 18 723 l 1
 259 723 l 1
 259 639 l 1
 211 639 l 1
 211 380 l 1
 223 380 l 1
 436 639 l 1
 382 639 l 1
 382 723 l 1
 598 723 l 1
 598 639 l 1
 542 639 l 1
 344 400 l 1
 580 85 l 1
 600 85 l 1
 600 0 l 1
 361 0 l 1
 361 85 l 1
 421 85 l 1
 223 350 l 1
 211 350 l 1
 211 85 l 1
 259 85 l 1
 259 0 l 1
 18 0 l 1
EndSplineSet
EndChar
StartChar: M
Encoding: 77 77 145
Width: 600
Flags: MW
HStem: 0 20 703 20<6 187 187 187 417 594 594 594>
VStem: 42 90<84 500 84 639> 447 114<84 536 536 536>
LayerCount: 2
Fore
SplineSet
6 0 m 1
 6 84 l 1
 42 84 l 1
 42 639 l 1
 6 639 l 1
 6 723 l 1
 187 723 l 1
 299 253 l 1
 417 723 l 1
 594 723 l 1
 594 639 l 1
 561 639 l 1
 561 84 l 1
 594 84 l 1
 594 0 l 1
 380 0 l 1
 380 84 l 1
 447 84 l 1
 447 536 l 1
 444 536 l 1
 332 90 l 1
 234 90 l 1
 135 500 l 1
 132 500 l 1
 132 84 l 1
 187 84 l 1
 187 0 l 1
 6 0 l 1
EndSplineSet
EndChar
StartChar: O
Encoding: 79 79 147
Width: 600
Flags: MW
HStem: -18 84<260 343.5 260 389.5> 657 84<258.5 341.5>
VStem: 24 150<264 460.5 264 484> 426 150<265.5 461>
LayerCount: 2
Fore
SplineSet
300 741 m 0
 478 741 576 606 576 361 c 0
 576 110 482 -18 297 -18 c 0
 123 -18 24 119 24 362 c 0
 24 606 122 741 300 741 c 0
300 657 m 0
 217 657 174 558 174 363 c 0
 174 165 217 66 303 66 c 0
 384 66 426 167 426 364 c 0
 426 558 383 657 300 657 c 0
EndSplineSet
EndChar
StartChar: P
Encoding: 80 80 148
Width: 600
Flags: MW
HStem: 0 84<18 115 18 115 260 404> 639 84<18 115 18 328 260 260 260 290>
VStem: 115 145<84 277 361 639> 431 154<460.5 558>
LayerCount: 2
Fore
SplineSet
18 0 m 1
 18 84 l 1
 115 84 l 1
 115 639 l 1
 18 639 l 1
 18 723 l 1
 328 723 l 2
 508 723 585 665 585 529 c 0
 585 373 473 277 290 277 c 2
 260 277 l 1
 260 84 l 1
 404 84 l 1
 404 0 l 1
 18 0 l 1
260 361 m 1
 278 361 l 2
 380 361 431 411 431 510 c 0
 431 606 395 639 290 639 c 2
 260 639 l 1
 260 361 l 1
EndSplineSet
EndChar
StartChar: Q
Encoding: 81 81 149
Width: 600
Flags: MW
HStem: 657 84<258.5 341.5>
VStem: 24 150<265 461 265 483> 426 150<268 461.5>
LayerCount: 2
Fore
SplineSet
325 -18 m 1
 317 -18 l 2
 122 -18 24 109 24 360 c 0
 24 606 122 741 300 741 c 0
 479 741 576 606 576 360 c 0
 576 176 532 78 418 5 c 1
 481 -21 541 -36 598 -39 c 1
 574 -92 545 -137 508 -178 c 1
 440 -150 380 -97 325 -18 c 1
300 657 m 0
 217 657 174 558 174 364 c 0
 174 166 217 67 303 67 c 0
 384 67 426 168 426 365 c 0
 426 558 383 657 300 657 c 0
EndSplineSet
EndChar
StartChar: R
Encoding: 82 82 150
Width: 600
Flags: MW
HStem: 0 84<18 66 18 66 211 295 557 594> 703 20<18 282 282 328>
VStem: 66 145<84 301 386 639> 364 159<505.5 575>
LayerCount: 2
Fore
SplineSet
18 0 m 1
 18 84 l 1
 66 84 l 1
 66 639 l 1
 18 639 l 1
 18 723 l 1
 282 723 l 2
 374 723 413 717 445 698 c 0
 496 668 523 616 523 549 c 0
 523 462 480 399 381 340 c 1
 557 84 l 1
 594 84 l 1
 594 0 l 1
 442 0 l 1
 231 301 l 1
 211 301 l 1
 211 84 l 1
 295 84 l 1
 295 0 l 1
 18 0 l 1
211 386 m 1
 235 386 l 2
 315 386 364 442 364 534 c 0
 364 616 337 639 239 639 c 2
 211 639 l 1
 211 386 l 1
EndSplineSet
EndChar
StartChar: T
Encoding: 84 84 152
Width: 600
Flags: MW
HStem: 0 84<119 228 119 228 373 481> 510 20<23 113 23 23 487 487 487 577> 639 84<113 228 113 113 373 373 373 487>
VStem: 23 90<530 639 530 723 530 723> 228 145<84 639 84 639> 487 90<530 639 639 639>
LayerCount: 2
Fore
SplineSet
119 0 m 1
 119 84 l 1
 228 84 l 1
 228 639 l 1
 113 639 l 1
 113 530 l 1
 23 530 l 1
 23 723 l 1
 577 723 l 1
 577 530 l 1
 487 530 l 1
 487 639 l 1
 373 639 l 1
 373 84 l 1
 481 84 l 1
 481 0 l 1
 119 0 l 1
EndSplineSet
EndChar
StartChar: V
Encoding: 86 86 154
Width: 600
Flags: MW
HStem: 0 20 703 20<6 243 243 243 414 594 594 594>
LayerCount: 2
Fore
SplineSet
218 0 m 1
 34 639 l 1
 6 639 l 1
 6 723 l 1
 243 723 l 1
 243 639 l 1
 181 639 l 1
 323 147 l 1
 475 639 l 1
 414 639 l 1
 414 723 l 1
 594 723 l 1
 594 639 l 1
 557 639 l 1
 361 0 l 1
 218 0 l 1
EndSplineSet
EndChar
StartChar: W
Encoding: 87 87 155
Width: 600
Flags: MW
HStem: 0 20 703 20<6 195 195 195 450 594 594 594>
LayerCount: 2
Fore
SplineSet
103 0 m 1
 35 639 l 1
 6 639 l 1
 6 723 l 1
 195 723 l 1
 195 639 l 1
 151 639 l 1
 192 255 l 1
 195 255 l 1
 253 621 l 1
 365 621 l 1
 431 250 l 1
 434 250 l 1
 478 639 l 1
 450 639 l 1
 450 723 l 1
 594 723 l 1
 594 639 l 1
 564 639 l 1
 493 0 l 1
 374 0 l 1
 295 424 l 1
 224 0 l 1
 103 0 l 1
EndSplineSet
EndChar
StartChar: X
Encoding: 88 88 156
Width: 600
Flags: MW
HStem: 0 20 703 20<18 289 289 289 371 576 576 576>
LayerCount: 2
Fore
SplineSet
6 0 m 1
 6 85 l 1
 46 85 l 1
 229 360 l 1
 72 639 l 1
 18 639 l 1
 18 723 l 1
 289 723 l 1
 289 639 l 1
 233 639 l 1
 322 481 l 1
 418 639 l 1
 371 639 l 1
 371 723 l 1
 576 723 l 1
 576 639 l 1
 525 639 l 1
 369 400 l 1
 546 85 l 1
 594 85 l 1
 594 0 l 1
 329 0 l 1
 329 85 l 1
 385 85 l 1
 275 278 l 1
 153 85 l 1
 199 85 l 1
 199 0 l 1
 6 0 l 1
EndSplineSet
EndChar
StartChar: Y
Encoding: 89 89 157
Width: 600
Flags: MW
HStem: 0 84<117 237 117 237 382 502> 703 20<7 272 272 272 401 594 594 594>
VStem: 237 145<84 317 84 317>
LayerCount: 2
Fore
SplineSet
117 0 m 1
 117 84 l 1
 237 84 l 1
 237 317 l 1
 52 639 l 1
 7 639 l 1
 7 723 l 1
 272 723 l 1
 272 639 l 1
 225 639 l 1
 344 432 l 1
 451 639 l 1
 401 639 l 1
 401 723 l 1
 594 723 l 1
 594 639 l 1
 552 639 l 1
 382 317 l 1
 382 84 l 1
 502 84 l 1
 502 0 l 1
 117 0 l 1
EndSplineSet
EndChar
StartChar: bracketleft
Encoding: 91 91 247
Width: 600
Flags: MW
HStem: -145 84<300 505 300 505> 687 84<300 505 300 300>
VStem: 168 132<-61 687 -61 771 -61 771>
LayerCount: 2
Fore
SplineSet
168 -145 m 1
 168 771 l 1
 505 771 l 1
 505 687 l 1
 300 687 l 1
 300 -61 l 1
 505 -61 l 1
 505 -145 l 1
 168 -145 l 1
EndSplineSet
EndChar
StartChar: backslash
Encoding: 92 92 280
Width: 600
Flags: W
LayerCount: 2
Fore
SplineSet
600 -145 m 1
 493 -145 l 1
 0 771 l 1
 107 771 l 1
 600 -145 l 1
EndSplineSet
EndChar
StartChar: bracketright
Encoding: 93 93 248
Width: 600
Flags: MW
HStem: -145 84<94 298 94 431 94 298> 687 84<94 298 94 431>
VStem: 298 133<-61 687 687 687>
LayerCount: 2
Fore
SplineSet
431 771 m 1
 431 -145 l 1
 94 -145 l 1
 94 -61 l 1
 298 -61 l 1
 298 687 l 1
 94 687 l 1
 94 771 l 1
 431 771 l 1
EndSplineSet
EndChar
StartChar: underscore
Encoding: 95 95 306
Width: 600
Flags: MW
HStem: -96 96<0 600 0 600>
LayerCount: 2
Fore
SplineSet
0 -96 m 1
 0 0 l 1
 600 0 l 1
 600 -96 l 1
 0 -96 l 1
EndSplineSet
EndChar
StartChar: grave
Encoding: 96 96 285
Width: 600
Flags: W
LayerCount: 2
Fore
SplineSet
337 626 m 1
 180 783 l 1
 319 783 l 1
 421 626 l 1
 337 626 l 1
EndSplineSet
EndChar
StartChar: b
Encoding: 98 98 167
Width: 600
Flags: W
HStem: -12 98<295.5 340.5 287.5 393.5> 0 20 431 111<344 360.5>
VStem: 66 145<99 347 451 686 686 686> 425 145<206.5 321>
LayerCount: 2
Fore
SplineSet
66 0 m 1x58
 66 686 l 1
 18 686 l 1
 18 771 l 1
 211 771 l 1
 211 451 l 1
 262 515 311 542 377 542 c 0
 496 542 570 442 570 283 c 0
 570 95 476 -12 311 -12 c 0xb8
 280 -12 250 -8 211 0 c 1
 66 0 l 1x58
211 99 m 1x78
 224 96 l 2
 246 90 277 86 298 86 c 0x98
 383 86 425 146 425 267 c 0
 425 375 392 431 329 431 c 0
 286 431 251 406 211 347 c 1
 211 99 l 1x78
EndSplineSet
EndChar
StartChar: c
Encoding: 99 99 168
Width: 600
Flags: MW
HStem: -12 96<317.5 394> 459 83<301.5 380.5>
VStem: 30 153<214.5 338 214.5 350>
LayerCount: 2
Fore
SplineSet
576 130 m 1
 576 25 l 1
 497 -1 430 -12 358 -12 c 0
 153 -12 30 91 30 264 c 0
 30 436 157 542 365 542 c 0
 435 542 500 534 570 515 c 1
 570 337 l 1
 486 337 l 1
 474 436 l 1
 436 452 401 459 360 459 c 0
 243 459 183 398 183 278 c 0
 183 151 252 84 383 84 c 0xe0
 435 84 492 98 576 130 c 1
EndSplineSet
EndChar
StartChar: d
Encoding: 100 100 169
Width: 600
Flags: W
HStem: -12 111<239.5 256> 0 20 444 98<259.5 304.5 206.5 312.5>
VStem: 30 145<209 323.5 209 341> 389 145<0 771 78 771 183 431 431 431 530 686 686 686>
LayerCount: 2
Fore
SplineSet
389 0 m 1x78
 389 78 l 1
 338 15 289 -12 223 -12 c 0x98
 104 -12 30 88 30 247 c 0
 30 435 124 542 289 542 c 0
 320 542 349 538 389 530 c 1
 389 686 l 1
 329 686 l 1
 329 771 l 1
 534 771 l 1
 534 84 l 1
 582 84 l 1
 582 0 l 1
 389 0 l 1x78
389 431 m 1xb8
 375 434 l 2
 354 440 323 444 302 444 c 0
 217 444 175 384 175 263 c 0
 175 155 208 99 271 99 c 0
 314 99 350 124 389 183 c 1
 389 431 l 1xb8
EndSplineSet
EndChar
StartChar: f
Encoding: 102 102 171
Width: 600
Flags: MW
HStem: 0 84<59 191 59 191 336 490> 428 90<59 191 59 191 336 538> 699 85<399.5 443>
VStem: 191 145<84 428 84 428 518 563 563 568 84 636>
LayerCount: 2
Fore
SplineSet
59 0 m 1
 59 84 l 1
 191 84 l 1
 191 428 l 1
 59 428 l 1
 59 518 l 1
 191 518 l 1
 191 563 l 2
 191 709 274 784 433 784 c 0
 490 784 536 773 600 746 c 1
 600 621 l 1
 516 621 l 1
 504 680 l 1
 478 693 455 699 431 699 c 0
 368 699 336 655 336 568 c 2
 336 518 l 1
 538 518 l 1
 538 428 l 1
 336 428 l 1
 336 84 l 1
 490 84 l 1
 490 0 l 1
 59 0 l 1
EndSplineSet
EndChar
StartChar: g
Encoding: 103 103 172
Width: 600
Flags: W
HStem: -205 84<263.5 329 263.5 358.5> 0 20 156 84<287 315 265 355> 458 84<265 291.5 218.5 315>
VStem: 45 151<-82.5 -74.5> 76 139<312.5 384.5 312.5 405.5> 365 136<312 362.5 288 384.5> 409 138<-71 -31.5>
LayerCount: 2
Fore
SplineSet
297 90 m 2
 371 90 l 2
 489 90 547 51 547 -30 c 0
 547 -137 442 -205 275 -205 c 0
 137 -205 45 -162 45 -96 c 0xf9
 45 -53 76 -19 146 12 c 1
 110 37 95 58 95 82 c 0
 95 116 120 149 176 189 c 1
 106 229 76 276 76 348 c 0
 76 463 158 542 279 542 c 0
 304 542 326 539 361 530 c 1
 591 542 l 1
 561 439 l 1
 466 454 l 1
 491 415 501 382 501 343 c 0
 501 233 416 156 294 156 c 0
 280 156 270 157 251 161 c 1
 227 144 216 129 216 115 c 0xf6
 216 98 243 90 297 90 c 2
310 0 m 2
 237 0 l 1
 208 -25 196 -44 196 -64 c 0
 196 -101 231 -121 296 -121 c 0
 362 -121 409 -92 409 -50 c 0
 409 -13 384 0 310 0 c 2
290 458 m 0xf6
 240 458 215 421 215 348 c 0
 215 277 240 240 290 240 c 0
 340 240 365 276 365 348 c 0
 365 421 340 458 290 458 c 0xf6
EndSplineSet
EndChar
StartChar: h
Encoding: 104 104 173
Width: 600
Flags: W
HStem: 0 20 431 111<354.5 355>
VStem: 69 139<84 347 84 686> 69 142<451 686 686 686> 395 139<84 315 315 359.5>
LayerCount: 2
Fore
SplineSet
18 0 m 1xe8
 18 84 l 1
 69 84 l 1
 69 686 l 1
 18 686 l 1
 18 771 l 1
 211 771 l 1
 211 451 l 1xd0
 265 515 318 542 391 542 c 0
 493 542 534 491 534 364 c 2
 534 84 l 1
 585 84 l 1
 585 0 l 1
 332 0 l 1
 332 84 l 1
 395 84 l 1
 395 315 l 2
 395 404 380 431 330 431 c 0
 290 431 256 407 208 347 c 1
 208 84 l 1
 271 84 l 1
 271 0 l 1
 18 0 l 1xe8
EndSplineSet
EndChar
StartChar: i
Encoding: 105 105 174
Width: 600
Flags: MW
HStem: 0 84<68 249 68 249 394 574> 446 84<68 249 68 394> 626 145<249 394 249 394>
VStem: 249 145<84 446 446 446 626 771>
LayerCount: 2
Fore
SplineSet
68 0 m 1
 68 84 l 1
 249 84 l 1
 249 446 l 1
 68 446 l 1
 68 530 l 1
 394 530 l 1
 394 84 l 1
 574 84 l 1
 574 0 l 1xf0
 68 0 l 1
249 626 m 1
 249 771 l 1
 394 771 l 1
 394 626 l 1
 249 626 l 1
EndSplineSet
EndChar
StartChar: j
Encoding: 106 106 175
Width: 600
Flags: MW
HStem: -205 83<216 267 216 306.5> 446 84<111 322 111 467> 626 145<322 467 322 467>
VStem: 322 145<43 51 51 446 446 446 626 771>
LayerCount: 2
Fore
SplineSet
39 -174 m 1
 39 24 l 1
 123 24 l 1
 135 -89 l 1
 173 -113 200 -122 232 -122 c 0
 302 -122 322 -85 322 43 c 2
 322 446 l 1
 111 446 l 1
 111 530 l 1
 467 530 l 1
 467 51 l 2
 467 -124 390 -205 223 -205 c 0
 172 -205 118 -196 39 -174 c 1
322 626 m 1
 322 771 l 1
 467 771 l 1
 467 626 l 1
 322 626 l 1
EndSplineSet
EndChar
StartChar: k
Encoding: 107 107 176
Width: 600
Flags: MW
HStem: 0 20 446 84<313 373 313 565 493 493 493 565>
VStem: 66 145<85 241 301 686 686 686>
LayerCount: 2
Fore
SplineSet
18 0 m 1
 18 85 l 1
 66 85 l 1
 66 686 l 1
 18 686 l 1
 18 771 l 1
 211 771 l 1
 211 301 l 1
 235 301 l 1
 373 446 l 1
 313 446 l 1
 313 530 l 1
 565 530 l 1
 565 446 l 1
 493 446 l 1
 364 311 l 1
 534 85 l 1
 582 85 l 1
 582 0 l 1
 352 0 l 1
 352 85 l 1
 235 241 l 1
 211 241 l 1
 211 85 l 1
 259 85 l 1
 259 0 l 1xe0
 18 0 l 1
EndSplineSet
EndChar
StartChar: l
Encoding: 108 108 177
Width: 600
Flags: MW
HStem: 0 84<68 249 68 249 394 574> 687 84<68 249 68 394>
VStem: 249 145<84 687 687 687>
LayerCount: 2
Fore
SplineSet
68 0 m 1
 68 84 l 1
 249 84 l 1
 249 687 l 1
 68 687 l 1
 68 771 l 1
 394 771 l 1
 394 84 l 1
 574 84 l 1
 574 0 l 1xe0
 68 0 l 1
EndSplineSet
EndChar
StartChar: m
Encoding: 109 109 178
Width: 600
Flags: W
HStem: 0 20 510 20<12 159 159 159> 522 20<258.5 300.5 449 500.5>
VStem: 51 108<84 330 440 446 446 446> 246 108<0 310 310 310> 441 108<84 310 310 310>
LayerCount: 2
Fore
SplineSet
12 0 m 1xbc
 12 84 l 1
 51 84 l 1
 51 446 l 1
 12 446 l 1
 12 530 l 1
 159 530 l 1xdc
 159 440 l 1
 200 511 237 542 280 542 c 0
 321 542 344 511 354 440 c 1
 391 512 426 542 472 542 c 0
 529 542 549 502 549 390 c 2
 549 84 l 1
 591 84 l 1
 591 0 l 1
 441 0 l 1
 441 310 l 1
 440 366 l 2
 439 414 433 436 420 436 c 0
 401 436 382 405 354 330 c 1
 354 0 l 1
 246 0 l 1
 246 310 l 1
 245 366 l 2
 244 414 238 435 225 435 c 0
 206 435 187 404 159 330 c 1
 159 0 l 1
 12 0 l 1xbc
EndSplineSet
EndChar
StartChar: p
Encoding: 112 112 181
Width: 600
Flags: W
HStem: -12 98<295.5 340.5 287.5 393.5> 0 20 431 111<344 360.5> 510 20<18 211 211 211>
VStem: 66 145<-108 0 99 347> 425 145<206.5 321>
LayerCount: 2
Fore
SplineSet
18 446 m 1x4c
 18 530 l 1
 211 530 l 1x1c
 211 451 l 1
 262 515 311 542 377 542 c 0
 496 542 570 442 570 283 c 0
 570 95 476 -12 311 -12 c 0xac
 280 -12 250 -8 211 0 c 1
 211 -108 l 1
 271 -108 l 1
 271 -193 l 1
 18 -193 l 1
 18 -108 l 1
 66 -108 l 1
 66 446 l 1
 18 446 l 1x4c
211 99 m 1xac
 224 96 l 2
 246 90 277 86 298 86 c 0
 383 86 425 146 425 267 c 0
 425 375 392 431 329 431 c 0
 286 431 250 406 211 347 c 1
 211 99 l 1xac
EndSplineSet
EndChar
StartChar: q
Encoding: 113 113 182
Width: 600
Flags: W
HStem: -12 111<239.5 256> 444 98<259.5 304.5 206.5 312.5> 510 20<389 534 534 534>
VStem: 30 145<209 323.5 209 341> 389 145<-108 78 78 78 183 431 431 431 -108 530>
LayerCount: 2
Fore
SplineSet
534 530 m 1x38
 534 -108 l 1
 594 -108 l 1
 594 -193 l 1
 341 -193 l 1
 341 -108 l 1
 389 -108 l 1
 389 78 l 1
 338 15 289 -12 223 -12 c 0
 104 -12 30 88 30 247 c 0
 30 435 124 542 289 542 c 0xd8
 320 542 349 539 389 530 c 1
 534 530 l 1x38
389 431 m 1xb8
 375 434 l 2
 353 440 323 444 302 444 c 0x58
 217 444 175 384 175 263 c 0
 175 155 208 99 271 99 c 0
 314 99 349 124 389 183 c 1
 389 431 l 1xb8
EndSplineSet
EndChar
StartChar: t
Encoding: 116 116 185
Width: 600
Flags: MW
HStem: -12 102<358.5 374> 434 84<36 168 36 168 313 524>
VStem: 168 145<198 202 202 434 518 650>
LayerCount: 2
Fore
SplineSet
36 434 m 1
 36 518 l 1
 168 518 l 1
 168 650 l 1
 313 650 l 1
 313 518 l 1
 524 518 l 1
 524 434 l 1
 313 434 l 1
 313 202 l 2
 313 117 331 90 386 90 c 0
 423 90 470 104 530 132 c 1
 530 33 l 1
 459 2 402 -12 346 -12 c 0
 221 -12 168 51 168 198 c 2
 168 434 l 1
 36 434 l 1
EndSplineSet
EndChar
StartChar: u
Encoding: 117 117 186
Width: 600
Flags: W
HStem: -12 20 0 20 510 20<15 205 205 205 329 531 531 531>
VStem: 66 139<170 215 215 446 446 446> 392 139<0 530 78 530 183 446 446 446>
LayerCount: 2
Fore
SplineSet
15 446 m 1
 15 530 l 1
 205 530 l 1
 205 215 l 2
 205 125 220 98 270 98 c 0
 309 98 346 123 392 183 c 1
 392 446 l 1
 329 446 l 1
 329 530 l 1
 531 530 l 1
 531 84 l 1
 582 84 l 1
 582 0 l 1
 392 0 l 1x78
 392 78 l 1
 328 7 289 -12 209 -12 c 0
 107 -12 66 39 66 166 c 2
 66 446 l 1x98
 15 446 l 1
EndSplineSet
EndChar
StartChar: v
Encoding: 118 118 187
Width: 600
Flags: MW
HStem: 0 20 446 84<6 56 6 277 207 207 207 277 389 453 543 543 543 594>
LayerCount: 2
Fore
SplineSet
219 0 m 1
 56 446 l 1
 6 446 l 1
 6 530 l 1
 277 530 l 1
 277 446 l 1
 207 446 l 1
 323 127 l 1
 453 446 l 1
 389 446 l 1
 389 530 l 1
 594 530 l 1
 594 446 l 1
 543 446 l 1
 363 0 l 1
 219 0 l 1
EndSplineSet
EndChar
StartChar: w
Encoding: 119 119 188
Width: 600
Flags: MW
HStem: 0 20 510 20<6 199 199 199 434 594 594 594>
LayerCount: 2
Fore
SplineSet
108 0 m 1
 42 446 l 1
 6 446 l 1
 6 530 l 1
 199 530 l 1
 199 446 l 1
 159 446 l 1
 196 197 l 1
 198 197 l 1
 255 428 l 1
 375 428 l 1
 432 182 l 1
 434 182 l 1
 472 446 l 1
 434 446 l 1
 434 530 l 1
 594 530 l 1
 594 446 l 1
 557 446 l 1
 491 0 l 1
 371 0 l 1
 304 294 l 1
 302 294 l 1
 228 0 l 1
 108 0 l 1
EndSplineSet
EndChar
StartChar: x
Encoding: 120 120 189
Width: 600
Flags: MW
HStem: 0 20 510 20<35 286 286 286 371 571 571 571>
LayerCount: 2
Fore
SplineSet
12 0 m 1
 12 84 l 1
 73 84 l 1
 222 261 l 1
 83 446 l 1
 35 446 l 1
 35 530 l 1
 286 530 l 1
 286 446 l 1
 248 446 l 1
 323 346 l 1
 407 446 l 1
 371 446 l 1
 371 530 l 1
 571 530 l 1
 571 446 l 1
 525 446 l 1
 376 275 l 1
 521 84 l 1
 588 84 l 1
 588 0 l 1
 301 0 l 1
 301 84 l 1
 355 84 l 1
 276 187 l 1
 191 84 l 1
 240 84 l 1
 240 0 l 1
 12 0 l 1
EndSplineSet
EndChar
StartChar: y
Encoding: 121 121 190
Width: 600
Flags: MW
HStem: -193 84<51 147 287 385 51 147> 446 84<6 55 6 291 219 219 219 291 376 447 544 544 544 594>
LayerCount: 2
Fore
SplineSet
246 16 m 1
 55 446 l 1
 6 446 l 1
 6 530 l 1
 291 530 l 1
 291 446 l 1
 219 446 l 1
 331 193 l 1
 447 446 l 1
 376 446 l 1
 376 530 l 1
 594 530 l 1
 594 446 l 1
 544 446 l 1
 287 -109 l 1
 385 -109 l 1
 385 -193 l 1
 51 -193 l 1
 51 -109 l 1
 147 -109 l 1xc0
 246 16 l 1
EndSplineSet
EndChar
StartChar: z
Encoding: 122 122 191
Width: 600
Flags: MW
HStem: 0 90<239 444 239 528> 446 84<156 344 156 156 72 515>
VStem: 72 84<350 446 350 530> 444 84<90 187 0 187>
LayerCount: 2
Fore
SplineSet
72 0 m 1
 72 96 l 1
 344 446 l 1
 156 446 l 1
 156 350 l 1
 72 350 l 1
 72 530 l 1
 515 530 l 1
 515 446 l 1
 239 90 l 1
 444 90 l 1
 444 187 l 1
 528 187 l 1
 528 0 l 1xf0
 72 0 l 1
EndSplineSet
EndChar
StartChar: braceleft
Encoding: 123 123 269
Width: 600
Flags: W
VStem: 197 145<-23.5 -0.5 -23.5 9.5 626.5 649.5> 231 137<193 204.5 157 223> 232 137<424.5 434.5>
LayerCount: 2
Fore
SplineSet
71 355 m 1x40
 112 355 l 2
 192 355 232 380 232 428 c 0x20
 232 441 230 451 224 480 c 2
 206 556 l 2
 200 583 197 607 197 628 c 0
 197 730 270 771 450 771 c 2
 511 771 l 1
 511 687 l 1
 469 687 l 2
 384 687 342 668 342 631 c 0x80
 342 622 344 606 348 587 c 2
 360 535 l 2
 366 506 369 481 369 457 c 0x20
 369 392 334 348 253 312 c 1
 333 283 368 240 368 169 c 0x40
 368 145 365 115 360 91 c 2
 348 39 l 2
 344 21 342 4 342 -5 c 0
 342 -42 384 -60 469 -60 c 2
 511 -60 l 1
 511 -145 l 1
 450 -145 l 2
 270 -145 197 -103 197 -1 c 0x80
 197 20 200 44 206 70 c 2
 224 146 l 2
 228 165 231 187 231 199 c 0
 231 247 191 271 112 271 c 2
 71 271 l 1
 71 355 l 1x40
EndSplineSet
EndChar
StartChar: bar
Encoding: 124 124 304
Width: 600
Flags: MW
VStem: 252 96<-145 771 -145 771>
LayerCount: 2
Fore
SplineSet
252 -145 m 1
 252 771 l 1
 348 771 l 1
 348 -145 l 1
 252 -145 l 1
EndSplineSet
EndChar
StartChar: braceright
Encoding: 125 125 270
Width: 600
Flags: W
VStem: 231 137<191.5 201.5> 232 137<422.5 433.5 403.5 469.5> 258 145<-23 0.5 626.5 649.5>
LayerCount: 2
Fore
SplineSet
529 271 m 1x40
 488 271 l 2
 408 271 368 247 368 198 c 0x80
 368 185 370 175 376 146 c 2
 394 70 l 2
 400 44 403 19 403 -2 c 0
 403 -103 329 -145 150 -145 c 2
 89 -145 l 1
 89 -60 l 1
 132 -60 l 2
 216 -60 258 -42 258 -4 c 0x20
 258 5 256 19 252 39 c 2
 240 92 l 2
 234 122 231 146 231 169 c 0x80
 231 234 266 278 347 314 c 1
 266 344 232 387 232 458 c 0x40
 232 481 235 512 240 535 c 2
 252 587 l 2
 256 606 258 622 258 631 c 0
 258 668 216 687 132 687 c 2
 89 687 l 1
 89 771 l 1
 150 771 l 2
 330 771 403 730 403 628 c 0x20
 403 607 400 583 394 556 c 2
 376 480 l 2
 372 462 369 440 369 427 c 0
 369 380 409 355 488 355 c 2
 529 355 l 1
 529 271 l 1x40
EndSplineSet
EndChar
StartChar: asciitilde
Encoding: 126 126 307
Width: 600
Flags: MW
HStem: 203 95<402.5 428.5 402.5 433.5> 310 95<171 197.5>
LayerCount: 2
Fore
SplineSet
135 211 m 1
 51 211 l 1
 51 224 l 2
 51 335 104 405 188 405 c 0
 225 405 261 391 305 358 c 2
 341 332 l 2
 373 308 394 298 411 298 c 0
 446 298 463 329 465 397 c 1
 549 397 l 1
 549 384 l 2
 551 343 538 292 518 261 c 0
 494 223 456 203 411 203 c 0
 375 203 336 218 294 250 c 2
 259 276 l 2
 228 299 206 310 189 310 c 0
 153 310 137 279 135 211 c 1
EndSplineSet
EndChar
StartChar: exclamdown
Encoding: 161 161 233
Width: 600
Flags: MW
HStem: 409 121<228 373 228 373>
VStem: 228 145<-193 -48 -193 -48 409 530>
LayerCount: 2
Fore
SplineSet
373 530 m 1
 373 409 l 1
 228 409 l 1
 228 530 l 1
 373 530 l 1
343 325 m 1
 373 -48 l 1
 373 -193 l 1
 228 -193 l 1
 228 -48 l 1
 259 325 l 1
 343 325 l 1
EndSplineSet
EndChar
StartChar: cent
Encoding: 162 162 215
Width: 600
Flags: MW
HStem: -18 20 721 20<311 395 395 395>
VStem: 311 84<-18 84 -18 85 -18 85 192 554 648 741>
LayerCount: 2
Fore
SplineSet
311 192 m 1
 311 556 l 1
 247 532 219 478 219 377 c 0
 219 279 246 224 311 192 c 1
311 -18 m 1
 311 85 l 1
 212 98 163 121 119 174 c 0
 81 221 62 284 62 366 c 0
 62 455 85 521 132 569 c 0
 175 613 219 631 311 645 c 1
 311 741 l 1
 395 741 l 1
 395 648 l 1
 440 645 488 638 540 629 c 1
 540 464 l 1
 455 464 l 1
 443 537 l 1
 426 546 412 551 395 554 c 1
 395 179 l 1
 447 182 497 191 540 207 c 1
 540 102 l 1
 498 93 451 87 395 84 c 1
 395 -18 l 1
 311 -18 l 1
EndSplineSet
EndChar
StartChar: sterling
Encoding: 163 163 213
Width: 600
Flags: MW
HStem: 0 121<58 58 189 540> 344 84<76 160 76 160 305 426> 657 84<357 390.5>
LayerCount: 2
Fore
SplineSet
58 0 m 1
 58 121 l 1
 131 123 160 177 160 304 c 2
 160 344 l 1
 76 344 l 1
 76 428 l 1
 160 428 l 1
 160 485 l 2
 160 656 232 741 373 741 c 0
 424 741 472 732 534 713 c 1
 534 566 l 1
 450 566 l 1
 438 646 l 1
 414 654 398 657 383 657 c 0
 331 657 305 625 305 563 c 2
 305 428 l 1
 426 428 l 1
 426 344 l 1
 305 344 l 1
 305 325 l 2
 305 229 270 168 189 121 c 1
 540 121 l 1
 540 0 l 1
 58 0 l 1
EndSplineSet
EndChar
StartChar: currency
Encoding: 164 164 266
Width: 600
Flags: MW
HStem: 132 97<278.5 323> 495 96<276.5 324 276.5 338>
VStem: 71 96<340.5 385> 434 96<337.5 383.5 337.5 399>
LayerCount: 2
Fore
SplineSet
111 491 m 1
 15 587 l 1
 75 647 l 1
 171 551 l 1
 214 579 253 591 300 591 c 0
 348 591 387 579 430 551 c 1
 526 647 l 1
 586 587 l 1
 490 491 l 1
 518 445 530 406 530 361 c 0
 530 314 517 274 490 232 c 1
 586 136 l 1
 526 76 l 1
 430 172 l 1
 386 144 346 132 300 132 c 0
 257 132 218 144 171 172 c 1
 75 76 l 1
 15 136 l 1
 111 232 l 1
 107 238 l 2
 84 277 71 320 71 361 c 0
 71 409 83 448 111 491 c 1
301 495 m 0
 227 495 167 436 167 363 c 0
 167 288 226 229 301 229 c 0
 375 229 434 288 434 362 c 0
 434 436 375 495 301 495 c 0
EndSplineSet
EndChar
StartChar: yen
Encoding: 165 165 218
Width: 600
Flags: MW
HStem: 0 84<126 235 126 235 380 488> 166 66<90 235 90 235 380 524> 331 66<90 189 90 235 90 189 423 524> 703 20<9 255 255 255 418 591 591 591>
VStem: 235 145<84 166 84 166 232 331>
LayerCount: 2
Fore
SplineSet
126 0 m 1
 126 84 l 1
 235 84 l 1
 235 166 l 1
 90 166 l 1
 90 232 l 1
 235 232 l 1
 235 331 l 1
 90 331 l 1
 90 397 l 1
 189 397 l 1
 21 639 l 1
 9 639 l 1
 9 723 l 1
 255 723 l 1
 255 639 l 1
 194 639 l 1
 343 417 l 1
 478 639 l 1
 418 639 l 1
 418 723 l 1
 591 723 l 1
 591 639 l 1
 579 639 l 1
 423 397 l 1
 524 397 l 1
 524 331 l 1
 380 331 l 1
 380 232 l 1
 524 232 l 1
 524 166 l 1
 380 166 l 1
 380 84 l 1
 488 84 l 1
 488 0 l 1
 126 0 l 1
EndSplineSet
EndChar
StartChar: brokenbar
Encoding: 166 166 305
Width: 600
Flags: MW
VStem: 252 96<-145 217 -145 217 410 771>
LayerCount: 2
Fore
SplineSet
252 -145 m 1
 252 217 l 1
 348 217 l 1
 348 -145 l 1
 252 -145 l 1
252 410 m 1
 252 771 l 1
 348 771 l 1
 348 410 l 1
 252 410 l 1
EndSplineSet
EndChar
StartChar: section
Encoding: 167 167 250
Width: 600
Flags: W
HStem: -157 84<275.5 326.5 275.5 364.5> 657 84<271 318>
VStem: 65 140<583 616.5 583 620> 71 112<307 308.5> 395 141<-30 5> 415 105<276.5 283.5>
LayerCount: 2
Fore
SplineSet
75 -125 m 1xc8
 75 30 l 1
 160 30 l 1
 172 -45 l 1
 223 -65 256 -73 295 -73 c 0
 358 -73 395 -50 395 -10 c 0
 395 20 364 48 296 79 c 2
 217 115 l 2
 120 159 71 216 71 284 c 0xd8
 71 333 95 379 151 439 c 1
 90 473 65 510 65 567 c 0
 65 673 159 741 308 741 c 0
 363 741 420 734 497 719 c 1
 497 572 l 1
 413 572 l 1
 401 642 l 1
 364 652 334 657 302 657 c 0
 240 657 205 636 205 597 c 0
 205 569 234 543 297 515 c 2
 363 486 l 2
 476 435 520 383 520 302 c 0xe4
 520 251 500 206 454 152 c 1
 512 110 536 70 536 15 c 0
 536 -91 441 -157 288 -157 c 0
 230 -157 167 -148 75 -125 c 1xc8
371 192 m 1
 383 187 l 1
 405 221 415 246 415 267 c 0xc4
 415 300 384 330 320 360 c 2
 230 401 l 1
 219 406 l 1
 193 371 183 347 183 325 c 0
 183 289 208 265 278 234 c 2
 371 192 l 1
EndSplineSet
EndChar
StartChar: dieresis
Encoding: 168 168 281
Width: 600
Flags: MW
HStem: 627 108<137 245 137 245 354 462>
VStem: 137 108<627 735 627 735> 354 108<627 735 627 735>
LayerCount: 2
Fore
SplineSet
137 627 m 1
 137 735 l 1
 245 735 l 1
 245 627 l 1xe0
 137 627 l 1
354 627 m 1
 354 735 l 1
 462 735 l 1
 462 627 l 1
 354 627 l 1
EndSplineSet
EndChar
StartChar: copyright
Encoding: 169 169 295
Width: 600
Flags: MW
HStem: -18 60<237.5 360.5 237.5 380> 141 60<296.5 331.5> 521 54<288.5 329.5 263.5 331> 681 60<238.5 361>
VStem: 30 66<266 458 266 476.5> 140 84<308.5 415 308.5 423> 504 66<266 458>
LayerCount: 2
Fore
SplineSet
300 741 m 0
 463 741 570 591 570 363 c 0
 570 129 464 -18 296 -18 c 0
 136 -18 30 134 30 362 c 0
 30 591 137 741 300 741 c 0
300 681 m 0
 177 681 96 554 96 362 c 0
 96 170 177 42 298 42 c 0
 423 42 504 169 504 363 c 0
 504 553 422 681 300 681 c 0
426 168 m 1
 416 164 l 2
 379 149 345 141 318 141 c 0
 213 141 140 229 140 357 c 0
 140 489 210 575 317 575 c 0
 342 575 388 569 416 562 c 2
 424 560 l 1
 424 464 l 1
 383 464 l 1
 383 509 l 1
 361 517 341 521 321 521 c 0
 256 521 224 468 224 362 c 0
 224 255 260 201 333 201 c 0
 365 201 393 209 426 226 c 1
 426 168 l 1
EndSplineSet
EndChar
StartChar: ordfeminine
Encoding: 170 170 271
Width: 600
Flags: MW
HStem: 350 85<228.5 236.5> 669 73<251 296>
VStem: 75 120<458.5 487 458.5 504>
LayerCount: 2
Fore
SplineSet
381 350 m 1
 364 402 l 1
 302 365 259 350 214 350 c 0
 130 350 75 394 75 460 c 0
 75 548 151 592 301 592 c 2
 364 592 l 1
 364 607 l 2
 364 648 329 669 263 669 c 0
 239 669 218 666 180 658 c 1
 180 619 l 1
 96 619 l 1
 96 711 l 1
 160 733 212 742 280 742 c 0
 431 742 478 710 478 604 c 2
 478 422 l 1
 545 422 l 1
 545 350 l 1
 381 350 l 1
364 475 m 1
 364 520 l 1
 306 520 l 2
 232 520 195 504 195 470 c 0
 195 447 212 435 245 435 c 0
 280 435 316 447 364 475 c 1
EndSplineSet
EndChar
StartChar: guillemotleft
Encoding: 171 171 237
Width: 600
Flags: W
LayerCount: 2
Fore
SplineSet
564 118 m 1
 494 48 l 1
 277 265 l 1
 494 482 l 1
 564 412 l 1
 448 265 l 1
 564 118 l 1
323 118 m 1
 253 48 l 1
 36 265 l 1
 253 482 l 1
 323 412 l 1
 206 265 l 1
 323 118 l 1
EndSplineSet
EndChar
StartChar: logicalnot
Encoding: 172 172 302
Width: 600
Flags: MW
HStem: 253 97<42 545 42 449>
VStem: 449 96<96 253 253 253>
LayerCount: 2
Fore
SplineSet
42 253 m 1
 42 350 l 1
 545 350 l 1
 545 96 l 1
 449 96 l 1
 449 253 l 1
 42 253 l 1
EndSplineSet
EndChar
StartChar: registered
Encoding: 174 174 296
Width: 600
Flags: MW
HStem: -18 60<237.5 360.5 237.5 380> 681 60<238.5 361>
VStem: 30 66<266 458 266 476.5> 190 72<203 334 370 520> 340 76<444 477> 504 66<266 458>
LayerCount: 2
Fore
SplineSet
300 741 m 0
 463 741 570 591 570 363 c 0
 570 129 464 -18 296 -18 c 0
 136 -18 30 134 30 362 c 0
 30 591 137 741 300 741 c 0
300 681 m 0
 177 681 96 554 96 362 c 0
 96 170 177 42 298 42 c 0
 423 42 504 169 504 363 c 0
 504 553 422 681 300 681 c 0
178 155 m 1
 178 203 l 1
 190 203 l 1
 190 520 l 1
 178 520 l 1
 178 568 l 1
 310 568 l 2
 380 568 416 534 416 468 c 0
 416 420 398 388 355 360 c 1
 433 203 l 1
 446 203 l 1
 446 155 l 1
 376 155 l 1
 287 334 l 1
 262 334 l 1
 262 203 l 1
 280 203 l 1
 280 155 l 1
 178 155 l 1
262 370 m 1
 265 370 l 2
 314 370 340 399 340 455 c 0
 340 499 320 520 280 520 c 2
 262 520 l 1
 262 370 l 1
EndSplineSet
EndChar
StartChar: macron
Encoding: 349 175 293
Width: 600
Flags: MW
HStem: 627 84<119 480 119 480>
LayerCount: 2
Fore
SplineSet
119 627 m 1
 119 711 l 1
 480 711 l 1
 480 627 l 1x80
 119 627 l 1
EndSplineSet
EndChar
StartChar: degree
Encoding: 176 176 258
Width: 600
Flags: MW
HStem: 494 72<279 319 279 339> 711 72<279.5 319.5>
VStem: 155 72<619 658.5 619 679> 372 72<618 658.5>
LayerCount: 2
Fore
SplineSet
300 783 m 0
 380 783 444 719 444 638 c 0
 444 558 380 494 298 494 c 0
 219 494 155 559 155 639 c 0
 155 719 219 783 300 783 c 0
299 711 m 0
 260 711 227 678 227 639 c 0
 227 599 260 566 298 566 c 0
 340 566 372 598 372 638 c 0
 372 679 340 711 299 711 c 0
EndSplineSet
EndChar
StartChar: plusminus
Encoding: 177 177 273
Width: 600
Flags: MW
HStem: 0 96<59 541 59 541> 320 96<59 252 59 252 348 541>
VStem: 252 96<145 320 145 320 416 590>
LayerCount: 2
Fore
SplineSet
59 0 m 1
 59 96 l 1
 541 96 l 1
 541 0 l 1
 59 0 l 1
252 145 m 1
 252 320 l 1
 59 320 l 1
 59 416 l 1
 252 416 l 1
 252 590 l 1
 348 590 l 1
 348 416 l 1
 541 416 l 1
 541 320 l 1
 348 320 l 1
 348 145 l 1
 252 145 l 1
EndSplineSet
EndChar
StartChar: twosuperior
Encoding: 178 178 220
Width: 600
Flags: MW
HStem: 356 84<115 115 244 486> 669 73<257.5 301.5>
VStem: 362 115<609 635.5>
LayerCount: 2
Fore
SplineSet
115 356 m 1
 115 440 l 1
 138 479 194 518 275 552 c 2
 290 558 l 1
 317 569 l 2
 345 581 362 599 362 619 c 0
 362 652 331 669 272 669 c 0
 243 669 219 665 194 656 c 1
 188 614 l 1
 116 614 l 1
 116 713 l 1
 173 733 222 742 281 742 c 0
 410 742 477 701 477 623 c 0
 477 580 451 547 402 526 c 2
 353 506 l 1
 337 500 l 2
 294 483 261 461 244 440 c 1
 486 440 l 1
 486 356 l 1
 115 356 l 1
EndSplineSet
EndChar
StartChar: threesuperior
Encoding: 179 179 221
Width: 600
Flags: MW
HStem: 350 72<263.5 307.5 263.5 354> 670 72<274 313>
VStem: 367 115<448.5 477.5 419.5 481.5 620 644.5>
LayerCount: 2
Fore
SplineSet
120 367 m 1
 120 452 l 1
 192 452 l 1
 198 429 l 1
 227 424 250 422 277 422 c 0
 338 422 367 435 367 462 c 0
 367 501 330 514 217 514 c 2
 170 514 l 1
 170 586 l 1
 218 586 l 2
 318 586 367 601 367 632 c 0
 367 657 339 670 287 670 c 0
 261 670 235 666 197 656 c 1
 191 625 l 1
 119 625 l 1
 119 713 l 1
 177 733 236 742 305 742 c 0
 422 742 482 708 482 642 c 0
 482 598 453 571 382 549 c 1
 452 529 482 501 482 454 c 0
 482 385 418 350 290 350 c 0
 233 350 177 356 120 367 c 1
EndSplineSet
EndChar
StartChar: acute
Encoding: 180 180 284
Width: 600
Flags: W
LayerCount: 2
Fore
SplineSet
180 626 m 1
 282 783 l 1
 421 783 l 1
 264 626 l 1
 180 626 l 1
EndSplineSet
EndChar
StartChar: mu
Encoding: 181 181 308
Width: 600
Flags: W
HStem: -6 104<256.5 287.5> 0 20 510 20<18 208 208 208 344 534 534 534>
VStem: 69 139<-193 12 170 215 215 446 446 446> 395 139<0 530 78 530 183 446 446 446>
LayerCount: 2
Fore
SplineSet
18 446 m 1x98
 18 530 l 1
 208 530 l 1
 208 215 l 2
 208 125 223 98 273 98 c 0xb8
 312 98 349 123 395 183 c 1
 395 446 l 1
 344 446 l 1
 344 530 l 1
 534 530 l 1
 534 84 l 1
 585 84 l 1
 585 0 l 1
 395 0 l 1x78
 395 78 l 1
 345 19 308 -6 267 -6 c 0
 246 -6 227 0 208 12 c 1
 208 -193 l 1
 69 -193 l 1
 69 446 l 1
 18 446 l 1x98
EndSplineSet
EndChar
StartChar: paragraph
Encoding: 182 182 265
Width: 600
Flags: W
HStem: 651 72<325 408 323 492> 709 20<160 224>
VStem: 239 84<-145 361 361 361> 408 84<-145 651 651 651>
LayerCount: 2
Fore
SplineSet
239 -145 m 1xb0
 239 361 l 1
 154 381 111 404 79 447 c 0
 55 479 43 517 43 564 c 0
 43 674 102 729 218 729 c 0x70
 230 729 251 728 265 727 c 2
 299 724 l 2
 306 723 315 723 325 723 c 2
 492 723 l 1
 492 -145 l 1
 408 -145 l 1
 408 651 l 1
 323 651 l 1
 323 -145 l 1
 239 -145 l 1xb0
EndSplineSet
EndChar
StartChar: periodcentered
Encoding: 340 183 224
Width: 600
Flags: MW
HStem: 229 156<222 379 222 379>
VStem: 222 157<229 385 229 385>
LayerCount: 2
Fore
SplineSet
222 229 m 1
 222 385 l 1
 379 385 l 1
 379 229 l 1
 222 229 l 1
EndSplineSet
EndChar
StartChar: cedilla
Encoding: 184 184 291
Width: 600
Flags: MW
HStem: -211 52<243.5 319> 0 20
VStem: 309 97<-139 -116>
LayerCount: 2
Fore
SplineSet
264 0 m 1
 330 0 l 1
 293 -55 l 1
 372 -65 406 -88 406 -131 c 0
 406 -176 353 -211 285 -211 c 0
 258 -211 229 -206 193 -196 c 1
 193 -152 l 1
 216 -157 236 -159 251 -159 c 0
 289 -159 309 -149 309 -129 c 0
 309 -103 277 -89 214 -89 c 2
 205 -89 l 1xe0
 264 0 l 1
EndSplineSet
EndChar
StartChar: onesuperior
Encoding: 185 185 219
Width: 600
Flags: MW
HStem: 356 72<157 270 157 270 384 497> 721 20<384 384>
VStem: 270 114<428 644 644 644>
LayerCount: 2
Fore
SplineSet
157 356 m 1
 157 428 l 1
 270 428 l 1
 270 644 l 1
 157 621 l 1
 157 693 l 1
 384 741 l 1
 384 428 l 1
 497 428 l 1
 497 356 l 1
 157 356 l 1
EndSplineSet
EndChar
StartChar: ordmasculine
Encoding: 186 186 272
Width: 600
Flags: MW
HStem: 350 72<269 330 269 367> 669 72<269.5 330.5>
VStem: 77 121<509 582.5 509 604.5> 402 121<509 582.5>
LayerCount: 2
Fore
SplineSet
300 741 m 0
 437 741 523 665 523 544 c 0
 523 424 437 350 297 350 c 0
 163 350 77 426 77 544 c 0
 77 665 163 741 300 741 c 0
300 669 m 0
 239 669 198 619 198 546 c 0
 198 472 239 422 299 422 c 0
 361 422 402 472 402 546 c 0
 402 619 361 669 300 669 c 0
EndSplineSet
EndChar
StartChar: guillemotright
Encoding: 187 187 236
Width: 600
Flags: W
LayerCount: 2
Fore
SplineSet
36 118 m 1
 152 265 l 1
 36 412 l 1
 106 482 l 1
 323 265 l 1
 106 48 l 1
 36 118 l 1
277 118 m 1
 393 265 l 1
 277 412 l 1
 347 482 l 1
 564 265 l 1
 347 48 l 1
 277 118 l 1
EndSplineSet
EndChar
StartChar: onequarter
Encoding: 188 188 275
Width: 600
Flags: W
HStem: -18 20 0 20 87 66<344 442 277 277 532 580> 721 20<182 182 476 546 546 546>
VStem: 86 96<355 645 645 645> 442 90<0 87 0 87 153 291 291 291>
LayerCount: 2
Fore
SplineSet
38 -18 m 1x9c
 476 741 l 1
 546 741 l 1
 107 -18 l 1
 38 -18 l 1x9c
442 0 m 1x7c
 442 87 l 1
 277 87 l 1
 277 153 l 1
 442 386 l 1
 532 386 l 1
 532 153 l 1
 580 153 l 1
 580 87 l 1
 532 87 l 1
 532 0 l 1
 442 0 l 1x7c
344 153 m 1
 442 153 l 1
 442 291 l 1
 344 153 l 1
86 355 m 1
 86 645 l 1
 14 627 l 1
 14 699 l 1
 182 741 l 1
 182 355 l 1
 86 355 l 1
EndSplineSet
EndChar
StartChar: onehalf
Encoding: 189 189 274
Width: 600
Flags: W
HStem: -18 20 0 78<428 584 428 584> 320 66<438.5 456.5> 721 20<177 177 456 526 526 526>
VStem: 81 96<355 645 645 645> 488 96<255.5 284.5>
LayerCount: 2
Fore
SplineSet
343 0 m 1x7c
 343 84 l 1
 361 124 389 158 428 187 c 2
 440 197 l 2
 474 223 488 243 488 268 c 0
 488 301 471 320 442 320 c 0
 430 320 421 317 407 307 c 1
 402 265 l 1
 344 265 l 1
 344 357 l 1
 392 378 423 386 454 386 c 0
 533 386 584 339 584 266 c 0
 584 229 567 199 533 174 c 0
 526 169 525 169 501 154 c 0
 497 152 493 150 492 148 c 2
 478 139 l 2
 454 121 436 100 428 78 c 1
 584 78 l 1
 584 0 l 1
 343 0 l 1x7c
81 355 m 1
 81 645 l 1
 9 627 l 1
 9 699 l 1
 177 741 l 1
 177 355 l 1
 81 355 l 1
18 -18 m 1x9c
 456 741 l 1
 526 741 l 1
 88 -18 l 1
 18 -18 l 1x9c
EndSplineSet
EndChar
StartChar: threequarters
Encoding: 190 190 276
Width: 600
Flags: W
HStem: -18 20 0 20 87 66<345 443 278 278 533 581> 350 66<112.5 133 110.5 165.5> 676 66<116 137.5>
VStem: 167 90<448 477 422.5 481 623 648> 443 90<0 87 0 87 153 291 291 291>
LayerCount: 2
Fore
SplineSet
16 367 m 1x9e
 16 446 l 1
 72 446 l 1
 72 425 l 1
 91 419 104 416 117 416 c 0
 149 416 167 433 167 463 c 0
 167 499 140 517 84 517 c 2
 63 517 l 1
 63 583 l 1
 85 583 l 2
 140 583 167 600 167 635 c 0
 167 661 152 676 123 676 c 0
 109 676 92 671 72 662 c 1
 72 640 l 1
 15 640 l 1
 15 715 l 1
 63 734 96 742 134 742 c 0
 214 742 257 709 257 646 c 0
 257 600 233 572 178 550 c 1
 233 530 257 501 257 453 c 0
 257 392 204 350 127 350 c 0
 98 350 62 355 16 367 c 1x9e
45 -18 m 1
 483 741 l 1
 553 741 l 1
 115 -18 l 1
 45 -18 l 1
443 0 m 1x66
 443 87 l 1
 278 87 l 1
 278 153 l 1
 443 386 l 1
 533 386 l 1
 533 153 l 1
 581 153 l 1
 581 87 l 1
 533 87 l 1
 533 0 l 1
 443 0 l 1x66
345 153 m 1
 443 153 l 1
 443 291 l 1
 345 153 l 1
EndSplineSet
EndChar
StartChar: questiondown
Encoding: 191 191 235
Width: 600
Flags: MW
HStem: -211 84<293 346.5> 409 121<268 413 268 413>
VStem: 53 156<-66 -28> 268 145<286 530 325 530 409 530 409 530>
LayerCount: 2
Fore
SplineSet
413 530 m 1
 413 409 l 1
 268 409 l 1
 268 530 l 1
 413 530 l 1
412 325 m 1
 412 306 l 2
 412 221 391 179 304 100 c 2
 275 73 l 2
 229 32 209 -2 209 -37 c 0
 209 -95 253 -127 333 -127 c 0
 368 -127 398 -120 437 -104 c 1
 449 -18 l 1
 533 -18 l 1
 533 -179 l 1
 436 -202 378 -211 315 -211 c 0
 145 -211 53 -155 53 -50 c 0
 53 -6 74 32 118 66 c 2
 153 93 l 1
 182 118 l 2
 251 176 268 209 268 286 c 2
 268 325 l 1
 412 325 l 1
EndSplineSet
EndChar
StartChar: Atilde
Encoding: 195 195 5
Width: 600
Flags: W
HStem: 0 20 199 84<186 357 186 381 162 357> 703 20<225 375 375 375> 783 90<363 377.5 362.5 406.5> 850 90<221.5 236.5 193 238.5>
LayerCount: 2
Fore
SplineSet
12 0 m 1xe8
 12 85 l 1
 42 85 l 1
 225 723 l 1
 375 723 l 1
 558 85 l 1
 588 85 l 1
 588 0 l 1
 348 0 l 1
 348 85 l 1
 414 85 l 1
 381 199 l 1
 162 199 l 1
 130 85 l 1
 196 85 l 1
 196 0 l 1
 12 0 l 1xe8
186 283 m 1
 357 283 l 1
 272 581 l 1
 271 581 l 1
 186 283 l 1
200 783 m 1
 128 783 l 1
 130 892 160 940 226 940 c 0x08
 247 940 268 933 288 919 c 2
 307 906 l 2
 315 901 320 897 321 896 c 0
 336 884 358 873 367 873 c 0
 388 873 398 894 399 940 c 1
 471 940 l 1
 469 831 439 783 374 783 c 0x10
 352 783 334 789 312 804 c 2
 293 817 l 2
 255 844 245 850 232 850 c 0
 211 850 201 829 200 783 c 1
EndSplineSet
EndChar
StartChar: Adieresis
Encoding: 196 196 0
Width: 600
Flags: MW
HStem: 0 20 199 84<186 357 186 381 162 357> 703 20<225 375 375 375> 784 108<137 245 137 245 355 463>
VStem: 137 108<784 892 784 892> 355 108<784 892 784 892>
LayerCount: 2
Fore
SplineSet
12 0 m 1
 12 85 l 1
 42 85 l 1
 225 723 l 1
 375 723 l 1
 558 85 l 1
 588 85 l 1
 588 0 l 1
 348 0 l 1
 348 85 l 1
 414 85 l 1
 381 199 l 1
 162 199 l 1
 130 85 l 1
 196 85 l 1
 196 0 l 1
 12 0 l 1
186 283 m 1
 357 283 l 1
 272 581 l 1
 271 581 l 1
 186 283 l 1
137 784 m 1
 137 892 l 1
 245 892 l 1
 245 784 l 1
 137 784 l 1
355 784 m 1
 355 892 l 1
 463 892 l 1
 463 784 l 1
 355 784 l 1
EndSplineSet
EndChar
StartChar: Aring
Encoding: 197 197 6
Width: 600
Flags: MW
HStem: 0 20 199 84<186 357 186 381 162 357> 703 20<225 375 267 331 375 375> 723 54<282.5 316 282.5 375 282.5 316 282.5 331> 899 54<282.5 316>
VStem: 185 54<821.5 855 821.5 870> 360 54<821 855>
LayerCount: 2
Fore
SplineSet
12 0 m 1xfe
 12 85 l 1
 42 85 l 1
 225 723 l 1
 375 723 l 1
 558 85 l 1
 588 85 l 1
 588 0 l 1
 348 0 l 1
 348 85 l 1
 414 85 l 1
 381 199 l 1
 162 199 l 1
 130 85 l 1
 196 85 l 1
 196 0 l 1
 12 0 l 1xfe
186 283 m 1
 357 283 l 1
 272 581 l 1
 271 581 l 1
 186 283 l 1
299 953 m 0
 363 953 414 902 414 838 c 0
 414 773 364 723 298 723 c 0
 236 723 185 774 185 838 c 0
 185 902 235 953 299 953 c 0
299 899 m 0
 266 899 239 872 239 838 c 0
 239 805 266 777 299 777 c 0
 333 777 360 804 360 838 c 0
 360 872 333 899 299 899 c 0
EndSplineSet
EndChar
StartChar: AE
Encoding: 198 198 159
Width: 600
Flags: W
HStem: 0 90<407 492 407 582> 199 84<188 275 188 275 164 275> 320 84<407 515 407 515> 639 84<407 479 407 407>
VStem: 275 132<90 199 199 199 283 320 404 580 580 580> 479 90<566 639 639 639> 492 90<90 168 0 168>
LayerCount: 2
Fore
SplineSet
6 0 m 1xfa
 6 84 l 1
 36 84 l 1
 228 723 l 1
 569 723 l 1
 569 566 l 1
 479 566 l 1
 479 639 l 1xfc
 407 639 l 1
 407 404 l 1
 515 404 l 1
 515 320 l 1
 407 320 l 1
 407 90 l 1
 492 90 l 1
 492 168 l 1
 582 168 l 1
 582 0 l 1
 275 0 l 1
 275 199 l 1
 164 199 l 1
 132 84 l 1
 174 84 l 1
 174 0 l 1
 6 0 l 1xfa
275 283 m 1
 275 580 l 1
 274 580 l 1
 188 283 l 1
 275 283 l 1
EndSplineSet
EndChar
StartChar: Ccedilla
Encoding: 199 199 8
Width: 600
Flags: W
HStem: -211 52<301.5 376.5> -18 95<331.5 412> 0 20 657 84<314.5 390.5>
VStem: 24 157<277.5 457 277.5 472.5> 367 97<-139 -116> 562 15
LayerCount: 2
Fore
SplineSet
577 127 m 1x5e
 577 22 l 1
 509 -6 447 -18 377 -18 c 0
 161 -18 24 127 24 357 c 0
 24 588 160 741 367 741 c 0
 428 741 488 731 562 709 c 1
 562 500 l 1
 478 500 l 1
 465 626 l 1
 435 648 408 657 373 657 c 0
 256 657 181 544 181 370 c 0
 181 185 262 77 401 77 c 0
 454 77 506 92 577 127 c 1x5e
321 0 m 1xae
 388 0 l 1
 351 -55 l 1
 430 -65 464 -88 464 -131 c 0
 464 -177 411 -211 342 -211 c 0
 316 -211 286 -206 251 -196 c 1
 251 -152 l 1
 274 -157 294 -159 309 -159 c 0
 347 -159 367 -149 367 -129 c 0
 367 -103 335 -89 272 -89 c 2
 262 -89 l 1
 321 0 l 1xae
EndSplineSet
EndChar
StartChar: Eacute
Encoding: 201 201 13
Width: 600
Flags: W
HStem: 0 84<18 90 18 90 18 572> 0 90<235 482 235 572> 320 84<235 350 235 350> 639 84<18 90 18 542 235 235 235 452>
VStem: 90 145<90 320 404 639> 452 90<542 639 639 639> 482 90<90 199 0 199>
LayerCount: 2
Fore
SplineSet
18 0 m 1x8a
 18 84 l 1
 90 84 l 1x8c
 90 639 l 1
 18 639 l 1
 18 723 l 1
 542 723 l 1
 542 542 l 1
 452 542 l 1
 452 639 l 1x7c
 235 639 l 1
 235 404 l 1
 350 404 l 1
 350 464 l 1
 434 464 l 1
 434 259 l 1
 350 259 l 1
 350 320 l 1
 235 320 l 1
 235 90 l 1
 482 90 l 1x7a
 482 199 l 1
 572 199 l 1
 572 0 l 1
 18 0 l 1x8a
247 783 m 1
 349 940 l 1
 488 940 l 1
 331 783 l 1
 247 783 l 1
EndSplineSet
EndChar
StartChar: Edieresis
Encoding: 203 203 12
Width: 600
Flags: W
HStem: 0 84<18 90 18 90 18 572> 0 90<235 482 235 572> 320 84<235 350 235 350> 639 84<18 90 18 542 235 235 235 452> 784 108<126 234 126 234 344 452>
VStem: 90 145<90 320 404 639> 126 108<784 892 784 892> 344 108<784 892> 452 90<542 639 639 639 542 784 542 892> 482 90<90 199 0 199>
LayerCount: 2
Fore
SplineSet
18 0 m 1x8440
 18 84 l 1
 90 84 l 1x8c80
 90 639 l 1
 18 639 l 1
 18 723 l 1
 542 723 l 1
 542 542 l 1
 452 542 l 1
 452 639 l 1x7480
 235 639 l 1
 235 404 l 1
 350 404 l 1
 350 464 l 1
 434 464 l 1
 434 259 l 1
 350 259 l 1
 350 320 l 1
 235 320 l 1
 235 90 l 1
 482 90 l 1x7440
 482 199 l 1
 572 199 l 1
 572 0 l 1
 18 0 l 1x8440
126 784 m 1x8b
 126 892 l 1
 234 892 l 1
 234 784 l 1
 126 784 l 1x8b
344 784 m 1
 344 892 l 1
 452 892 l 1
 452 784 l 1
 344 784 l 1
EndSplineSet
EndChar
StartChar: Icircumflex
Encoding: 206 206 23
Width: 600
Flags: MW
HStem: 0 84<60 227 60 227 372 539> 639 84<60 227 60 539 372 372 372 539>
VStem: 227 145<84 639 84 639>
LayerCount: 2
Fore
SplineSet
60 0 m 1
 60 84 l 1
 227 84 l 1
 227 639 l 1
 60 639 l 1
 60 723 l 1
 539 723 l 1
 539 639 l 1
 372 639 l 1
 372 84 l 1
 539 84 l 1
 539 0 l 1
 60 0 l 1
128 783 m 1
 230 940 l 1
 369 940 l 1
 471 783 l 1
 393 783 l 1
 300 876 l 1
 299 876 l 1
 206 783 l 1
 128 783 l 1
EndSplineSet
EndChar
StartChar: Idieresis
Encoding: 207 207 20
Width: 600
Flags: W
HStem: 0 84<60 227 60 227 372 539> 639 84<60 227 60 539 372 372 372 539> 784 108<137 245 137 245 354 462>
VStem: 137 108<784 892 784 892> 227 145<84 639 84 639> 354 108<784 892 784 892>
LayerCount: 2
Fore
SplineSet
60 0 m 1xe8
 60 84 l 1
 227 84 l 1
 227 639 l 1
 60 639 l 1
 60 723 l 1
 539 723 l 1
 539 639 l 1
 372 639 l 1
 372 84 l 1
 539 84 l 1
 539 0 l 1
 60 0 l 1xe8
137 784 m 1xf4
 137 892 l 1
 245 892 l 1
 245 784 l 1
 137 784 l 1xf4
354 784 m 1
 354 892 l 1
 462 892 l 1
 462 784 l 1
 354 784 l 1
EndSplineSet
EndChar
StartChar: Eth
Encoding: 208 208 162
Width: 600
Flags: MW
HStem: 0 20 327 84<0 66 0 66 211 308> 703 20<18 233 233 344.5>
VStem: 66 145<85 327 411 639> 420 157<274 458.5>
LayerCount: 2
Fore
SplineSet
18 0 m 1
 18 85 l 1
 66 85 l 1
 66 327 l 1
 0 327 l 1
 0 411 l 1
 66 411 l 1
 66 639 l 1
 18 639 l 1
 18 723 l 1
 233 723 l 2
 456 723 577 601 577 376 c 0
 577 136 447 0 216 0 c 2
 18 0 l 1
211 85 m 1
 234 85 l 2
 357 85 420 180 420 368 c 0
 420 549 360 636 233 638 c 2
 211 639 l 1
 211 411 l 1
 308 411 l 1
 308 327 l 1
 211 327 l 1
 211 85 l 1
EndSplineSet
EndChar
StartChar: Ntilde
Encoding: 209 209 29
Width: 600
Flags: W
HStem: 0 84<18 66 18 66 162 235> 639 84<18 66 18 162 377 450 546 546 546 594> 783 90<361 376 360.5 405> 850 90<220 234.5 191 236>
VStem: 66 96<84 485 84 639> 450 96<0 639 235 639 0 639>
LayerCount: 2
Fore
SplineSet
18 0 m 1xdc
 18 84 l 1
 66 84 l 1
 66 639 l 1
 18 639 l 1
 18 723 l 1
 162 723 l 1
 450 235 l 1
 450 639 l 1
 377 639 l 1
 377 723 l 1
 594 723 l 1
 594 639 l 1
 546 639 l 1
 546 0 l 1
 450 0 l 1
 162 485 l 1
 162 84 l 1
 235 84 l 1
 235 0 l 1
 18 0 l 1xdc
199 783 m 1
 126 783 l 1
 129 892 158 940 224 940 c 0x1c
 245 940 266 933 287 919 c 2
 305 906 l 2
 313 901 318 897 320 896 c 0
 335 883 356 873 365 873 c 0
 387 873 397 894 397 940 c 1
 470 940 l 1
 467 831 438 783 372 783 c 0x2c
 350 783 333 789 310 804 c 2
 291 817 l 2
 282 823 279 825 279 826 c 0
 255 843 241 850 231 850 c 0
 209 850 199 829 199 783 c 1
EndSplineSet
EndChar
StartChar: Otilde
Encoding: 213 213 34
Width: 600
Flags: W
HStem: -18 84<260 343.5 260 389.5> 657 84<258.5 341.5> 783 90<363.5 378.5 363 407> 850 90<222.5 236.5 193 237.5>
VStem: 24 150<264 460.5 264 484> 426 150<265.5 461>
LayerCount: 2
Fore
SplineSet
300 741 m 0xdc
 478 741 576 606 576 361 c 0
 576 110 482 -18 297 -18 c 0
 123 -18 24 119 24 362 c 0
 24 606 122 741 300 741 c 0xdc
300 657 m 0
 217 657 174 558 174 363 c 0
 174 165 217 66 303 66 c 0
 384 66 426 167 426 364 c 0
 426 558 383 657 300 657 c 0
201 783 m 1
 128 783 l 1
 131 892 160 940 226 940 c 0x1c
 247 940 268 933 289 919 c 2
 307 906 l 2
 316 900 321 897 322 895 c 0
 334 885 358 873 368 873 c 0
 389 873 399 894 399 940 c 1
 472 940 l 1
 470 831 440 783 374 783 c 0x2c
 353 783 334 789 312 804 c 2
 293 817 l 1
 288 821 l 1
 283 824 l 1
 280 826 l 2
 279 827 276 829 271 833 c 0
 255 844 242 850 233 850 c 0
 212 850 201 829 201 783 c 1
EndSplineSet
EndChar
StartChar: Odieresis
Encoding: 214 214 30
Width: 600
Flags: W
HStem: -18 84<260 343.5 260 389.5> 657 84<258.5 341.5> 784 108<137 245 137 245 354 462>
VStem: 24 150<264 460.5 264 484> 137 108<784 892 784 892> 354 108<784 892 784 892> 426 150<265.5 461>
LayerCount: 2
Fore
SplineSet
300 741 m 0xf2
 478 741 576 606 576 361 c 0
 576 110 482 -18 297 -18 c 0
 123 -18 24 119 24 362 c 0
 24 606 122 741 300 741 c 0xf2
300 657 m 0
 217 657 174 558 174 363 c 0
 174 165 217 66 303 66 c 0
 384 66 426 167 426 364 c 0
 426 558 383 657 300 657 c 0
137 784 m 1xec
 137 892 l 1
 245 892 l 1
 245 784 l 1
 137 784 l 1xec
354 784 m 1
 354 892 l 1
 462 892 l 1
 462 784 l 1
 354 784 l 1
EndSplineSet
EndChar
StartChar: multiply
Encoding: 215 215 261
Width: 600
Flags: MW
HStem: 516 20<129 129 470 470>
LayerCount: 2
Fore
SplineSet
129 536 m 1
 299 365 l 1
 470 536 l 1
 538 467 l 1
 368 297 l 1
 538 127 l 1
 470 59 l 1
 299 229 l 1
 129 59 l 1
 61 127 l 1
 231 297 l 1
 61 467 l 1
 129 536 l 1
EndSplineSet
EndChar
StartChar: Oslash
Encoding: 216 216 161
Width: 600
Flags: MW
HStem: -18 20 721 20<210.5 331 492 576 576 576>
LayerCount: 2
Fore
SplineSet
180 235 m 1
 395 584 l 1
 370 635 341 657 300 657 c 0
 216 657 174 560 174 366 c 0
 174 319 177 258 180 239 c 2
 180 235 l 1
420 487 m 1
 205 139 l 1
 230 88 260 66 300 66 c 0
 383 66 425 164 425 360 c 0
 425 407 423 464 420 484 c 2
 420 487 l 1
24 -18 m 1
 90 89 l 1
 44 162 24 245 24 362 c 0
 24 606 122 741 299 741 c 0
 363 741 411 726 460 690 c 1
 492 741 l 1
 576 741 l 1
 510 635 l 1
 557 559 576 478 576 361 c 0
 576 118 478 -18 301 -18 c 0
 238 -18 189 -2 140 33 c 1
 108 -18 l 1
 24 -18 l 1
EndSplineSet
EndChar
StartChar: Udieresis
Encoding: 220 220 42
Width: 600
Flags: W
HStem: -18 85<283.5 354> 703 20<10 251 251 251 397 590 590 590> 784 108<161 269 161 269 379 487>
VStem: 58 145<242 277 277 639> 161 108<784 892 784 892> 379 108<784 892 784 892> 445 97<248 265 265 639>
LayerCount: 2
Fore
SplineSet
10 639 m 1xf2
 10 723 l 1
 251 723 l 1
 251 639 l 1
 203 639 l 1
 203 277 l 2
 203 119 235 67 332 67 c 0
 418 67 445 110 445 248 c 2
 445 639 l 1
 397 639 l 1
 397 723 l 1
 590 723 l 1
 590 639 l 1
 542 639 l 1
 542 265 l 2
 542 162 532 110 506 71 c 0
 466 12 400 -18 308 -18 c 0
 216 -18 144 11 100 66 c 0
 70 104 58 153 58 242 c 2
 58 639 l 1
 10 639 l 1xf2
161 784 m 1xec
 161 892 l 1
 269 892 l 1
 269 784 l 1
 161 784 l 1xec
379 784 m 1
 379 892 l 1
 487 892 l 1
 487 784 l 1
 379 784 l 1
EndSplineSet
EndChar
StartChar: Thorn
Encoding: 222 222 165
Width: 600
Flags: MW
HStem: 0 84<18 115 18 115 260 355> 639 84<18 115 18 355 260 260 260 355>
VStem: 115 145<84 144 229 506 590 639> 430 154<327.5 424.5>
LayerCount: 2
Fore
SplineSet
18 0 m 1
 18 84 l 1
 115 84 l 1
 115 639 l 1
 18 639 l 1
 18 723 l 1
 355 723 l 1
 355 639 l 1
 260 639 l 1
 260 590 l 1
 328 590 l 2
 507 590 584 532 584 396 c 0
 584 240 472 144 289 144 c 2
 260 144 l 1
 260 84 l 1
 355 84 l 1
 355 0 l 1
 18 0 l 1
260 229 m 1
 278 229 l 2
 379 229 430 278 430 377 c 0
 430 472 394 506 290 506 c 2
 260 506 l 1
 260 229 l 1
EndSplineSet
EndChar
StartChar: germandbls
Encoding: 223 223 195
Width: 600
Flags: W
HStem: -12 84<414.5 432 414.5 461> 0 20 699 85<255 306>
VStem: 63 139<85 521 521 543 85 611.5> 349 127<625.5 654> 464 127<114 146>
LayerCount: 2
Fore
SplineSet
21 0 m 1x78
 21 85 l 1
 63 85 l 1
 63 521 l 2
 63 702 137 784 300 784 c 0
 416 784 476 736 476 645 c 0xb8
 476 606 461 568 432 533 c 2
 413 509 l 2
 394 486 382 463 382 451 c 0
 382 441 390 427 405 413 c 2
 426 392 l 1
 485 340 l 2
 557 275 591 216 591 155 c 0
 591 54 518 -12 404 -12 c 0xa4
 373 -12 344 -8 310 0 c 1x44
 310 139 l 1
 387 139 l 1
 398 75 l 1
 405 73 412 72 417 72 c 0
 447 72 464 94 464 134 c 0x84
 464 158 453 180 429 202 c 2
 411 219 l 1
 338 285 l 2
 289 331 263 373 263 408 c 0
 263 431 275 465 299 506 c 2
 319 540 l 2
 338 574 349 606 349 632 c 0
 349 676 327 699 285 699 c 0
 225 699 202 656 202 543 c 2
 202 85 l 1
 256 85 l 1
 256 0 l 1
 21 0 l 1x78
EndSplineSet
EndChar
StartChar: atilde
Encoding: 227 227 71
Width: 600
Flags: W
HStem: -12 95<235 240.5> 0 20 459 83<271.5 318.5> 626 91<359 373.5 358 402.5> 693 90<217.5 232.5>
VStem: 42 147<126.5 179.5 126.5 200> 376 145<51 397 142 253 253 253 325 380 380 397 84 409.5>
LayerCount: 2
Fore
SplineSet
78 377 m 1
 78 501 l 1
 166 530 234 542 309 542 c 0
 460 542 521 500 521 397 c 2
 521 84 l 1
 576 84 l 1
 576 0 l 1
 396 0 l 1x66
 376 51 l 1
 324 7 273 -12 208 -12 c 0
 108 -12 42 48 42 140 c 0
 42 260 144 325 332 325 c 2
 376 325 l 1
 376 380 l 2
 376 439 353 459 284 459 c 0
 241 459 207 451 172 433 c 1
 162 377 l 1xa6
 78 377 l 1
376 142 m 1x86
 376 253 l 1
 354 253 l 2
 254 253 189 211 189 148 c 0
 189 105 213 83 257 83 c 0
 301 83 337 101 376 142 c 1x86
196 626 m 1
 124 626 l 1
 126 736 156 783 222 783 c 0x08
 243 783 264 776 284 762 c 2
 303 750 l 2
 307 747 311 744 313 743 c 0
 315 741 315 741 317 740 c 0
 331 728 353 717 363 717 c 0
 384 717 394 738 395 783 c 1
 467 783 l 1
 465 674 435 626 370 626 c 0x10
 348 626 330 632 308 647 c 2
 289 660 l 1
 283 664 l 1
 279 667 l 1
 279 667 274 670 266 676 c 0
 251 687 237 693 228 693 c 0x08
 207 693 197 672 196 626 c 1
EndSplineSet
EndChar
StartChar: aring
Encoding: 229 229 72
Width: 600
Flags: W
HStem: -12 95<235 240.5> 0 20 459 83<271.5 318.5> 626 54<291.5 325 291.5 340> 802 54<291.5 325>
VStem: 42 54 42 147<126.5 179.5 126.5 200> 217 54 376 145<51 397 142 253 253 253 325 380 380 397 84 409.5>
LayerCount: 2
Fore
SplineSet
78 377 m 1
 78 501 l 1
 166 530 234 542 309 542 c 0
 460 542 521 500 521 397 c 2
 521 84 l 1
 576 84 l 1
 576 0 l 1
 396 0 l 1x6280
 376 51 l 1
 324 7 273 -12 208 -12 c 0
 108 -12 42 48 42 140 c 0
 42 260 144 325 332 325 c 2
 376 325 l 1
 376 380 l 2
 376 439 353 459 284 459 c 0
 241 459 207 451 172 433 c 1
 162 377 l 1xa280
 78 377 l 1
376 142 m 1x8280
 376 253 l 1
 354 253 l 2
 254 253 189 211 189 148 c 0
 189 105 213 83 257 83 c 0
 301 83 337 101 376 142 c 1x8280
308 856 m 0
 372 856 423 805 423 741 c 0
 423 676 373 626 307 626 c 0
 245 626 194 677 194 741 c 0x1d
 194 805 244 856 308 856 c 0
308 802 m 0
 275 802 248 775 248 741 c 0
 248 708 275 680 308 680 c 0
 342 680 369 707 369 741 c 0
 369 775 342 802 308 802 c 0
EndSplineSet
EndChar
StartChar: ae
Encoding: 230 230 192
Width: 600
Flags: W
HStem: -12 102<422.5 448> -12 117<171 184> 229 84<194 219 219 233 354 456> 456 86<187.5 203> 459 83<400 427>
VStem: 24 120<141.5 182.5 141.5 206>
LayerCount: 2
Fore
SplineSet
576 116 m 1xac
 576 18 l 1
 516 -2 468 -12 428 -12 c 0x84
 361 -12 314 14 272 74 c 1
 243 14 209 -12 159 -12 c 0
 81 -12 24 58 24 153 c 0
 24 259 80 313 191 313 c 2
 233 313 l 1
 233 378 l 2
 233 429 218 456 188 456 c 0
 175 456 160 451 142 439 c 1
 132 392 l 1
 62 392 l 1
 62 506 l 1
 119 531 165 542 210 542 c 0x74
 253 542 285 525 316 486 c 1
 348 526 379 542 421 542 c 0
 524 542 576 451 576 271 c 2
 576 229 l 1
 353 229 l 1
 355 132 387 90 458 90 c 0
 495 90 533 98 576 116 c 1xac
233 142 m 1x6c
 233 229 l 1
 219 229 l 2
 169 229 144 206 144 159 c 0
 144 124 158 105 184 105 c 0
 202 105 217 116 233 142 c 1x6c
354 313 m 1
 456 313 l 1
 455 325 l 1
 451 428 441 459 413 459 c 0
 379 459 361 415 354 313 c 1
EndSplineSet
EndChar
StartChar: ccedilla
Encoding: 231 231 76
Width: 600
Flags: MW
HStem: -211 52<279.5 355> -12 96<317.5 394> 0 20 459 83<301.5 380.5>
VStem: 30 153<214.5 338 214.5 350> 146 97
LayerCount: 2
Fore
SplineSet
576 130 m 1
 576 25 l 1
 497 -1 430 -12 358 -12 c 0
 153 -12 30 91 30 264 c 0
 30 436 157 542 365 542 c 0
 435 542 500 534 570 515 c 1
 570 337 l 1
 486 337 l 1
 474 436 l 1
 436 452 401 459 360 459 c 0
 243 459 183 398 183 278 c 0
 183 151 252 84 383 84 c 0x58
 435 84 492 98 576 130 c 1
300 0 m 1
 366 0 l 1
 329 -55 l 1
 408 -65 442 -88 442 -131 c 0
 442 -176 389 -211 321 -211 c 0
 294 -211 265 -206 229 -196 c 1
 229 -152 l 1
 252 -157 272 -159 287 -159 c 0
 325 -159 345 -149 345 -129 c 0
 345 -103 313 -89 250 -89 c 2
 241 -89 l 1xa4
 300 0 l 1
EndSplineSet
EndChar
StartChar: egrave
Encoding: 232 232 80
Width: 600
Flags: MW
HStem: -12 95<341 378.5> 235 84<184 419 184 565 181 419> 456 86<270.5 341.5>
LayerCount: 2
Fore
SplineSet
570 124 m 1
 570 25 l 1
 490 0 417 -12 340 -12 c 0
 146 -12 30 90 30 261 c 0
 30 429 144 542 313 542 c 0
 474 542 565 441 565 263 c 2
 565 235 l 1
 181 235 l 1
 191 176 205 147 239 120 c 0
 270 96 314 83 368 83 c 0xe0
 425 83 484 95 570 124 c 1
184 319 m 1
 419 319 l 1
 417 406 376 456 307 456 c 0
 234 456 189 406 184 319 c 1
324 626 m 1
 167 783 l 1
 306 783 l 1
 408 626 l 1
 324 626 l 1
EndSplineSet
EndChar
StartChar: igrave
Encoding: 236 236 88
Width: 600
Flags: MW
HStem: 0 84<68 249 68 249 394 574> 446 84<68 249 68 394>
VStem: 249 145<84 446 446 446>
LayerCount: 2
Fore
SplineSet
68 0 m 1
 68 84 l 1
 249 84 l 1
 249 446 l 1
 68 446 l 1
 68 530 l 1
 394 530 l 1
 394 84 l 1
 574 84 l 1
 574 0 l 1xe0
 68 0 l 1
309 626 m 1
 152 783 l 1
 291 783 l 1
 393 626 l 1
 309 626 l 1
EndSplineSet
EndChar
StartChar: iacute
Encoding: 237 237 87
Width: 600
Flags: MW
HStem: 0 84<68 249 68 249 394 574> 446 84<68 249 68 394>
VStem: 249 145<84 446 446 446 84 626>
LayerCount: 2
Fore
SplineSet
68 0 m 1
 68 84 l 1
 249 84 l 1
 249 446 l 1
 68 446 l 1
 68 530 l 1
 394 530 l 1
 394 84 l 1
 574 84 l 1
 574 0 l 1xe0
 68 0 l 1
249 626 m 1
 351 783 l 1
 490 783 l 1
 333 626 l 1
 249 626 l 1
EndSplineSet
EndChar
StartChar: icircumflex
Encoding: 238 238 89
Width: 600
Flags: MW
HStem: 0 84<68 249 68 249 394 574> 446 84<68 249 68 394>
VStem: 249 145<84 446 446 446>
LayerCount: 2
Fore
SplineSet
68 0 m 1
 68 84 l 1
 249 84 l 1
 249 446 l 1
 68 446 l 1
 68 530 l 1
 394 530 l 1
 394 84 l 1
 574 84 l 1
 574 0 l 1xe0
 68 0 l 1
150 626 m 1
 252 783 l 1
 391 783 l 1
 493 626 l 1
 415 626 l 1
 322 719 l 1
 321 719 l 1
 228 626 l 1
 150 626 l 1
EndSplineSet
EndChar
StartChar: idieresis
Encoding: 239 239 86
Width: 600
Flags: W
HStem: 0 84<68 249 68 249 394 574> 446 84<68 249 68 394> 627 108<158 266 158 266 376 484>
VStem: 158 108<627 735 627 735> 249 145<84 446 446 446> 376 108<627 735 627 735>
LayerCount: 2
Fore
SplineSet
68 0 m 1xe8
 68 84 l 1
 249 84 l 1
 249 446 l 1
 68 446 l 1
 68 530 l 1
 394 530 l 1
 394 84 l 1
 574 84 l 1
 574 0 l 1
 68 0 l 1xe8
158 627 m 1xf4
 158 735 l 1
 266 735 l 1
 266 627 l 1
 158 627 l 1xf4
376 627 m 1
 376 735 l 1
 484 735 l 1
 484 627 l 1
 376 627 l 1
EndSplineSet
EndChar
StartChar: eth
Encoding: 240 240 201
Width: 600
Flags: MW
HStem: -12 90<268.5 344 268.5 381.5> 434 90<268.5 293 211 345.5>
VStem: 34 148<202 310 202 334.5> 423 147<204 321.5>
LayerCount: 2
Fore
SplineSet
132 520 m 1
 80 584 l 1
 171 661 l 1
 126 674 91 679 50 680 c 2
 34 680 l 1
 34 771 l 1
 114 771 187 759 256 734 c 1
 361 826 l 1
 414 761 l 1
 337 694 l 1
 485 607 570 460 570 290 c 0
 570 108 463 -12 300 -12 c 0
 141 -12 34 96 34 257 c 0
 34 412 139 524 283 524 c 0
 303 524 325 521 352 515 c 1
 330 557 297 591 251 619 c 1
 132 520 l 1
306 434 m 0
 231 434 182 364 182 256 c 0
 182 148 231 78 306 78 c 0
 382 78 423 143 423 265 c 0
 423 378 385 434 306 434 c 0
EndSplineSet
EndChar
StartChar: ntilde
Encoding: 241 241 94
Width: 600
Flags: W
HStem: 0 20 510 20<18 208 208 208> 522 20<351 442> 626 91<346 360.5 345 389.5> 693 90<204.5 219.5>
VStem: 69 139<84 347 84 446 84 446> 395 139<84 315 315 359.5>
LayerCount: 2
Fore
SplineSet
18 0 m 1
 18 84 l 1
 69 84 l 1
 69 446 l 1
 18 446 l 1
 18 530 l 1
 208 530 l 1xc6
 208 451 l 1
 271 522 311 542 391 542 c 0
 493 542 534 491 534 364 c 2
 534 84 l 1
 585 84 l 1
 585 0 l 1
 332 0 l 1
 332 84 l 1
 395 84 l 1
 395 315 l 2
 395 404 380 431 330 431 c 0
 290 431 255 407 208 347 c 1
 208 84 l 1
 271 84 l 1
 271 0 l 1xa6
 18 0 l 1
183 626 m 1
 111 626 l 1
 113 736 143 783 209 783 c 0x08
 230 783 251 776 271 762 c 2
 290 750 l 2
 294 747 298 744 300 743 c 0
 302 741 302 741 304 740 c 0
 318 728 340 717 350 717 c 0
 371 717 381 738 382 783 c 1
 454 783 l 1
 452 674 422 626 357 626 c 0x10
 335 626 317 632 295 647 c 2
 276 660 l 1
 270 664 l 1
 266 667 l 1
 266 667 261 670 253 676 c 0
 238 687 224 693 215 693 c 0x08
 194 693 184 672 183 626 c 1
EndSplineSet
EndChar
StartChar: ograve
Encoding: 242 242 97
Width: 600
Flags: MW
HStem: -12 84<263 339 263 378.5> 458 84<263.5 336.5>
VStem: 30 150<205.5 324 205.5 347> 419 151<201.5 323.5>
LayerCount: 2
Fore
SplineSet
300 542 m 0
 460 542 570 429 570 265 c 0
 570 100 460 -12 297 -12 c 0
 140 -12 30 102 30 265 c 0xf0
 30 429 140 542 300 542 c 0
300 458 m 0
 227 458 180 383 180 265 c 0
 180 146 226 72 300 72 c 0
 378 72 419 139 419 264 c 0
 419 383 373 458 300 458 c 0
300 626 m 1
 143 783 l 1
 282 783 l 1
 384 626 l 1
 300 626 l 1
EndSplineSet
EndChar
StartChar: ocircumflex
Encoding: 244 244 98
Width: 600
Flags: MW
HStem: -12 84<263 339 263 378.5> 458 84<263.5 336.5>
VStem: 30 150<205.5 324 205.5 347> 419 151<201.5 323.5>
LayerCount: 2
Fore
SplineSet
300 542 m 0
 460 542 570 429 570 265 c 0
 570 100 460 -12 297 -12 c 0
 140 -12 30 102 30 265 c 0xf0
 30 429 140 542 300 542 c 0
300 458 m 0
 227 458 180 383 180 265 c 0
 180 146 226 72 300 72 c 0
 378 72 419 139 419 264 c 0
 419 383 373 458 300 458 c 0
129 626 m 1
 231 783 l 1
 370 783 l 1
 472 626 l 1
 394 626 l 1
 301 719 l 1
 300 719 l 1
 207 626 l 1
 129 626 l 1
EndSplineSet
EndChar
StartChar: otilde
Encoding: 245 245 99
Width: 600
Flags: W
HStem: -12 84<263 339 263 378.5> 458 84<263.5 336.5> 626 91<363 377.5 362 406.5> 693 90<221.5 236.5>
VStem: 30 150<205.5 324 205.5 347> 419 151<201.5 323.5>
LayerCount: 2
Fore
SplineSet
300 542 m 0
 460 542 570 429 570 265 c 0
 570 100 460 -12 297 -12 c 0
 140 -12 30 102 30 265 c 0xcc
 30 429 140 542 300 542 c 0
300 458 m 0
 227 458 180 383 180 265 c 0
 180 146 226 72 300 72 c 0
 378 72 419 139 419 264 c 0
 419 383 373 458 300 458 c 0
200 626 m 1
 128 626 l 1
 130 736 160 783 226 783 c 0x10
 247 783 268 776 288 762 c 2
 307 750 l 2
 311 747 315 744 317 743 c 0
 319 741 319 741 321 740 c 0
 335 728 357 717 367 717 c 0
 388 717 398 738 399 783 c 1
 471 783 l 1
 469 674 439 626 374 626 c 0x20
 352 626 334 632 312 647 c 2
 293 660 l 1
 287 664 l 1
 283 667 l 1
 283 667 278 670 270 676 c 0
 255 687 241 693 232 693 c 0x10
 211 693 201 672 200 626 c 1
EndSplineSet
EndChar
StartChar: divide
Encoding: 247 247 262
Width: 600
Flags: MW
HStem: 0 145<228 373 228 373> 253 97<50 550 50 550> 458 145<228 373 228 373>
VStem: 228 145<0 145 0 145 458 603>
LayerCount: 2
Fore
SplineSet
228 0 m 1
 228 145 l 1
 373 145 l 1
 373 0 l 1
 228 0 l 1
50 253 m 1
 50 350 l 1
 550 350 l 1
 550 253 l 1
 50 253 l 1
228 458 m 1
 228 603 l 1
 373 603 l 1
 373 458 l 1
 228 458 l 1
EndSplineSet
EndChar
StartChar: oslash
Encoding: 248 248 194
Width: 600
Flags: W
HStem: -12 84<30 98 98 98 98 115 283.5 336> 458 84<263.5 314> 528 20<485 570 570 570>
VStem: 30 150<253 325 253 347> 419 151<205 277.5>
LayerCount: 2
Fore
SplineSet
30 -12 m 1xb8
 98 72 l 1
 50 130 30 188 30 265 c 0
 30 429 140 542 299 542 c 0xd8
 355 542 399 530 447 502 c 1
 485 548 l 1
 570 548 l 1
 499 461 l 1
 549 403 570 344 570 265 c 0
 570 101 460 -12 300 -12 c 0
 245 -12 201 0 149 30 c 1
 115 -12 l 1
 30 -12 l 1xb8
409 350 m 1
 218 115 l 1
 242 85 267 72 300 72 c 0
 372 72 419 147 419 263 c 0
 419 292 416 318 409 350 c 1
190 185 m 1
 378 417 l 1
 352 446 328 458 300 458 c 0
 227 458 180 383 180 267 c 0
 180 239 182 218 190 185 c 1
EndSplineSet
EndChar
StartChar: udieresis
Encoding: 252 252 106
Width: 600
Flags: W
HStem: -12 20 0 20 510 20<15 205 205 205 329 531 531 531> 627 108<136 244 136 244 353 461>
VStem: 15 108 66 139<170 215 215 446 446 446> 232 108 392 139<0 530 78 530 183 446 446 446>
LayerCount: 2
Fore
SplineSet
15 446 m 1
 15 530 l 1
 205 530 l 1
 205 215 l 2
 205 125 220 98 270 98 c 0
 309 98 346 123 392 183 c 1
 392 446 l 1
 329 446 l 1
 329 530 l 1
 531 530 l 1
 531 84 l 1
 582 84 l 1
 582 0 l 1
 392 0 l 1x65
 392 78 l 1
 328 7 289 -12 209 -12 c 0
 107 -12 66 39 66 166 c 2
 66 446 l 1x85
 15 446 l 1
136 627 m 1
 136 735 l 1
 244 735 l 1
 244 627 l 1x1a
 136 627 l 1
353 627 m 1
 353 735 l 1
 461 735 l 1
 461 627 l 1
 353 627 l 1
EndSplineSet
EndChar
StartChar: thorn
Encoding: 254 254 202
Width: 600
Flags: W
HStem: -12 98<295.5 340.5 287.5 393.5> 0 20 431 111<344 360.5>
VStem: 66 145<-108 0 99 347 451 686 686 686> 425 145<206.5 321>
LayerCount: 2
Fore
SplineSet
18 686 m 1x58
 18 771 l 1
 211 771 l 1
 211 451 l 1
 262 515 311 542 377 542 c 0
 496 542 570 442 570 283 c 0
 570 95 476 -12 311 -12 c 0xb8
 280 -12 250 -8 211 0 c 1
 211 -108 l 1
 271 -108 l 1
 271 -193 l 1
 18 -193 l 1
 18 -108 l 1
 66 -108 l 1
 66 686 l 1
 18 686 l 1x58
211 99 m 1
 224 96 l 2
 246 90 277 86 298 86 c 0
 383 86 425 146 425 267 c 0
 425 375 392 431 329 431 c 0
 286 431 250 406 211 347 c 1
 211 99 l 1
EndSplineSet
EndChar
StartChar: ydieresis
Encoding: 255 255 116
Width: 600
Flags: MW
HStem: -193 84<51 147 287 385 51 147> 446 84<6 55 6 291 219 219 219 291 376 447 544 544 544 594> 627 108<169 277 169 277 386 494>
VStem: 6 108 223 108
LayerCount: 2
Fore
SplineSet
246 16 m 1
 55 446 l 1
 6 446 l 1
 6 530 l 1
 291 530 l 1
 291 446 l 1
 219 446 l 1
 331 193 l 1
 447 446 l 1
 376 446 l 1
 376 530 l 1
 594 530 l 1
 594 446 l 1
 544 446 l 1
 287 -109 l 1
 385 -109 l 1
 385 -193 l 1
 51 -193 l 1
 51 -109 l 1
 147 -109 l 1xc0
 246 16 l 1
169 627 m 1
 169 735 l 1
 277 735 l 1
 277 627 l 1x38
 169 627 l 1
386 627 m 1
 386 735 l 1
 494 735 l 1
 494 627 l 1
 386 627 l 1
EndSplineSet
EndChar
StartChar: amacron
Encoding: 318 257 118
Width: 600
Flags: W
HStem: -12 95<235 240.5> 0 20 459 83<271.5 318.5> 627 84<118 479 118 479>
VStem: 42 147<126.5 179.5 126.5 200> 376 145<51 397 142 253 253 253 325 380 380 397 84 409.5>
LayerCount: 2
Fore
SplineSet
78 377 m 1
 78 501 l 1
 166 530 234 542 309 542 c 0
 460 542 521 500 521 397 c 2
 521 84 l 1
 576 84 l 1
 576 0 l 1
 396 0 l 1x6c
 376 51 l 1
 324 7 273 -12 208 -12 c 0
 108 -12 42 48 42 140 c 0
 42 260 144 325 332 325 c 2
 376 325 l 1
 376 380 l 2
 376 439 353 459 284 459 c 0
 241 459 207 451 172 433 c 1
 162 377 l 1xac
 78 377 l 1
376 142 m 1x8c
 376 253 l 1
 354 253 l 2
 254 253 189 211 189 148 c 0
 189 105 213 83 257 83 c 0
 301 83 337 101 376 142 c 1x8c
118 627 m 1
 118 711 l 1
 479 711 l 1
 479 627 l 1x10
 118 627 l 1
EndSplineSet
EndChar
StartChar: Abreve
Encoding: 256 258 4
Width: 600
Flags: MW
HStem: 0 20 199 84<186 357 186 381 162 357> 703 20<225 375 375 375> 783 85<270.5 329.5 270.5 347.5>
LayerCount: 2
Fore
SplineSet
12 0 m 1
 12 85 l 1
 42 85 l 1
 225 723 l 1
 375 723 l 1
 558 85 l 1
 588 85 l 1
 588 0 l 1
 348 0 l 1
 348 85 l 1
 414 85 l 1
 381 199 l 1
 162 199 l 1
 130 85 l 1
 196 85 l 1
 196 0 l 1
 12 0 l 1
186 283 m 1
 357 283 l 1
 272 581 l 1
 271 581 l 1
 186 283 l 1
127 940 m 1
 194 940 l 1
 208 890 241 868 300 868 c 0
 359 868 392 890 406 940 c 1
 472 940 l 1
 459 841 395 783 300 783 c 0
 205 783 141 841 127 940 c 1
EndSplineSet
EndChar
StartChar: Aogonek
Encoding: 257 260 7
Width: 600
Flags: MW
HStem: -181 46<471.5 483.5> 0 20 199 84<186 357 186 381 162 357> 703 20<225 375 375 375>
VStem: 329 90<-104 -84>
LayerCount: 2
Fore
SplineSet
12 0 m 1
 12 85 l 1
 42 85 l 1
 225 723 l 1
 375 723 l 1
 558 85 l 1
 588 85 l 1
 588 0 l 1
 348 0 l 1
 348 85 l 1
 414 85 l 1
 381 199 l 1
 162 199 l 1
 130 85 l 1
 196 85 l 1
 196 0 l 1
 12 0 l 1
186 283 m 1
 357 283 l 1
 272 581 l 1
 271 581 l 1
 186 283 l 1
437 0 m 1
 514 0 l 1
 447 -29 419 -56 419 -89 c 0
 419 -119 446 -135 497 -135 c 0
 512 -135 528 -133 552 -127 c 1
 552 -167 l 1
 523 -177 500 -181 467 -181 c 0
 377 -181 329 -154 329 -105 c 0
 329 -63 362 -32 437 0 c 1
EndSplineSet
EndChar
StartChar: aogonek
Encoding: 295 261 73
Width: 600
Flags: W
HStem: -181 46<459.5 471.5> -12 95<235 240.5> 0 20 459 83<271.5 318.5>
VStem: 42 90 42 147<126.5 179.5 126.5 200> 376 145<51 397 142 253 253 253 325 380 380 397 84 409.5>
LayerCount: 2
Fore
SplineSet
78 377 m 1
 78 501 l 1
 166 530 234 542 309 542 c 0
 460 542 521 500 521 397 c 2
 521 84 l 1
 576 84 l 1
 576 0 l 1
 396 0 l 1x36
 376 51 l 1
 324 7 273 -12 208 -12 c 0
 108 -12 42 48 42 140 c 0
 42 260 144 325 332 325 c 2
 376 325 l 1
 376 380 l 2
 376 439 353 459 284 459 c 0
 241 459 207 451 172 433 c 1
 162 377 l 1x56
 78 377 l 1
376 142 m 1x46
 376 253 l 1
 354 253 l 2
 254 253 189 211 189 148 c 0
 189 105 213 83 257 83 c 0
 301 83 337 101 376 142 c 1x46
425 0 m 1
 503 0 l 1
 436 -29 407 -56 407 -89 c 0
 407 -119 434 -135 485 -135 c 0
 500 -135 517 -133 540 -127 c 1
 540 -167 l 1
 511 -177 488 -181 455 -181 c 0
 365 -181 317 -154 317 -105 c 0xa8
 317 -64 350 -32 425 0 c 1
EndSplineSet
EndChar
StartChar: ccaron
Encoding: 297 269 75
Width: 600
Flags: MW
HStem: -12 96<317.5 394> 459 83<301.5 380.5>
VStem: 30 153<214.5 338 214.5 350>
LayerCount: 2
Fore
SplineSet
576 130 m 1
 576 25 l 1
 497 -1 430 -12 358 -12 c 0
 153 -12 30 91 30 264 c 0
 30 436 157 542 365 542 c 0
 435 542 500 534 570 515 c 1
 570 337 l 1
 486 337 l 1
 474 436 l 1
 436 452 401 459 360 459 c 0
 243 459 183 398 183 278 c 0
 183 151 252 84 383 84 c 0xe0
 435 84 492 98 576 130 c 1
532 783 m 1
 430 626 l 1
 291 626 l 1
 189 783 l 1
 267 783 l 1
 360 690 l 1
 361 690 l 1
 454 783 l 1
 532 783 l 1
EndSplineSet
EndChar
StartChar: Dcaron
Encoding: 260 270 11
Width: 600
Flags: MW
HStem: 0 20 703 20<18 233 233 344.5>
VStem: 66 145<85 639> 419 157<274 458.5>
LayerCount: 2
Fore
SplineSet
18 0 m 1
 18 85 l 1
 66 85 l 1
 66 639 l 1
 18 639 l 1
 18 723 l 1
 233 723 l 2
 456 723 576 601 576 377 c 0
 576 136 446 0 216 0 c 2
 18 0 l 1
211 85 m 1
 233 85 l 2
 356 85 419 180 419 368 c 0
 419 549 359 636 232 638 c 1
 211 639 l 1
 211 85 l 1
440 940 m 1
 338 783 l 1
 199 783 l 1
 97 940 l 1
 175 940 l 1
 268 847 l 1
 269 847 l 1
 362 940 l 1
 440 940 l 1
EndSplineSet
EndChar
StartChar: dcaron
Encoding: 298 271 77
Width: 600
Flags: W
HStem: -12 111<186.5 200.5> 0 20 444 98<204 241 159 247.5>
VStem: 12 121<209.5 323.5 209.5 341.5> 311 121<0 771 78 771 183 431 431 431 530 686 686 686> 480 120<482 659 532 659 633 659 659 771 633 771>
LayerCount: 2
Fore
SplineSet
311 0 m 1x7c
 311 78 l 1
 269 15 228 -12 173 -12 c 0x9c
 74 -12 12 88 12 247 c 0
 12 436 90 542 228 542 c 0
 254 542 278 539 311 530 c 1
 311 686 l 1
 261 686 l 1
 261 771 l 1
 432 771 l 1
 432 84 l 1
 472 84 l 1
 472 0 l 1
 311 0 l 1x7c
311 431 m 1xbc
 300 434 l 2
 282 440 256 444 239 444 c 0
 169 444 133 383 133 264 c 0
 133 155 160 99 213 99 c 0
 249 99 278 124 311 183 c 1
 311 431 l 1xbc
529 626 m 1
 480 626 l 1
 480 771 l 1
 600 771 l 1
 600 659 l 2
 600 607 590 565 570 534 c 0
 549 504 514 482 484 482 c 2
 480 482 l 1
 480 532 l 1
 515 538 529 562 529 612 c 2
 529 626 l 1
EndSplineSet
EndChar
StartChar: dcroat
Encoding: 338 273 199
Width: 600
Flags: W
HStem: -12 111<239.5 256> 0 20 444 98<259.5 304.5 206.5 312.5> 585 60<269 389 269 389 534 594>
VStem: 30 145<209 323.5 209 341> 389 145<0 585 78 585 183 431 431 431 530 585 84 585 645 687 687 687>
LayerCount: 2
Fore
SplineSet
389 0 m 1x7c
 389 78 l 1
 338 15 289 -12 223 -12 c 0x8c
 104 -12 30 88 30 247 c 0
 30 435 124 542 289 542 c 0
 320 542 349 538 389 530 c 1
 389 585 l 1
 269 585 l 1
 269 645 l 1
 389 645 l 1
 389 687 l 1
 329 687 l 1
 329 771 l 1
 534 771 l 1
 534 645 l 1
 594 645 l 1
 594 585 l 1
 534 585 l 1
 534 84 l 1
 582 84 l 1
 582 0 l 1
 389 0 l 1x7c
389 431 m 1xac
 375 434 l 2
 354 440 323 444 302 444 c 0
 217 444 175 384 175 263 c 0
 175 155 208 99 271 99 c 0
 314 99 350 124 389 183 c 1
 389 431 l 1xac
EndSplineSet
EndChar
StartChar: Emacron
Encoding: 283 274 55
Width: 600
Flags: W
HStem: 0 84<18 90 18 90 18 572> 0 90<235 482 235 572> 320 84<235 350 235 350> 639 84<18 90 18 542 235 235 235 452> 784 84<90 452 90 452>
VStem: 90 145<90 320 404 639> 452 90<542 639 639 639 542 784 542 868> 482 90<90 199 0 199>
LayerCount: 2
Fore
SplineSet
18 0 m 1x85
 18 84 l 1
 90 84 l 1x8e
 90 639 l 1
 18 639 l 1
 18 723 l 1
 542 723 l 1
 542 542 l 1
 452 542 l 1
 452 639 l 1x76
 235 639 l 1
 235 404 l 1
 350 404 l 1
 350 464 l 1
 434 464 l 1
 434 259 l 1
 350 259 l 1
 350 320 l 1
 235 320 l 1
 235 90 l 1
 482 90 l 1x75
 482 199 l 1
 572 199 l 1
 572 0 l 1
 18 0 l 1x85
90 784 m 1
 90 868 l 1
 452 868 l 1
 452 784 l 1
 90 784 l 1
EndSplineSet
EndChar
StartChar: Edotaccent
Encoding: 262 278 17
Width: 600
Flags: W
HStem: 0 84<18 90 18 90 18 572> 0 90<235 482 235 572> 320 84<235 350 235 350> 639 84<18 90 18 542 235 235 235 452> 783 145<235 380 235 380>
VStem: 90 145<90 320 404 639> 235 145<404 928 783 928 783 928> 452 90<542 639 639 639> 482 90<90 199 0 199>
LayerCount: 2
Fore
SplineSet
18 0 m 1x8480
 18 84 l 1
 90 84 l 1x8f
 90 639 l 1
 18 639 l 1
 18 723 l 1
 542 723 l 1
 542 542 l 1
 452 542 l 1
 452 639 l 1x77
 235 639 l 1
 235 404 l 1
 350 404 l 1
 350 464 l 1
 434 464 l 1
 434 259 l 1
 350 259 l 1
 350 320 l 1
 235 320 l 1
 235 90 l 1
 482 90 l 1x7480
 482 199 l 1
 572 199 l 1
 572 0 l 1
 18 0 l 1x8480
235 783 m 1
 235 928 l 1
 380 928 l 1
 380 783 l 1
 235 783 l 1
EndSplineSet
EndChar
StartChar: edotaccent
Encoding: 300 279 83
Width: 600
Flags: MW
HStem: -12 95<341 378.5> 235 84<184 419 184 565 181 419> 456 86<270.5 341.5> 626 145<245 390 245 390>
VStem: 30 145
LayerCount: 2
Fore
SplineSet
570 124 m 1
 570 25 l 1
 490 0 417 -12 340 -12 c 0
 146 -12 30 90 30 261 c 0
 30 429 144 542 313 542 c 0
 474 542 565 441 565 263 c 2
 565 235 l 1
 181 235 l 1
 191 176 205 147 239 120 c 0
 270 96 314 83 368 83 c 0xe0
 425 83 484 95 570 124 c 1
184 319 m 1
 419 319 l 1
 417 406 376 456 307 456 c 0
 234 456 189 406 184 319 c 1
245 626 m 1
 245 771 l 1
 390 771 l 1
 390 626 l 1x18
 245 626 l 1
EndSplineSet
EndChar
StartChar: Eogonek
Encoding: 263 280 18
Width: 600
Flags: W
HStem: -181 46<467.5 480> 0 84<18 90 18 90 18 572> 0 90<235 482 235 572 434 482 235 511 235 511> 320 84<235 350 235 350> 639 84<18 90 18 542 235 235 235 452>
VStem: 90 145<90 320 404 639> 325 90<-104 -84> 452 90<542 639 639 639> 482 90<90 199 0 199>
LayerCount: 2
Fore
SplineSet
18 0 m 1x4480
 18 84 l 1
 90 84 l 1xc7
 90 639 l 1
 18 639 l 1
 18 723 l 1
 542 723 l 1
 542 542 l 1
 452 542 l 1
 452 639 l 1x3f
 235 639 l 1
 235 404 l 1
 350 404 l 1
 350 464 l 1
 434 464 l 1
 434 259 l 1
 350 259 l 1
 350 320 l 1
 235 320 l 1
 235 90 l 1
 482 90 l 1x3c80
 482 199 l 1
 572 199 l 1
 572 0 l 1
 18 0 l 1x4480
434 0 m 1
 511 0 l 1
 443 -29 415 -56 415 -89 c 0
 415 -119 442 -135 493 -135 c 0
 508 -135 525 -133 548 -127 c 1
 548 -167 l 1
 519 -177 496 -181 464 -181 c 0
 373 -181 325 -154 325 -105 c 0
 325 -63 358 -32 434 0 c 1
EndSplineSet
EndChar
StartChar: eogonek
Encoding: 301 281 84
Width: 600
Flags: MW
HStem: -181 46<377.5 389.5> -12 95<341 378.5> 0 20 235 84<184 419 184 565 181 419> 456 86<270.5 341.5>
VStem: 30 90
LayerCount: 2
Fore
SplineSet
570 124 m 1
 570 25 l 1
 490 0 417 -12 340 -12 c 0
 146 -12 30 90 30 261 c 0
 30 429 144 542 313 542 c 0
 474 542 565 441 565 263 c 2
 565 235 l 1
 181 235 l 1
 191 176 205 147 239 120 c 0
 270 96 314 83 368 83 c 0x58
 425 83 484 95 570 124 c 1
184 319 m 1
 419 319 l 1
 417 406 376 456 307 456 c 0
 234 456 189 406 184 319 c 1
343 0 m 1
 421 0 l 1
 354 -29 325 -56 325 -89 c 0
 325 -119 352 -135 403 -135 c 0
 418 -135 435 -133 458 -127 c 1
 458 -167 l 1
 429 -177 406 -181 373 -181 c 0
 283 -181 235 -154 235 -105 c 0xa4
 235 -64 268 -32 343 0 c 1
EndSplineSet
EndChar
StartChar: Ecaron
Encoding: 261 282 16
Width: 600
Flags: W
HStem: 0 84<18 90 18 90 18 572> 0 90<235 482 235 572> 320 84<235 350 235 350> 639 84<18 90 18 542 235 235 235 452>
VStem: 90 145<90 320 404 639> 452 90<542 639 639 639> 482 90<90 199 0 199>
LayerCount: 2
Fore
SplineSet
18 0 m 1x8a
 18 84 l 1
 90 84 l 1x8c
 90 639 l 1
 18 639 l 1
 18 723 l 1
 542 723 l 1
 542 542 l 1
 452 542 l 1
 452 639 l 1x7c
 235 639 l 1
 235 404 l 1
 350 404 l 1
 350 464 l 1
 434 464 l 1
 434 259 l 1
 350 259 l 1
 350 320 l 1
 235 320 l 1
 235 90 l 1
 482 90 l 1x7a
 482 199 l 1
 572 199 l 1
 572 0 l 1
 18 0 l 1x8a
500 940 m 1
 398 783 l 1
 259 783 l 1
 157 940 l 1
 235 940 l 1
 328 847 l 1
 329 847 l 1
 422 940 l 1
 500 940 l 1
EndSplineSet
EndChar
StartChar: Gbreve
Encoding: 264 286 19
Width: 600
Flags: MW
HStem: -18 96<319 383.5 319 402> 250 84<336 426 336 571> 657 84<312 385> 783 84<335.5 395 335.5 412.5>
VStem: 24 156<282.5 455 282.5 472> 426 145<83 250 250 250>
LayerCount: 2
Fore
SplineSet
571 334 m 1
 571 24 l 1
 505 -4 439 -18 365 -18 c 0
 160 -18 24 132 24 356 c 0
 24 588 160 741 366 741 c 0
 425 741 481 732 556 709 c 1
 556 500 l 1
 471 500 l 1
 459 626 l 1
 429 648 402 657 368 657 c 0
 256 657 180 541 180 369 c 0
 180 196 260 78 378 78 c 0
 389 78 409 80 426 83 c 1
 426 250 l 1
 336 250 l 1
 336 334 l 1
 571 334 l 1
192 940 m 1
 259 940 l 1
 273 889 306 867 365 867 c 0
 425 867 457 889 471 940 c 1
 538 940 l 1
 524 841 460 783 365 783 c 0
 270 783 206 841 192 940 c 1
EndSplineSet
EndChar
StartChar: Gcommaaccent
Encoding: 291 290 63
Width: 600
Flags: W
HStem: -211 48<284 365> -18 96<319 383.5 319 402> 250 84<336 426 336 571> 657 84<312 385>
VStem: 24 156<282.5 455 282.5 472> 354 97<-141 -117> 426 145<83 250 250 250>
LayerCount: 2
Fore
SplineSet
571 334 m 1xfa
 571 24 l 1
 505 -4 439 -18 365 -18 c 0
 160 -18 24 132 24 356 c 0
 24 588 160 741 366 741 c 0
 425 741 482 731 556 709 c 1
 556 500 l 1
 471 500 l 1
 459 626 l 1
 429 648 402 657 368 657 c 0
 256 657 180 541 180 369 c 0
 180 196 260 78 378 78 c 0
 389 78 409 80 426 83 c 1
 426 250 l 1
 336 250 l 1
 336 334 l 1
 571 334 l 1xfa
279 -92 m 1xf4
 279 -48 l 1
 399 -50 451 -75 451 -130 c 0
 451 -177 400 -211 330 -211 c 0
 299 -211 270 -209 243 -205 c 1
 243 -160 l 1
 263 -162 277 -163 291 -163 c 0
 333 -163 354 -152 354 -130 c 0
 354 -104 331 -93 279 -92 c 1xf4
EndSplineSet
EndChar
StartChar: gcommaaccent
Encoding: 330 291 130
Width: 600
Flags: W
HStem: -205 84<263.5 329 263.5 358.5> 0 20 156 84<287 315 265 355> 458 84<265 291.5 218.5 315>
VStem: 45 151<-82.5 -74.5> 76 139<312.5 384.5 312.5 405.5> 217 145<626 735 735 766> 365 136<312 362.5 288 384.5> 409 138<-71 -31.5>
LayerCount: 2
Fore
SplineSet
297 90 m 2xf5
 371 90 l 2
 489 90 547 51 547 -30 c 0
 547 -137 442 -205 275 -205 c 0
 137 -205 45 -162 45 -96 c 0xf880
 45 -53 76 -19 146 12 c 1
 110 37 95 58 95 82 c 0
 95 116 120 149 176 189 c 1
 106 229 76 276 76 348 c 0
 76 463 158 542 279 542 c 0
 304 542 326 539 361 530 c 1
 591 542 l 1
 561 439 l 1
 466 454 l 1
 491 415 501 382 501 343 c 0
 501 233 416 156 294 156 c 0
 280 156 270 157 251 161 c 1
 227 144 216 129 216 115 c 0
 216 98 243 90 297 90 c 2xf5
310 0 m 2
 237 0 l 1
 208 -25 196 -44 196 -64 c 0
 196 -101 231 -121 296 -121 c 0
 362 -121 409 -92 409 -50 c 0
 409 -13 384 0 310 0 c 2
290 458 m 0xf7
 240 458 215 421 215 348 c 0
 215 277 240 240 290 240 c 0
 340 240 365 276 365 348 c 0
 365 421 340 458 290 458 c 0xf7
362 915 m 1
 362 870 l 1
 323 868 310 849 306 788 c 1
 306 771 l 1
 362 771 l 1
 362 626 l 1
 217 626 l 1
 217 735 l 2
 217 797 232 843 262 873 c 0
 287 898 311 908 362 915 c 1
EndSplineSet
EndChar
StartChar: Imacron
Encoding: 284 298 56
Width: 600
Flags: MW
HStem: 0 84<60 227 60 227 372 539> 639 84<60 227 60 539 372 372 372 539> 784 84<119 480 119 480>
VStem: 227 145<84 639 84 639>
LayerCount: 2
Fore
SplineSet
60 0 m 1
 60 84 l 1
 227 84 l 1
 227 639 l 1
 60 639 l 1
 60 723 l 1
 539 723 l 1
 539 639 l 1
 372 639 l 1
 372 84 l 1
 539 84 l 1
 539 0 l 1
 60 0 l 1
119 784 m 1
 119 868 l 1
 480 868 l 1
 480 784 l 1
 119 784 l 1
EndSplineSet
EndChar
StartChar: imacron
Encoding: 320 299 120
Width: 600
Flags: MW
HStem: 0 84<68 249 68 249 394 574> 446 84<68 249 68 394> 627 84<116 477 116 477>
VStem: 249 145<84 446 446 446>
LayerCount: 2
Fore
SplineSet
68 0 m 1
 68 84 l 1
 249 84 l 1
 249 446 l 1
 68 446 l 1
 68 530 l 1
 394 530 l 1
 394 84 l 1
 574 84 l 1
 574 0 l 1xd0
 68 0 l 1
116 627 m 1
 116 711 l 1
 477 711 l 1
 477 627 l 1x20
 116 627 l 1
EndSplineSet
EndChar
StartChar: Iogonek
Encoding: 285 302 57
Width: 600
Flags: W
HStem: -181 46<410.5 423> 0 84<60 227 60 227 372 539 377 454 454 454> 639 84<60 227 60 539 372 372 372 539>
VStem: 227 145<84 639 84 639> 268 90<-104 -84.5>
LayerCount: 2
Fore
SplineSet
60 0 m 1xf0
 60 84 l 1
 227 84 l 1
 227 639 l 1
 60 639 l 1
 60 723 l 1
 539 723 l 1
 539 639 l 1
 372 639 l 1
 372 84 l 1
 539 84 l 1
 539 0 l 1
 60 0 l 1xf0
377 0 m 1xe8
 454 0 l 1
 387 -29 358 -56 358 -89 c 0
 358 -119 385 -135 436 -135 c 0
 452 -135 467 -133 491 -127 c 1
 491 -167 l 1
 463 -177 439 -181 407 -181 c 0
 317 -181 268 -154 268 -105 c 0
 268 -64 301 -32 377 0 c 1xe8
EndSplineSet
EndChar
StartChar: iogonek
Encoding: 331 303 131
Width: 600
Flags: MW
HStem: -181 46<445.5 457.5> 0 20 0 84<68 249 68 249 394 574 411 489 489 489> 446 84<68 249 68 394> 626 145<249 394 249 394>
VStem: 68 90 249 145<84 446 446 446 626 771>
LayerCount: 2
Fore
SplineSet
68 0 m 1
 68 84 l 1
 249 84 l 1
 249 446 l 1
 68 446 l 1
 68 530 l 1
 394 530 l 1
 394 84 l 1
 574 84 l 1
 574 0 l 1x3a
 68 0 l 1
249 626 m 1
 249 771 l 1
 394 771 l 1
 394 626 l 1
 249 626 l 1
411 0 m 1
 489 0 l 1
 422 -29 393 -56 393 -89 c 0
 393 -119 420 -135 471 -135 c 0
 486 -135 503 -133 526 -127 c 1
 526 -167 l 1
 497 -177 474 -181 441 -181 c 0
 351 -181 303 -154 303 -105 c 0xc4
 303 -64 336 -32 411 0 c 1
EndSplineSet
EndChar
StartChar: Kcommaaccent
Encoding: 286 310 58
Width: 600
Flags: MW
HStem: -211 48<251 331.5> 0 20 703 20<18 259 259 259 382 598 598 598>
VStem: 66 145<85 350 380 639> 321 97<-141 -117>
LayerCount: 2
Fore
SplineSet
18 0 m 1
 18 85 l 1
 66 85 l 1
 66 639 l 1
 18 639 l 1
 18 723 l 1
 259 723 l 1
 259 639 l 1
 211 639 l 1
 211 380 l 1
 223 380 l 1
 436 639 l 1
 382 639 l 1
 382 723 l 1
 598 723 l 1
 598 639 l 1
 542 639 l 1
 344 400 l 1
 580 85 l 1
 600 85 l 1
 600 0 l 1
 361 0 l 1
 361 85 l 1
 421 85 l 1
 223 350 l 1
 211 350 l 1
 211 85 l 1
 259 85 l 1
 259 0 l 1
 18 0 l 1
247 -92 m 1
 247 -48 l 1
 366 -50 418 -75 418 -130 c 0
 418 -177 366 -211 297 -211 c 0
 266 -211 237 -209 210 -205 c 1
 210 -160 l 1
 230 -162 244 -163 258 -163 c 0
 300 -163 321 -152 321 -130 c 0
 321 -104 298 -93 247 -92 c 1
EndSplineSet
EndChar
StartChar: kcommaaccent
Encoding: 321 311 121
Width: 600
Flags: MW
HStem: -211 48<250.5 331> 0 20 446 84<313 373 313 565 493 493 493 565>
VStem: 66 145<85 241 301 686 686 686> 129 97
LayerCount: 2
Fore
SplineSet
18 0 m 1
 18 85 l 1
 66 85 l 1
 66 686 l 1
 18 686 l 1
 18 771 l 1
 211 771 l 1
 211 301 l 1
 235 301 l 1
 373 446 l 1
 313 446 l 1
 313 530 l 1
 565 530 l 1
 565 446 l 1
 493 446 l 1
 364 311 l 1
 534 85 l 1
 582 85 l 1
 582 0 l 1
 352 0 l 1
 352 85 l 1
 235 241 l 1
 211 241 l 1
 211 85 l 1
 259 85 l 1
 259 0 l 1x70
 18 0 l 1
246 -92 m 1
 246 -48 l 1
 366 -50 418 -75 418 -130 c 0
 418 -177 366 -211 296 -211 c 0
 266 -211 237 -209 210 -205 c 1
 210 -160 l 1
 231 -162 244 -163 257 -163 c 0
 299 -163 321 -152 321 -130 c 0x88
 321 -104 298 -93 246 -92 c 1
EndSplineSet
EndChar
StartChar: Lacute
Encoding: 266 313 25
Width: 600
Flags: W
HStem: 0 84<24 120 24 120 24 576> 0 90<265 498 265 576> 639 84<24 120 24 361 265 265 265 361>
VStem: 120 145<90 639 90 639 90 639> 498 78<90 241 0 241>
LayerCount: 2
Fore
SplineSet
24 0 m 1x98
 24 84 l 1
 120 84 l 1x98
 120 639 l 1
 24 639 l 1
 24 723 l 1
 361 723 l 1
 361 639 l 1
 265 639 l 1
 265 90 l 1
 498 90 l 1x78
 498 241 l 1
 576 241 l 1
 576 0 l 1
 24 0 l 1x98
181 783 m 1
 282 940 l 1
 421 940 l 1
 265 783 l 1
 181 783 l 1
EndSplineSet
EndChar
StartChar: Lcommaaccent
Encoding: 287 315 59
Width: 600
Flags: W
HStem: -211 48<269 350> 0 84<24 120 24 120 24 576> 0 90<265 498 265 576> 639 84<24 120 24 361 265 265 265 361>
VStem: 120 145<90 639> 339 97<-141 -117> 498 78<90 241 0 241>
LayerCount: 2
Fore
SplineSet
24 0 m 1x4e
 24 84 l 1
 120 84 l 1xce
 120 639 l 1
 24 639 l 1
 24 723 l 1
 361 723 l 1
 361 639 l 1
 265 639 l 1
 265 90 l 1
 498 90 l 1x3e
 498 241 l 1
 576 241 l 1
 576 0 l 1
 24 0 l 1x4e
265 -92 m 1
 265 -48 l 1
 384 -50 436 -75 436 -130 c 0
 436 -177 385 -211 315 -211 c 0
 284 -211 255 -209 229 -205 c 1
 229 -160 l 1
 249 -162 262 -163 276 -163 c 0
 318 -163 339 -152 339 -130 c 0
 339 -104 316 -93 265 -92 c 1
EndSplineSet
EndChar
StartChar: lcommaaccent
Encoding: 322 316 122
Width: 600
Flags: MW
HStem: -211 48<276.5 357> 0 84<68 249 68 249 394 574> 687 84<68 249 68 394>
VStem: 179 97 249 145<84 687 687 687>
LayerCount: 2
Fore
SplineSet
68 0 m 1
 68 84 l 1
 249 84 l 1
 249 687 l 1
 68 687 l 1
 68 771 l 1
 394 771 l 1
 394 84 l 1
 574 84 l 1
 574 0 l 1x68
 68 0 l 1
272 -92 m 1
 272 -48 l 1
 392 -50 444 -75 444 -130 c 0
 444 -177 392 -211 322 -211 c 0
 292 -211 263 -209 236 -205 c 1
 236 -160 l 1
 257 -162 270 -163 283 -163 c 0
 325 -163 347 -152 347 -130 c 0x90
 347 -104 324 -93 272 -92 c 1
EndSplineSet
EndChar
StartChar: Lcaron
Encoding: 267 317 26
Width: 600
Flags: W
HStem: 0 84<24 120 24 120 24 576> 0 90<265 498 265 576> 639 84<24 120 24 361 265 265 265 361>
VStem: 120 145<90 639 90 639 90 639> 439 121<434 611 484 611 585 611 611 723 585 723> 498 78<90 241 0 241>
LayerCount: 2
Fore
SplineSet
24 0 m 1x94
 24 84 l 1
 120 84 l 1xb4
 120 639 l 1
 24 639 l 1
 24 723 l 1
 361 723 l 1
 361 639 l 1
 265 639 l 1
 265 90 l 1
 498 90 l 1x74
 498 241 l 1
 576 241 l 1
 576 0 l 1
 24 0 l 1x94
489 578 m 1xa8
 439 578 l 1
 439 723 l 1
 560 723 l 1
 560 611 l 2
 560 559 550 517 529 486 c 0
 509 456 473 434 443 434 c 2
 439 434 l 1
 439 484 l 1
 474 490 489 514 489 564 c 2
 489 578 l 1xa8
EndSplineSet
EndChar
StartChar: lcaron
Encoding: 304 318 91
Width: 600
Flags: MW
HStem: 0 84<68 249 68 249 394 574> 687 84<68 249 68 394>
VStem: 249 145<84 687 687 687> 479 120<482 659 532 659 633 659 659 771 633 771>
LayerCount: 2
Fore
SplineSet
68 0 m 1
 68 84 l 1
 249 84 l 1
 249 687 l 1
 68 687 l 1
 68 771 l 1
 394 771 l 1
 394 84 l 1
 574 84 l 1
 574 0 l 1
 68 0 l 1
528 626 m 1
 479 626 l 1
 479 771 l 1
 599 771 l 1
 599 659 l 2
 599 607 589 565 569 534 c 0
 549 504 513 482 483 482 c 2
 479 482 l 1
 479 532 l 1
 513 538 528 562 528 612 c 2
 528 626 l 1
EndSplineSet
EndChar
StartChar: Lslash
Encoding: 334 321 164
Width: 600
Flags: W
HStem: 0 84<24 120 24 120 24 576> 0 90<265 498 265 576> 639 84<24 120 24 361 265 265 265 361>
VStem: 498 78<90 241 0 241>
LayerCount: 2
Fore
SplineSet
24 0 m 1x90
 24 84 l 1
 120 84 l 1x90
 120 292 l 1
 24 243 l 1
 24 338 l 1
 120 386 l 1
 120 639 l 1
 24 639 l 1
 24 723 l 1
 361 723 l 1
 361 639 l 1
 265 639 l 1
 264 458 l 1
 410 531 l 1
 410 436 l 1
 264 364 l 1
 265 90 l 1
 498 90 l 1x70
 498 241 l 1
 576 241 l 1
 576 0 l 1
 24 0 l 1x90
EndSplineSet
EndChar
StartChar: lslash
Encoding: 339 322 200
Width: 600
Flags: MW
HStem: 0 84<68 249 68 249 394 574> 687 84<68 249 68 394>
VStem: 249 145<84 303 303 303 470 687 687 687>
LayerCount: 2
Fore
SplineSet
68 0 m 1
 68 84 l 1
 249 84 l 1
 249 303 l 1
 104 231 l 1
 104 327 l 1
 249 398 l 1
 249 687 l 1
 68 687 l 1
 68 771 l 1
 394 771 l 1
 394 470 l 1
 538 542 l 1
 538 447 l 1
 394 375 l 1
 394 84 l 1
 574 84 l 1
 574 0 l 1
 68 0 l 1
EndSplineSet
EndChar
StartChar: Nacute
Encoding: 268 323 27
Width: 600
Flags: MW
HStem: 0 84<18 66 18 66 162 235> 639 84<18 66 18 162 377 450 546 546 546 594>
VStem: 66 96<84 485 84 639> 450 96<0 639 235 639 0 639>
LayerCount: 2
Fore
SplineSet
18 0 m 1
 18 84 l 1
 66 84 l 1
 66 639 l 1
 18 639 l 1
 18 723 l 1
 162 723 l 1
 450 235 l 1
 450 639 l 1
 377 639 l 1
 377 723 l 1
 594 723 l 1
 594 639 l 1
 546 639 l 1
 546 0 l 1
 450 0 l 1
 162 485 l 1
 162 84 l 1
 235 84 l 1
 235 0 l 1
 18 0 l 1
222 783 m 1
 323 940 l 1
 462 940 l 1
 306 783 l 1
 222 783 l 1
EndSplineSet
EndChar
StartChar: Ncommaaccent
Encoding: 288 325 60
Width: 600
Flags: MW
HStem: -211 48<264 344.5> 0 84<18 66 18 66 162 235> 639 84<18 66 18 162 377 450 546 546 546 594>
VStem: 66 96<84 485 84 639> 334 97<-141 -117> 450 96<0 639 235 639 0 639>
LayerCount: 2
Fore
SplineSet
18 0 m 1
 18 84 l 1
 66 84 l 1
 66 639 l 1
 18 639 l 1
 18 723 l 1
 162 723 l 1
 450 235 l 1
 450 639 l 1
 377 639 l 1
 377 723 l 1
 594 723 l 1
 594 639 l 1
 546 639 l 1
 546 0 l 1
 450 0 l 1
 162 485 l 1
 162 84 l 1
 235 84 l 1
 235 0 l 1
 18 0 l 1
259 -92 m 1
 259 -48 l 1
 379 -50 431 -75 431 -130 c 0
 431 -177 379 -211 310 -211 c 0
 279 -211 250 -209 223 -205 c 1
 223 -160 l 1
 244 -162 257 -163 271 -163 c 0
 312 -163 334 -152 334 -130 c 0
 334 -104 311 -93 259 -92 c 1
EndSplineSet
EndChar
StartChar: ncaron
Encoding: 306 328 93
Width: 600
Flags: W
HStem: 0 20 510 20<18 208 208 208> 522 20<351 442>
VStem: 69 139<84 347 84 446 84 446> 395 139<84 315 315 359.5>
LayerCount: 2
Fore
SplineSet
18 0 m 1
 18 84 l 1
 69 84 l 1
 69 446 l 1
 18 446 l 1
 18 530 l 1
 208 530 l 1xd8
 208 451 l 1
 271 522 311 542 391 542 c 0
 493 542 534 491 534 364 c 2
 534 84 l 1
 585 84 l 1
 585 0 l 1
 332 0 l 1
 332 84 l 1
 395 84 l 1
 395 315 l 2
 395 404 380 431 330 431 c 0
 290 431 255 407 208 347 c 1
 208 84 l 1
 271 84 l 1
 271 0 l 1xb8
 18 0 l 1
473 783 m 1
 371 626 l 1
 232 626 l 1
 130 783 l 1
 208 783 l 1
 301 690 l 1
 302 690 l 1
 395 783 l 1
 473 783 l 1
EndSplineSet
EndChar
StartChar: omacron
Encoding: 324 333 124
Width: 600
Flags: MW
HStem: -12 84<263 339 263 378.5> 458 84<263.5 336.5> 627 84<119 480 119 480>
VStem: 30 150<205.5 324 205.5 347> 419 151<201.5 323.5>
LayerCount: 2
Fore
SplineSet
300 542 m 0
 460 542 570 429 570 265 c 0
 570 100 460 -12 297 -12 c 0
 140 -12 30 102 30 265 c 0xd8
 30 429 140 542 300 542 c 0
300 458 m 0
 227 458 180 383 180 265 c 0
 180 146 226 72 300 72 c 0
 378 72 419 139 419 264 c 0
 419 383 373 458 300 458 c 0
119 627 m 1
 119 711 l 1
 480 711 l 1
 480 627 l 1x20
 119 627 l 1
EndSplineSet
EndChar
StartChar: ohungarumlaut
Encoding: 307 337 100
Width: 600
Flags: MW
HStem: -12 84<263 339 263 378.5> 458 84<263.5 336.5>
VStem: 30 150<205.5 324 205.5 347> 419 151<201.5 323.5>
LayerCount: 2
Fore
SplineSet
300 542 m 0
 460 542 570 429 570 265 c 0
 570 100 460 -12 297 -12 c 0
 140 -12 30 102 30 265 c 0xf0
 30 429 140 542 300 542 c 0
300 458 m 0
 227 458 180 383 180 265 c 0
 180 146 226 72 300 72 c 0
 378 72 419 139 419 264 c 0
 419 383 373 458 300 458 c 0
141 626 m 1
 246 783 l 1
 360 783 l 1
 202 626 l 1
 141 626 l 1
317 626 m 1
 422 783 l 1
 536 783 l 1
 378 626 l 1
 317 626 l 1
EndSplineSet
EndChar
StartChar: OE
Encoding: 140 338 160
Width: 600
Flags: W
HStem: -18 84<185.5 211> 0 90<395 515 395 585> 639 84<395 497 395 395> 657 84<185.5 213 134.5 239.5>
VStem: 12 130<241 480 241 485> 280 115<0 320 17 320 239 320 404 495 495 555.5> 497 70<554 639 639 639> 515 70<90 175 0 175>
LayerCount: 2
Fore
SplineSet
280 0 m 1x65
 280 17 l 1
 250 -8 227 -18 195 -18 c 0
 75 -18 12 111 12 357 c 0
 12 613 73 741 196 741 c 0x9e
 230 741 255 730 280 707 c 1
 280 723 l 1
 567 723 l 1
 567 554 l 1
 497 554 l 1
 497 639 l 1x6e
 395 639 l 1
 395 404 l 1
 450 404 l 1
 450 464 l 1
 520 464 l 1
 520 259 l 1
 450 259 l 1
 450 320 l 1
 395 320 l 1
 395 90 l 1
 515 90 l 1
 515 175 l 1
 585 175 l 1
 585 0 l 1
 280 0 l 1x65
280 239 m 2
 280 495 l 2
 280 616 264 657 215 657 c 0
 156 657 142 601 142 359 c 0
 142 123 156 66 215 66 c 0x9e
 265 66 280 107 280 239 c 2
EndSplineSet
EndChar
StartChar: oe
Encoding: 156 339 193
Width: 600
Flags: W
HStem: -12 84<184 219 184 224> -12 106<449.5 474.5> 229 84<373 458 373 576 373 458> 458 84<184 219> 459 83<407 432.5>
VStem: 16 130<199.5 327.5 199.5 352>
LayerCount: 2
Fore
SplineSet
576 123 m 1x6c
 576 21 l 1
 535 -2 497 -12 452 -12 c 0x44
 399 -12 356 4 314 42 c 1
 283 4 248 -12 200 -12 c 0
 84 -12 16 90 16 265 c 0
 16 439 84 542 198 542 c 0x94
 245 542 282 524 324 481 c 1
 353 523 385 542 429 542 c 0
 527 542 576 448 576 261 c 2
 576 229 l 1
 373 229 l 1
 383 135 416 94 483 94 c 0
 513 94 541 103 576 123 c 1x6c
251 209 m 2xb4
 251 320 l 2
 251 411 235 458 203 458 c 0
 165 458 146 393 146 262 c 0
 146 137 165 72 203 72 c 0
 235 72 251 118 251 209 c 2xb4
373 313 m 1
 458 313 l 1
 457 417 446 459 419 459 c 0x2c
 389 459 373 413 373 326 c 2
 373 313 l 1
EndSplineSet
EndChar
StartChar: racute
Encoding: 308 341 101
Width: 600
Flags: W
HStem: 0 84<27 148 27 148 293 449> 433 109<421.5 432.5> 446 84<27 148 27 293>
VStem: 148 145<84 342 84 446 84 446>
LayerCount: 2
Fore
SplineSet
27 0 m 1
 27 84 l 1
 148 84 l 1
 148 446 l 1
 27 446 l 1
 27 530 l 1
 293 530 l 1xb0
 293 452 l 1
 344 516 390 542 453 542 c 0
 493 542 530 534 573 515 c 1
 573 343 l 1
 489 343 l 1
 477 418 l 1
 459 428 441 433 424 433 c 0
 383 433 343 405 293 342 c 1
 293 84 l 1
 449 84 l 1
 449 0 l 1xd0
 27 0 l 1
208 626 m 1
 310 783 l 1
 449 783 l 1
 292 626 l 1
 208 626 l 1
EndSplineSet
EndChar
StartChar: Rcommaaccent
Encoding: 290 342 62
Width: 600
Flags: W
HStem: -211 48<257 338> 0 84<18 66 18 66 211 295 557 594> 703 20<18 282 282 328>
VStem: 66 145<84 301 386 639> 327 97<-141 -117> 364 159<505.5 575>
LayerCount: 2
Fore
SplineSet
18 0 m 1xf4
 18 84 l 1
 66 84 l 1
 66 639 l 1
 18 639 l 1
 18 723 l 1
 282 723 l 2
 374 723 413 717 445 698 c 0
 496 668 523 616 523 549 c 0
 523 462 480 399 381 340 c 1
 557 84 l 1
 594 84 l 1
 594 0 l 1
 442 0 l 1
 231 301 l 1
 211 301 l 1
 211 84 l 1
 295 84 l 1
 295 0 l 1
 18 0 l 1xf4
211 386 m 1
 235 386 l 2
 315 386 364 442 364 534 c 0
 364 616 337 639 239 639 c 2
 211 639 l 1
 211 386 l 1
253 -92 m 1xe8
 253 -48 l 1
 372 -50 424 -75 424 -130 c 0
 424 -177 373 -211 303 -211 c 0
 272 -211 244 -209 217 -205 c 1
 217 -160 l 1
 236 -162 250 -163 264 -163 c 0
 306 -163 327 -152 327 -130 c 0
 327 -104 304 -93 253 -92 c 1xe8
EndSplineSet
EndChar
StartChar: rcommaaccent
Encoding: 325 343 125
Width: 600
Flags: W
HStem: -211 48<188.5 269> 0 84<27 148 27 148 293 449> 433 109<421.5 432.5> 446 84<27 148 27 293>
VStem: 138 97 148 145<84 342 84 446 84 446>
LayerCount: 2
Fore
SplineSet
27 0 m 1
 27 84 l 1
 148 84 l 1
 148 446 l 1
 27 446 l 1
 27 530 l 1
 293 530 l 1x54
 293 452 l 1
 344 516 390 542 453 542 c 0
 493 542 530 534 573 515 c 1
 573 343 l 1
 489 343 l 1
 477 418 l 1
 459 428 441 433 424 433 c 0
 383 433 343 405 293 342 c 1
 293 84 l 1
 449 84 l 1
 449 0 l 1x64
 27 0 l 1
184 -92 m 1
 184 -48 l 1
 304 -50 356 -75 356 -130 c 0
 356 -177 304 -211 234 -211 c 0
 204 -211 175 -209 148 -205 c 1
 148 -160 l 1
 169 -162 182 -163 195 -163 c 0
 237 -163 259 -152 259 -130 c 0x88
 259 -104 236 -93 184 -92 c 1
EndSplineSet
EndChar
StartChar: Sacute
Encoding: 273 346 38
Width: 600
Flags: MW
HStem: -18 85<270 326.5 270 358> 657 85<280 324>
VStem: 68 148<544.5 593 544.5 600> 402 145<139.5 181.5>
LayerCount: 2
Fore
SplineSet
55 27 m 1
 55 215 l 1
 139 215 l 1
 151 112 l 1
 209 80 249 67 291 67 c 0
 362 67 402 101 402 162 c 0
 402 201 382 229 332 258 c 2
 299 278 l 1
 233 319 l 2
 107 397 68 448 68 536 c 0
 68 664 158 742 306 742 c 0
 365 742 426 731 507 706 c 1
 507 522 l 1
 422 522 l 1
 411 628 l 1
 373 648 341 657 307 657 c 0
 253 657 216 620 216 566 c 0
 216 523 236 501 322 449 c 2
 393 406 l 2
 522 327 547 295 547 210 c 0
 547 69 443 -18 273 -18 c 0
 215 -18 154 -5 55 27 c 1
230 783 m 1
 331 940 l 1
 471 940 l 1
 314 783 l 1
 230 783 l 1
EndSplineSet
EndChar
StartChar: sacute
Encoding: 309 347 102
Width: 600
Flags: MW
HStem: -12 85<295.5 341 295.5 381.5> 458 84<276.5 323>
VStem: 82 138<381 417.5 381 433> 394 138<111 148.5>
LayerCount: 2
Fore
SplineSet
92 25 m 1
 92 181 l 1
 176 181 l 1
 189 108 l 1
 239 83 276 73 315 73 c 0
 367 73 394 92 394 130 c 0
 394 167 374 185 310 203 c 2
 240 223 l 2
 133 253 82 304 82 380 c 0
 82 486 162 542 313 542 c 0
 381 542 438 533 503 513 c 1
 503 361 l 1
 419 361 l 1
 407 437 l 1
 373 452 341 458 305 458 c 0
 248 458 220 438 220 397 c 0
 220 365 232 356 306 333 c 2
 388 308 l 2
 495 275 532 237 532 160 c 0
 532 51 451 -12 312 -12 c 0xf0
 246 -12 177 0 92 25 c 1
233 626 m 1
 335 783 l 1
 474 783 l 1
 317 626 l 1
 233 626 l 1
EndSplineSet
EndChar
StartChar: Scedilla
Encoding: 274 350 40
Width: 600
Flags: W
HStem: -211 52<246.5 321.5> -18 85<270 326.5 270 358> 0 20 657 85<280 324>
VStem: 68 148<544.5 593 544.5 600> 312 97<-139 -116> 402 145<139.5 181.5>
LayerCount: 2
Fore
SplineSet
55 27 m 1x5a
 55 215 l 1
 139 215 l 1
 151 112 l 1
 209 80 249 67 291 67 c 0
 362 67 402 101 402 162 c 0
 402 201 382 229 332 258 c 0
 319 266 308 272 299 278 c 2
 233 319 l 2
 107 396 68 448 68 536 c 0
 68 664 158 742 306 742 c 0
 365 742 423 732 507 706 c 1
 507 522 l 1
 422 522 l 1
 411 628 l 1
 373 648 341 657 307 657 c 0
 253 657 216 620 216 566 c 0
 216 523 236 501 322 449 c 2
 393 406 l 2
 522 327 547 295 547 210 c 0
 547 69 443 -18 273 -18 c 0
 215 -18 154 -5 55 27 c 1x5a
266 0 m 1xa4
 333 0 l 1
 296 -55 l 1
 375 -65 409 -88 409 -131 c 0
 409 -177 356 -211 287 -211 c 0
 261 -211 232 -206 196 -196 c 1
 196 -152 l 1
 219 -157 239 -159 254 -159 c 0
 292 -159 312 -149 312 -129 c 0
 312 -103 280 -89 217 -89 c 2
 207 -89 l 1
 266 0 l 1xa4
EndSplineSet
EndChar
StartChar: scedilla
Encoding: 329 351 129
Width: 600
Flags: MW
HStem: -211 52<258.5 334> -12 85<295.5 341 295.5 381.5> 0 20 458 84<276.5 323>
VStem: 82 138<381 417.5> 198 97 394 138<111 148.5>
LayerCount: 2
Fore
SplineSet
92 25 m 1
 92 181 l 1
 176 181 l 1
 189 108 l 1
 239 83 276 73 315 73 c 0
 367 73 394 92 394 130 c 0
 394 167 374 185 310 203 c 2
 240 223 l 2
 133 253 82 304 82 380 c 0
 82 486 162 542 313 542 c 0
 381 542 438 533 503 513 c 1
 503 361 l 1
 419 361 l 1
 407 437 l 1
 373 452 341 458 305 458 c 0
 248 458 220 438 220 397 c 0
 220 365 232 356 306 333 c 2
 388 308 l 2
 495 275 532 237 532 160 c 0
 532 51 451 -12 312 -12 c 0x5a
 246 -12 177 0 92 25 c 1
279 0 m 1
 345 0 l 1
 308 -55 l 1
 387 -65 421 -88 421 -131 c 0
 421 -176 368 -211 300 -211 c 0
 273 -211 244 -206 208 -196 c 1
 208 -152 l 1
 231 -157 251 -159 266 -159 c 0
 304 -159 324 -149 324 -129 c 0
 324 -103 292 -89 229 -89 c 2
 220 -89 l 1xa4
 279 0 l 1
EndSplineSet
EndChar
StartChar: Tcommaaccent
Encoding: 282 354 53
Width: 600
Flags: W
HStem: -211 52<256 331.5> 0 84<119 228 119 228 373 481 119 342> 510 20<23 113 23 23 487 487 487 577> 639 84<113 228 113 113 373 373 373 487>
VStem: 23 90<530 639 530 723 530 723> 228 145<84 639 84 639> 322 97<-139 -116> 487 90<530 639 639 639>
LayerCount: 2
Fore
SplineSet
119 0 m 1xfd
 119 84 l 1
 228 84 l 1
 228 639 l 1
 113 639 l 1
 113 530 l 1
 23 530 l 1
 23 723 l 1
 577 723 l 1
 577 530 l 1
 487 530 l 1
 487 639 l 1
 373 639 l 1
 373 84 l 1
 481 84 l 1
 481 0 l 1
 119 0 l 1xfd
276 0 m 1xf2
 342 0 l 1
 305 -55 l 1
 385 -65 419 -88 419 -131 c 0
 419 -176 366 -211 297 -211 c 0
 271 -211 241 -206 205 -196 c 1
 205 -152 l 1
 229 -157 248 -159 264 -159 c 0
 302 -159 322 -149 322 -129 c 0
 322 -103 290 -89 227 -89 c 2
 217 -89 l 1
 276 0 l 1xf2
EndSplineSet
EndChar
StartChar: tcommaaccent
Encoding: 317 355 117
Width: 600
Flags: W
HStem: -211 52<271.5 346.5> -12 102<358.5 374> 0 20 434 84<36 168 36 168 313 524>
VStem: 168 145<198 202 202 434 518 650> 337 97<-139 -116>
LayerCount: 2
Fore
SplineSet
36 434 m 1x5c
 36 518 l 1
 168 518 l 1
 168 650 l 1
 313 650 l 1
 313 518 l 1
 524 518 l 1
 524 434 l 1
 313 434 l 1
 313 202 l 2
 313 117 331 90 386 90 c 0
 423 90 470 104 530 132 c 1
 530 33 l 1
 459 2 402 -12 346 -12 c 0
 221 -12 168 51 168 198 c 2
 168 434 l 1
 36 434 l 1x5c
291 0 m 1xac
 358 0 l 1
 321 -55 l 1
 400 -65 434 -88 434 -131 c 0
 434 -177 381 -211 312 -211 c 0
 286 -211 257 -206 221 -196 c 1
 221 -152 l 1
 244 -157 264 -159 279 -159 c 0
 317 -159 337 -149 337 -129 c 0
 337 -103 305 -89 242 -89 c 2
 232 -89 l 1
 291 0 l 1xac
EndSplineSet
EndChar
StartChar: Tcaron
Encoding: 275 356 41
Width: 600
Flags: MW
HStem: 0 84<119 228 119 228 373 481> 510 20<23 113 23 23 487 487 487 577> 639 84<113 228 113 113 373 373 373 487>
VStem: 23 90<530 639 530 723 530 723> 228 145<84 639 84 639> 487 90<530 639 639 639>
LayerCount: 2
Fore
SplineSet
119 0 m 1
 119 84 l 1
 228 84 l 1
 228 639 l 1
 113 639 l 1
 113 530 l 1
 23 530 l 1
 23 723 l 1
 577 723 l 1
 577 530 l 1
 487 530 l 1
 487 639 l 1
 373 639 l 1
 373 84 l 1
 481 84 l 1
 481 0 l 1
 119 0 l 1
472 940 m 1
 370 783 l 1
 231 783 l 1
 129 940 l 1
 207 940 l 1
 300 847 l 1
 301 847 l 1
 394 940 l 1
 472 940 l 1
EndSplineSet
EndChar
StartChar: tcaron
Encoding: 311 357 105
Width: 600
Flags: MW
HStem: -12 102<358.5 374> 434 84<36 168 36 168 313 524>
VStem: 168 145<198 202 202 434 518 650> 409 121<704.5 731 731 843>
LayerCount: 2
Fore
SplineSet
36 434 m 1
 36 518 l 1
 168 518 l 1
 168 650 l 1
 313 650 l 1
 313 518 l 1
 524 518 l 1
 524 434 l 1
 313 434 l 1
 313 202 l 2
 313 117 331 90 386 90 c 0
 423 90 470 104 530 132 c 1
 530 33 l 1
 459 2 402 -12 346 -12 c 0
 221 -12 168 51 168 198 c 2
 168 434 l 1
 36 434 l 1
459 698 m 1
 409 698 l 1
 409 843 l 1
 530 843 l 1
 530 731 l 2
 530 678 520 637 499 606 c 0
 479 576 443 554 413 554 c 2
 409 554 l 1
 409 604 l 1
 444 610 459 634 459 684 c 2
 459 698 l 1
EndSplineSet
EndChar
StartChar: Umacron
Encoding: 292 362 64
Width: 600
Flags: MW
HStem: -18 85<283.5 354> 703 20<10 251 251 251 397 590 590 590> 784 84<131 492 131 492>
VStem: 58 145<242 277 277 639> 445 97<248 265 265 639>
LayerCount: 2
Fore
SplineSet
10 639 m 1
 10 723 l 1
 251 723 l 1
 251 639 l 1
 203 639 l 1
 203 277 l 2
 203 119 235 67 332 67 c 0
 418 67 445 110 445 248 c 2
 445 639 l 1
 397 639 l 1
 397 723 l 1
 590 723 l 1
 590 639 l 1
 542 639 l 1
 542 265 l 2
 542 162 532 110 506 71 c 0
 466 12 400 -18 308 -18 c 0
 216 -18 144 11 100 66 c 0
 70 104 58 153 58 242 c 2
 58 639 l 1
 10 639 l 1
131 784 m 1
 131 868 l 1
 492 868 l 1
 492 784 l 1
 131 784 l 1
EndSplineSet
EndChar
StartChar: Uring
Encoding: 276 366 46
Width: 600
Flags: MW
HStem: -18 85<283.5 354> 703 20<10 251 251 251 397 590 590 590> 783 54<307.5 341 307.5 355.5> 958 54<307.5 341>
VStem: 58 145<242 277 277 639> 210 54<881.5 914.5 881.5 929> 385 54<881 914.5> 445 97<248 265 265 639>
LayerCount: 2
Fore
SplineSet
10 639 m 1
 10 723 l 1
 251 723 l 1
 251 639 l 1
 203 639 l 1
 203 277 l 2
 203 119 235 67 332 67 c 0
 418 67 445 110 445 248 c 2
 445 639 l 1
 397 639 l 1
 397 723 l 1
 590 723 l 1
 590 639 l 1
 542 639 l 1
 542 265 l 2
 542 162 532 110 506 71 c 0
 466 12 400 -18 308 -18 c 0
 216 -18 144 11 100 66 c 0
 70 104 58 153 58 242 c 2
 58 639 l 1
 10 639 l 1
324 1012 m 0
 388 1012 439 961 439 898 c 0
 439 833 388 783 323 783 c 0
 261 783 210 834 210 897 c 0
 210 961 260 1012 324 1012 c 0
324 958 m 0
 291 958 264 931 264 898 c 0
 264 865 291 837 324 837 c 0
 358 837 385 864 385 898 c 0
 385 931 358 958 324 958 c 0
EndSplineSet
EndChar
StartChar: uring
Encoding: 312 367 110
Width: 600
Flags: W
HStem: -12 20 0 20 510 20<15 205 205 205 329 531 531 531> 626 54<272.5 306 272.5 321> 802 54<272.5 306>
VStem: 15 54 66 139<170 215 215 446 446 446> 190 54 392 139<0 530 78 530 183 446 446 446>
LayerCount: 2
Fore
SplineSet
15 446 m 1
 15 530 l 1
 205 530 l 1
 205 215 l 2
 205 125 220 98 270 98 c 0
 309 98 346 123 392 183 c 1
 392 446 l 1
 329 446 l 1
 329 530 l 1
 531 530 l 1
 531 84 l 1
 582 84 l 1
 582 0 l 1
 392 0 l 1x6280
 392 78 l 1
 328 7 289 -12 209 -12 c 0
 107 -12 66 39 66 166 c 2
 66 446 l 1x8280
 15 446 l 1
289 856 m 0
 353 856 404 805 404 741 c 0
 404 676 354 626 288 626 c 0
 226 626 175 677 175 741 c 0x1d
 175 805 225 856 289 856 c 0
289 802 m 0
 256 802 229 775 229 741 c 0
 229 708 256 680 289 680 c 0
 323 680 350 707 350 741 c 0
 350 775 323 802 289 802 c 0
EndSplineSet
EndChar
StartChar: Uogonek
Encoding: 293 370 65
Width: 600
Flags: W
HStem: -181 46<357.5 370> -18 85<283.5 354> 0 20 703 20<10 251 251 251 397 590 590 590>
VStem: 58 145<242 276 276 639> 215 90<-104 -84> 445 97<248 265 265 639>
LayerCount: 2
Fore
SplineSet
10 639 m 1x5e
 10 723 l 1
 251 723 l 1
 251 639 l 1
 203 639 l 1
 203 276 l 2
 203 119 235 67 332 67 c 0
 418 67 445 110 445 248 c 2
 445 639 l 1
 397 639 l 1
 397 723 l 1
 590 723 l 1
 590 639 l 1
 542 639 l 1
 542 265 l 2
 542 162 532 110 506 71 c 0
 466 12 400 -18 308 -18 c 0
 216 -18 144 11 100 66 c 0
 70 104 58 153 58 242 c 2
 58 639 l 1
 10 639 l 1x5e
323 0 m 1xae
 401 0 l 1
 333 -29 305 -56 305 -89 c 0
 305 -119 332 -135 383 -135 c 0
 398 -135 414 -133 438 -127 c 1
 438 -167 l 1
 409 -177 386 -181 354 -181 c 0
 263 -181 215 -154 215 -105 c 0
 215 -63 248 -32 323 0 c 1xae
EndSplineSet
EndChar
StartChar: uogonek
Encoding: 327 371 127
Width: 600
Flags: W
HStem: -181 46<453.5 465.5> -12 20 0 20 0 20 510 20<15 205 205 205 329 531 531 531>
VStem: 15 90 66 139<170 215 215 446 446 446> 392 139<0 530 78 530 183 446 446 446>
LayerCount: 2
Fore
SplineSet
15 446 m 1
 15 530 l 1
 205 530 l 1
 205 215 l 2
 205 125 220 98 270 98 c 0
 309 98 346 123 392 183 c 1
 392 446 l 1
 329 446 l 1
 329 530 l 1
 531 530 l 1
 531 84 l 1
 582 84 l 1
 582 0 l 1
 392 0 l 1x2b
 392 78 l 1
 328 7 289 -12 209 -12 c 0
 107 -12 66 39 66 166 c 2
 66 446 l 1x43
 15 446 l 1
419 0 m 1
 497 0 l 1
 430 -29 401 -56 401 -89 c 0
 401 -119 428 -135 479 -135 c 0
 494 -135 511 -133 534 -127 c 1
 534 -167 l 1
 505 -177 482 -181 449 -181 c 0
 359 -181 311 -154 311 -105 c 0x94
 311 -64 344 -32 419 0 c 1
EndSplineSet
EndChar
StartChar: Ydieresis
Encoding: 159 376 54
Width: 600
Flags: W
HStem: 0 84<117 237 117 237 382 502> 703 20<7 272 272 272 401 594 594 594> 784 108<169 277 169 277 386 494>
VStem: 169 108<784 892 784 892> 237 145<84 317 84 317> 386 108<784 892 784 892>
LayerCount: 2
Fore
SplineSet
117 0 m 1xe8
 117 84 l 1
 237 84 l 1
 237 317 l 1
 52 639 l 1
 7 639 l 1
 7 723 l 1
 272 723 l 1
 272 639 l 1
 225 639 l 1
 344 432 l 1
 451 639 l 1
 401 639 l 1
 401 723 l 1
 594 723 l 1
 594 639 l 1
 552 639 l 1
 382 317 l 1
 382 84 l 1
 502 84 l 1
 502 0 l 1
 117 0 l 1xe8
169 784 m 1xf4
 169 892 l 1
 277 892 l 1
 277 784 l 1
 169 784 l 1xf4
386 784 m 1
 386 892 l 1
 494 892 l 1
 494 784 l 1
 386 784 l 1
EndSplineSet
EndChar
StartChar: Zdotaccent
Encoding: 280 379 51
Width: 600
Flags: MW
HStem: 0 90<54 54 215 456> 510 20<72 162 72 72> 639 84<162 381 162 162> 783 145<231 376 231 376>
VStem: 72 90<530 639 530 723 530 723> 231 145<783 928 783 928> 456 90<90 211 0 211>
LayerCount: 2
Fore
SplineSet
54 0 m 1
 54 90 l 1
 381 639 l 1
 162 639 l 1
 162 530 l 1
 72 530 l 1
 72 723 l 1
 540 723 l 1
 540 633 l 1
 215 90 l 1
 456 90 l 1
 456 211 l 1
 546 211 l 1
 546 0 l 1
 54 0 l 1
231 783 m 1
 231 928 l 1
 376 928 l 1
 376 783 l 1
 231 783 l 1
EndSplineSet
EndChar
StartChar: zdotaccent
Encoding: 316 380 115
Width: 600
Flags: MW
HStem: 0 90<239 444 239 528> 446 84<156 344 156 156 72 515> 626 145<221 366 221 366>
VStem: 72 84<350 446 350 530> 72 145 444 84<90 187 0 187>
LayerCount: 2
Fore
SplineSet
72 0 m 1
 72 96 l 1
 344 446 l 1
 156 446 l 1
 156 350 l 1
 72 350 l 1
 72 530 l 1
 515 530 l 1
 515 446 l 1
 239 90 l 1
 444 90 l 1
 444 187 l 1
 528 187 l 1
 528 0 l 1xd4
 72 0 l 1
221 626 m 1
 221 771 l 1
 366 771 l 1
 366 626 l 1x28
 221 626 l 1
EndSplineSet
EndChar
StartChar: Zcaron
Encoding: 279 381 50
Width: 600
Flags: MW
HStem: 0 90<54 54 215 456> 510 20<72 162 72 72> 639 84<162 381 162 162>
VStem: 72 90<530 639 530 723 530 723> 456 90<90 211 0 211>
LayerCount: 2
Fore
SplineSet
54 0 m 1
 54 90 l 1
 381 639 l 1
 162 639 l 1
 162 530 l 1
 72 530 l 1
 72 723 l 1
 540 723 l 1
 540 633 l 1
 215 90 l 1
 456 90 l 1
 456 211 l 1
 546 211 l 1
 546 0 l 1
 54 0 l 1
477 940 m 1
 376 783 l 1
 237 783 l 1
 135 940 l 1
 213 940 l 1
 305 847 l 1
 306 847 l 1
 399 940 l 1
 477 940 l 1
EndSplineSet
EndChar
StartChar: zcaron
Encoding: 315 382 114
Width: 600
Flags: MW
HStem: 0 90<239 444 239 528> 446 84<156 344 156 156 72 515>
VStem: 72 84<350 446 350 530> 444 84<90 187 0 187>
LayerCount: 2
Fore
SplineSet
72 0 m 1
 72 96 l 1
 344 446 l 1
 156 446 l 1
 156 350 l 1
 72 350 l 1
 72 530 l 1
 515 530 l 1
 515 446 l 1
 239 90 l 1
 444 90 l 1
 444 187 l 1
 528 187 l 1
 528 0 l 1xf0
 72 0 l 1
471 783 m 1
 369 626 l 1
 230 626 l 1
 128 783 l 1
 206 783 l 1
 299 690 l 1
 300 690 l 1
 393 783 l 1
 471 783 l 1
EndSplineSet
EndChar
StartChar: florin
Encoding: 131 402 216
Width: 600
Flags: MW
HStem: 344 84<64 139 64 156 301 395> 657 84<397 427.5>
LayerCount: 2
Fore
SplineSet
42 -145 m 1
 139 344 l 1
 64 344 l 1
 64 428 l 1
 156 428 l 1
 166 476 l 2
 200 646 301 741 445 741 c 0
 477 741 512 737 558 727 c 1
 558 575 l 1
 474 575 l 1
 461 649 l 1
 444 655 433 657 422 657 c 0
 372 657 336 608 318 515 c 2
 301 428 l 1
 395 428 l 1
 395 344 l 1
 284 344 l 1
 187 -145 l 1
 42 -145 l 1
EndSplineSet
EndChar
StartChar: Scommaaccent
Encoding: 332 536 132
Width: 600
Flags: MW
HStem: -211 48<230 311> -18 85<270 326.5 270 358> 657 85<280 324>
VStem: 68 148<544.5 593 544.5 600> 300 97<-141 -117> 402 145<139.5 181.5>
LayerCount: 2
Fore
SplineSet
55 27 m 1
 55 215 l 1
 139 215 l 1
 151 112 l 1
 209 80 249 67 291 67 c 0
 362 67 402 101 402 162 c 0
 402 201 382 229 332 258 c 0
 319 266 308 272 299 278 c 2
 233 319 l 2
 107 396 68 448 68 536 c 0
 68 664 158 742 306 742 c 0
 365 742 423 732 507 706 c 1
 507 522 l 1
 422 522 l 1
 411 628 l 1
 373 648 341 657 307 657 c 0
 253 657 216 620 216 566 c 0
 216 523 236 501 322 449 c 2
 393 406 l 2
 522 327 547 295 547 210 c 0
 547 69 443 -18 273 -18 c 0
 215 -18 154 -5 55 27 c 1
226 -92 m 1
 226 -48 l 1
 345 -50 397 -75 397 -130 c 0
 397 -177 346 -211 276 -211 c 0
 246 -211 217 -209 190 -205 c 1
 190 -160 l 1
 209 -162 223 -163 237 -163 c 0
 279 -163 300 -152 300 -130 c 0
 300 -104 277 -93 226 -92 c 1
EndSplineSet
EndChar
StartChar: scommaaccent
Encoding: 310 537 104
Width: 600
Flags: MW
HStem: -211 48<256.5 337> -12 85<295.5 341 295.5 381.5> 458 84<276.5 323>
VStem: 82 138<381 417.5 381 433> 193 97 394 138<111 148.5>
LayerCount: 2
Fore
SplineSet
92 25 m 1
 92 181 l 1
 176 181 l 1
 189 108 l 1
 239 83 276 73 315 73 c 0
 367 73 394 92 394 130 c 0
 394 167 374 185 310 203 c 2
 240 223 l 2
 133 253 82 304 82 380 c 0
 82 486 162 542 313 542 c 0
 381 542 438 533 503 513 c 1
 503 361 l 1
 419 361 l 1
 407 437 l 1
 373 452 341 458 305 458 c 0
 248 458 220 438 220 397 c 0
 220 365 232 356 306 333 c 2
 388 308 l 2
 495 275 532 237 532 160 c 0
 532 51 451 -12 312 -12 c 0x74
 246 -12 177 0 92 25 c 1
252 -92 m 1
 252 -48 l 1
 372 -50 424 -75 424 -130 c 0
 424 -177 372 -211 302 -211 c 0
 272 -211 243 -209 216 -205 c 1
 216 -160 l 1
 237 -162 250 -163 263 -163 c 0
 305 -163 327 -152 327 -130 c 0x88
 327 -104 304 -93 252 -92 c 1
EndSplineSet
EndChar
StartChar: circumflex
Encoding: 136 710 286
Width: 600
Flags: W
LayerCount: 2
Fore
SplineSet
129 626 m 1
 231 783 l 1
 370 783 l 1
 472 626 l 1
 394 626 l 1
 301 719 l 1
 300 719 l 1
 207 626 l 1
 129 626 l 1
EndSplineSet
EndChar
StartChar: caron
Encoding: 345 711 287
Width: 600
Flags: W
LayerCount: 2
Fore
SplineSet
472 783 m 1
 370 626 l 1
 231 626 l 1
 129 783 l 1
 207 783 l 1
 300 690 l 1
 301 690 l 1
 394 783 l 1
 472 783 l 1
EndSplineSet
EndChar
StartChar: breve
Encoding: 346 728 288
Width: 600
Flags: MW
HStem: 627 85<270 329.5 270 347.5>
LayerCount: 2
Fore
SplineSet
127 784 m 1
 193 784 l 1
 208 734 240 712 300 712 c 0
 359 712 391 734 406 784 c 1
 472 784 l 1
 459 685 395 627 300 627 c 0x80
 205 627 140 685 127 784 c 1
EndSplineSet
EndChar
StartChar: dotaccent
Encoding: 343 729 282
Width: 600
Flags: MW
HStem: 626 145<228 373 228 373>
VStem: 228 145<626 771 626 771>
LayerCount: 2
Fore
SplineSet
228 626 m 1
 228 771 l 1
 373 771 l 1
 373 626 l 1xc0
 228 626 l 1
EndSplineSet
EndChar
StartChar: ring
Encoding: 344 730 283
Width: 600
Flags: MW
HStem: 626 54<283.5 317 283.5 332> 802 54<283.5 317>
VStem: 186 54<724.5 758 724.5 773> 361 54<724 758>
LayerCount: 2
Fore
SplineSet
300 856 m 0
 364 856 415 805 415 741 c 0
 415 676 365 626 299 626 c 0
 237 626 186 677 186 741 c 0xf0
 186 805 236 856 300 856 c 0
300 802 m 0
 267 802 240 775 240 741 c 0
 240 708 267 680 300 680 c 0
 334 680 361 707 361 741 c 0
 361 775 334 802 300 802 c 0
EndSplineSet
EndChar
StartChar: ogonek
Encoding: 348 731 292
Width: 600
Flags: MW
HStem: -181 46<321.5 333.5> 0 20
VStem: 179 90<-104 -84.5>
LayerCount: 2
Fore
SplineSet
287 0 m 1
 365 0 l 1
 298 -29 269 -56 269 -89 c 0
 269 -119 296 -135 347 -135 c 0
 362 -135 379 -133 402 -127 c 1
 402 -167 l 1
 373 -177 350 -181 317 -181 c 0
 227 -181 179 -154 179 -105 c 0xe0
 179 -64 212 -32 287 0 c 1
EndSplineSet
EndChar
StartChar: tilde
Encoding: 152 732 289
Width: 600
Flags: W
HStem: 626 91<363 377.5 362 406.5> 693 90<221.5 236.5>
LayerCount: 2
Fore
SplineSet
200 626 m 1
 128 626 l 1
 130 736 160 783 226 783 c 0x40
 247 783 268 776 288 762 c 2
 307 750 l 2
 311 747 315 744 317 743 c 0
 319 741 319 741 321 740 c 0
 335 728 357 717 367 717 c 0
 388 717 398 738 399 783 c 1
 471 783 l 1
 469 674 439 626 374 626 c 0x80
 352 626 334 632 312 647 c 2
 293 660 l 1
 287 664 l 1
 283 667 l 1
 283 667 278 670 270 676 c 0
 255 687 241 693 232 693 c 0x40
 211 693 201 672 200 626 c 1
EndSplineSet
EndChar
StartChar: hungarumlaut
Encoding: 347 733 290
Width: 600
Flags: W
LayerCount: 2
Fore
SplineSet
103 626 m 1
 208 783 l 1
 322 783 l 1
 164 626 l 1
 103 626 l 1
279 626 m 1
 384 783 l 1
 498 783 l 1
 340 626 l 1
 279 626 l 1
EndSplineSet
EndChar
StartChar: endash
Encoding: 150 8211 243
Width: 600
Flags: MW
HStem: 260 72<59 541 59 541>
LayerCount: 2
Fore
SplineSet
59 260 m 1
 59 332 l 1
 541 332 l 1
 541 260 l 1
 59 260 l 1
EndSplineSet
EndChar
StartChar: emdash
Encoding: 151 8212 244
Width: 600
Flags: MW
HStem: 260 72<0 600 0 600>
LayerCount: 2
Fore
SplineSet
0 260 m 1
 0 332 l 1
 600 332 l 1
 600 260 l 1
 0 260 l 1
EndSplineSet
EndChar
StartChar: quoteleft
Encoding: 145 8216 228
Width: 600
Flags: MW
VStem: 216 168<458 588 588 626 458 654>
LayerCount: 2
Fore
SplineSet
384 626 m 1
 384 458 l 1
 216 458 l 1
 216 588 l 2
 216 720 260 771 374 771 c 2
 384 771 l 1
 384 711 l 1
 377 711 l 2
 335 711 322 693 318 626 c 1
 384 626 l 1
EndSplineSet
EndChar
StartChar: quoteright
Encoding: 146 8217 268
Width: 600
Flags: MW
VStem: 216 168<458 641 518 641 608 641 641 771 608 771>
LayerCount: 2
Fore
SplineSet
216 603 m 1
 216 771 l 1
 384 771 l 1
 384 641 l 2
 384 575 372 527 348 499 c 0
 326 473 274 454 233 457 c 2
 226 458 l 1
 216 458 l 1
 216 518 l 1
 223 518 l 2
 265 518 277 536 282 603 c 1
 216 603 l 1
EndSplineSet
EndChar
StartChar: quotesinglbase
Encoding: 130 8218 267
Width: 653
Flags: MW
HStem: 0 20
VStem: 250 168<-145 38 -85 38 0 38 38 168 -28 168>
LayerCount: 2
Fore
SplineSet
250 0 m 1
 250 168 l 1
 418 168 l 1
 418 38 l 2
 418 -94 374 -145 260 -145 c 2
 250 -145 l 1
 250 -85 l 1
 257 -85 l 2
 299 -85 311 -67 316 0 c 1
 250 0 l 1
EndSplineSet
EndChar
StartChar: quotedblleft
Encoding: 147 8220 230
Width: 600
Flags: MW
VStem: 95 145<482 613 613 627 482 666> 360 145<482 613 613 627 482 666>
LayerCount: 2
Fore
SplineSet
240 627 m 1
 240 482 l 1
 95 482 l 1
 95 613 l 2
 95 719 140 771 230 771 c 2
 240 771 l 1
 240 717 l 1
 231 718 l 1
 228 718 l 2
 198 719 178 691 179 649 c 2
 179 646 l 1
 180 627 l 1
 240 627 l 1
505 627 m 1
 505 482 l 1
 360 482 l 1
 360 613 l 2
 360 719 405 771 495 771 c 2
 505 771 l 1
 505 717 l 1
 496 718 l 1
 493 718 l 2
 461 717 445 695 444 646 c 2
 445 627 l 1
 505 627 l 1
EndSplineSet
EndChar
StartChar: quotedblright
Encoding: 148 8221 229
Width: 600
Flags: MW
VStem: 95 145<482 640 536 640 626 640 640 771 587.5 771> 360 145<482 640 536 640 626 640 640 771 587.5 771>
LayerCount: 2
Fore
SplineSet
95 626 m 1
 95 771 l 1
 240 771 l 1
 240 640 l 2
 240 535 195 482 105 482 c 2
 95 482 l 1
 95 536 l 1
 104 536 l 2
 123 536 138 544 146 558 c 0
 153 571 157 591 156 604 c 2
 156 607 l 1
 155 626 l 1
 95 626 l 1
360 626 m 1
 360 771 l 1
 505 771 l 1
 505 640 l 2
 505 535 460 482 370 482 c 2
 360 482 l 1
 360 536 l 1
 369 536 l 2
 388 536 403 544 411 558 c 0
 418 571 422 591 421 604 c 2
 421 607 l 1
 420 626 l 1
 360 626 l 1
EndSplineSet
EndChar
StartChar: quotedblbase
Encoding: 132 8222 231
Width: 653
Flags: MW
HStem: 0 20
VStem: 152 145<-144 14 -90 14 0 14 14 145 -38.5 145> 417 145<-144 14 -90 14 0 14 14 145 -38.5 145>
LayerCount: 2
Fore
SplineSet
152 0 m 1
 152 145 l 1
 297 145 l 1
 297 14 l 2
 297 -91 252 -144 162 -144 c 2
 152 -144 l 1
 152 -90 l 1
 161 -90 l 1
 199 -85 211 -69 213 -22 c 2
 213 -19 l 1
 212 0 l 1
 152 0 l 1
417 0 m 1
 417 145 l 1
 562 145 l 1
 562 14 l 2
 562 -91 517 -144 427 -144 c 2
 417 -144 l 1
 417 -90 l 1
 426 -90 l 1
 464 -85 476 -69 478 -22 c 2
 478 -19 l 1
 477 0 l 1
 417 0 l 1
EndSplineSet
EndChar
StartChar: dagger
Encoding: 134 8224 251
Width: 600
Flags: MW
HStem: 703 20<228 372 372 372>
LayerCount: 2
Fore
SplineSet
228 -145 m 1
 240 386 l 1
 83 374 l 1
 83 494 l 1
 240 482 l 1
 228 723 l 1
 372 723 l 1
 361 482 l 1
 517 494 l 1
 517 374 l 1
 361 386 l 1
 372 -145 l 1
 228 -145 l 1
EndSplineSet
EndChar
StartChar: daggerdbl
Encoding: 135 8225 252
Width: 653
Flags: MW
HStem: 703 20<276 421 421 421>
VStem: 288 121<96 96 193 386>
LayerCount: 2
Fore
SplineSet
276 -145 m 1
 288 96 l 1
 131 84 l 1
 131 204 l 1
 288 193 l 1
 288 386 l 1
 131 374 l 1
 131 494 l 1
 288 482 l 1
 276 723 l 1
 421 723 l 1
 409 482 l 1
 565 494 l 1
 565 374 l 1
 409 386 l 1
 409 193 l 1
 565 204 l 1
 565 84 l 1
 409 96 l 1
 421 -145 l 1
 276 -145 l 1
EndSplineSet
EndChar
StartChar: bullet
Encoding: 149 8226 299
Width: 600
Flags: MW
HStem: 528 20<263 338.5>
LayerCount: 2
Fore
SplineSet
301 548 m 0
 376 548 436 488 436 412 c 0
 436 336 376 277 298 277 c 0
 225 277 165 338 165 413 c 0
 165 488 225 548 301 548 c 0
EndSplineSet
EndChar
StartChar: ellipsis
Encoding: 133 8230 225
Width: 600
Flags: MW
HStem: 0 121<40 161 40 161 240 360 40 240 440 561>
VStem: 40 121<0 121 0 121> 240 120<0 121 0 121> 440 121<0 121 0 121>
LayerCount: 2
Fore
SplineSet
40 0 m 1
 40 121 l 1
 161 121 l 1
 161 0 l 1
 40 0 l 1
240 0 m 1
 240 121 l 1
 360 121 l 1
 360 0 l 1
 240 0 l 1
440 0 m 1
 440 121 l 1
 561 121 l 1
 561 0 l 1
 440 0 l 1
EndSplineSet
EndChar
StartChar: perthousand
Encoding: 137 8240 279
Width: 653
Flags: W
HStem: -18 20 0 66<398 427.5 572.5 604.5> 277 66<397 428.5 368.5 429 571.5 603.5> 380 66<120.5 152.5 120.5 177.5> 657 66<119.5 152> 721 20<434 517 517 517>
VStem: 9 78<518 587.5 518 610> 184 78<517 586.5> 286 79<138.5 208 138.5 228> 461 78<138.5 207.5> 636 78<137.5 207.5>
LayerCount: 2
Fore
SplineSet
135 723 m 0x9be0
 219 723 262 665 262 551 c 0
 262 438 219 380 136 380 c 0
 51 380 9 438 9 554 c 0
 9 666 52 723 135 723 c 0x9be0
136 657 m 0
 103 657 87 622 87 553 c 0
 87 483 104 446 137 446 c 0
 168 446 184 483 184 551 c 0
 184 622 168 657 136 657 c 0
32 -18 m 1
 434 741 l 1
 517 741 l 1xa7e0
 114 -18 l 1
 32 -18 l 1
500 290 m 1
 526 328 552 343 591 343 c 0
 672 343 714 284 714 171 c 0
 714 59 672 0 591 0 c 0
 552 0 526 16 500 53 c 1
 474 15 447 0 408 0 c 0x63e0
 328 0 286 59 286 172 c 0
 286 284 328 343 409 343 c 0
 448 343 474 328 500 290 c 1
413 277 m 0
 381 277 365 242 365 174 c 0
 365 103 382 66 414 66 c 0
 445 66 461 102 461 173 c 0
 461 242 445 277 413 277 c 0
587 277 m 0
 555 277 539 242 539 174 c 0
 539 103 556 66 589 66 c 0
 620 66 636 102 636 173 c 0
 636 242 620 277 587 277 c 0
EndSplineSet
EndChar
StartChar: guilsinglleft
Encoding: 139 8249 239
Width: 600
Flags: W
LayerCount: 2
Fore
SplineSet
458 411 m 1
 314 266 l 1
 457 122 l 1
 403 55 l 1
 132 265 l 1
 405 476 l 1
 458 411 l 1
EndSplineSet
EndChar
StartChar: guilsinglright
Encoding: 155 8250 238
Width: 600
Flags: W
LayerCount: 2
Fore
SplineSet
141 121 m 1
 286 266 l 1
 142 409 l 1
 197 476 l 1
 467 266 l 1
 195 55 l 1
 141 121 l 1
EndSplineSet
EndChar
StartChar: fraction
Encoding: 342 8260 277
Width: 600
Flags: MW
HStem: -18 20 721 20<484 554 554 554>
LayerCount: 2
Fore
SplineSet
46 -18 m 1
 484 741 l 1
 554 741 l 1
 115 -18 l 1
 46 -18 l 1
EndSplineSet
EndChar
StartChar: Euro
Encoding: 128 8364 217
Width: 600
Flags: MW
HStem: -18 96<380.5 431> 240 73<12 77 42 77 42 89 231 231 231 423> 422 72<42 77 12 92 233 498> 657 85<376.5 444>
VStem: 74 144<342 367.5>
LayerCount: 2
Fore
SplineSet
12 240 m 1
 42 313 l 1
 77 313 l 1
 75 342 74 354 74 362 c 0
 74 373 76 401 77 422 c 1
 12 422 l 1
 42 494 l 1
 92 494 l 1
 119 577 143 619 188 661 c 0
 246 714 325 742 423 742 c 0
 471 742 517 736 576 722 c 1
 576 622 l 1
 507 647 463 657 425 657 c 0
 328 657 259 598 233 494 c 1
 528 494 l 1
 498 422 l 1
 223 422 l 1
 221 401 219 383 219 376 c 0
 219 365 219 358 218 357 c 0
 218 350 217 345 218 343 c 0
 218 341 219 340 219 340 c 1
 219 313 l 1
 453 313 l 1
 423 240 l 1
 231 240 l 1
 259 138 332 78 429 78 c 0
 470 78 512 90 576 119 c 1
 576 14 l 1
 512 -8 459 -18 403 -18 c 0
 243 -18 138 69 89 240 c 1
 12 240 l 1
EndSplineSet
EndChar
StartChar: trademark
Encoding: 153 8482 264
Width: 600
Flags: MW
HStem: 703 20<24 247 247 247 265 383 383 383 464 582 582 582>
VStem: 102 66<409 675 409 675> 291 48<409 659 361 675 361 675> 492 63<409 662 662 662>
LayerCount: 2
Fore
SplineSet
66 361 m 1
 66 409 l 1
 102 409 l 1
 102 675 l 1
 66 675 l 1
 66 627 l 1
 24 627 l 1
 24 723 l 1
 247 723 l 1
 247 627 l 1
 205 627 l 1
 205 675 l 1
 168 675 l 1
 168 409 l 1
 205 409 l 1
 205 361 l 1
 66 361 l 1
265 361 m 1
 265 409 l 1
 291 409 l 1
 291 675 l 1
 265 675 l 1
 265 723 l 1
 383 723 l 1
 425 518 l 1
 464 723 l 1
 582 723 l 1
 582 675 l 1
 555 675 l 1
 555 409 l 1
 582 409 l 1
 582 361 l 1
 492 361 l 1
 492 662 l 1
 440 385 l 1
 395 385 l 1
 339 659 l 1
 339 361 l 1
 265 361 l 1
EndSplineSet
EndChar
StartChar: minus
Encoding: 341 8722 260
Width: 600
Flags: MW
HStem: 253 97<48 552 48 552>
LayerCount: 2
Fore
SplineSet
48 253 m 1
 48 350 l 1
 552 350 l 1
 552 253 l 1
 48 253 l 1
EndSplineSet
EndChar
StartChar: fi
Encoding: 336 64257 197
Width: 600
Flags: W
HStem: 0 20 434 84<18 69 18 69 208 396> 626 145<280 534 280 534 414 534 414 534> 698 85<239 256.5>
VStem: 69 139<85 434 85 434 518 582 582 599> 396 138<85 434 434 434> 414 120<626 771>
LayerCount: 2
Fore
SplineSet
18 0 m 1xdc
 18 85 l 1
 69 85 l 1
 69 434 l 1
 18 434 l 1
 18 518 l 1
 69 518 l 1
 69 582 l 2
 69 707 144 783 269 783 c 0xdc
 303 783 333 777 365 765 c 1
 365 626 l 1
 280 626 l 1x2c
 269 692 l 1
 263 697 259 698 254 698 c 0
 224 698 208 664 208 599 c 2
 208 518 l 1
 534 518 l 1
 534 85 l 1
 585 85 l 1
 585 0 l 1
 344 0 l 1
 344 85 l 1
 396 85 l 1
 396 434 l 1
 208 434 l 1
 208 85 l 1
 259 85 l 1
 259 0 l 1
 18 0 l 1xdc
414 626 m 1x22
 414 771 l 1
 534 771 l 1
 534 626 l 1
 414 626 l 1x22
EndSplineSet
EndChar
StartChar: fl
Encoding: 337 64258 198
Width: 600
Flags: MW
HStem: 0 20 434 84<18 69 18 69 208 340> 697 86<258 275 200 296>
VStem: 69 139<85 434 85 434 518 576 576 593> 396 138<85 658 658 658>
LayerCount: 2
Fore
SplineSet
18 0 m 1
 18 85 l 1
 69 85 l 1
 69 434 l 1
 18 434 l 1
 18 518 l 1
 69 518 l 1
 69 576 l 2
 69 714 135 783 265 783 c 0
 285 783 336 779 358 776 c 0
 381 773 397 771 401 771 c 2
 534 771 l 1
 534 85 l 1
 585 85 l 1
 585 0 l 1
 344 0 l 1
 344 85 l 1
 396 85 l 1
 396 658 l 1
 341 686 309 697 283 697 c 0
 233 697 208 662 208 593 c 2
 208 518 l 1
 340 518 l 1
 340 434 l 1
 208 434 l 1
 208 85 l 1
 259 85 l 1
 259 0 l 1
 18 0 l 1
EndSplineSet
EndChar
StartChar: commaaccent
Encoding: 350 -1 294
Width: 333
Flags: MW
HStem: -211 48<106.5 187>
VStem: 177 97<-141 -117>
LayerCount: 2
Fore
SplineSet
102 -92 m 1
 102 -48 l 1
 222 -50 274 -75 274 -130 c 0
 274 -177 222 -211 152 -211 c 0
 122 -211 93 -209 66 -205 c 1
 66 -160 l 1
 87 -162 100 -163 113 -163 c 0
 155 -163 177 -152 177 -130 c 0xc0
 177 -104 154 -93 102 -92 c 1
EndSplineSet
EndChar
